<?xml version="1.0"?>
<svg xmlns:rdf="http://www.w3.org/1999/02/22-rdf-syntax-ns#" xmlns="http://www.w3.org/2000/svg" xmlns:cc="http://creativecommons.org/ns#" xmlns:dc="http://purl.org/dc/elements/1.1/" xmlns:svg="http://www.w3.org/2000/svg" id="svg4248" viewBox="0 0 537.59 533.82" version="1.1">
  <g id="g4459" stroke="#000" transform="translate(-115.06 -54.844)">
    <path id="path4940" d="m462.39 146.41 1.8948-1.0141 1.0044-2.8813 2.2588-1.9057 1.8464-3.1836c1.0504-1.811 3.1008-1.9365 3.1008-1.6047s0.84685 0.15005 1.8819-0.40388l1.8819-1.0072 5.6181 1.1784 5.6181 1.1784v1.7052l0.8217-0.50784 0.8217-0.50784 2.8457 1.4764 2.8457 1.4764 1.061-0.35368 1.061-0.35368 1.9601 1.8261 1.9601 1.8262h3.2458l2.1886 2.039c1.2037 1.1214 2.1886 2.3935 2.1886 2.8268v0.78785l2.8346-0.41603 2.8346-0.41603 3.4154 3.621c1.8785 1.9915 3.4554 3.9442 3.5042 4.3392 0.0488 0.39503 0.55038 1.8432 1.1146 3.2182l1.0258 2.5 0.88544-0.5 0.88545-0.5 0.32149 2.2648 0.3215 2.2648 1.1785-0.76463c0.64818-0.42055 3.4285-1.4772 6.1785-2.3481l5-1.5834 5.9856 2.9666 5.9856 2.9666 4.1813 0.11668 4.1813 0.11668 0.74978 0.75 0.74979 0.75h19.464l5.5861 2.9385c8.119 4.2708 17.272 11.148 24.036 18.06l5.9192 6.0485 2.2675 1.2172c1.3252 0.38271 1.5405 0.68127 2.1727 1.27 0.75865 0.69764 4.886 3.1223 7.4713 4.4622 0.98482 0.5104 7.7634 1.1986 7.7634 1.1986l6.0134 0.43497 2.6578 1.9844 2.6578 1.9844 1.8619 5.4509 1.8619 5.4508 0.60926 5.75 1.2798 4.4536c0.99523 1.4058 0.58361 2.4753 0.68775 3.712l-0.49986 6.8578-0.72337 7.5731c-0.62021 3.9403 0.14349 2.2907-0.94472 4.6535-0.44001 1.1-2.977 4.8028-5.6376 8.2285l-4.84 6.21c-1.5501 2.0066-2.7302 3.4722-4.5 4.1644l-3.5 4.3785c-1.925 2.4082-3.7825 4.4058-4.1279 4.4392-0.34533 0.0334-2.335 0.77404-4.4214 1.6458-1.8268 1.784-3.4177 2.2994-5.6872 4.356l-1.3823 1.7794c-0.76026 0.97866-2.2581 3.6949-3.3285 6.0362-2.031 4.4423-9.3199 14.407-12.868 17.591l-2.4636 1.9636-2.8029-5.5532-1.8199 0.51839c-0.28912 0.34695 2.8624 4.4129 0.83859 5.2802l-1.937 1.753v5.572l-1.0124 0.62568-1.0124 0.62569 0.89509 1.5994 0.89508 1.5994-1.5126 4.4392-1.5126 4.4392 0.92283 7.9235 0.92283 7.9235-2.8602 8.7212-2.8602 8.7212 0.00076 4.5 0.00076 4.5-3.5359 3.1795-3.5359 3.1795-0.82516 7.3579c-0.45383 4.0468-1.1315 8.5786-1.506 10.07-2.9365 8.9531-6.74 2.3846-4.869 7.9974l-2.0475 2.531c-1.1261 1.3921-3.527 4.0138-5.3354 5.8262l-3.2879 3.2951-1.4621 3.4993-1.4621 3.4993v6.9462l-1.25 0.80089c-0.6875 0.44049-3.5 1.7068-6.25 2.8141l-5 2.0132-0.33468 2.495c-0.18407 1.3722-0.68405 2.8599-1.1111 3.306l-0.77639 0.81107-12.618 0.011-12.618 0.011-1.0211-0.63108-1.0211-0.63108v2.363l-1.5242-1.265-1.5242-1.2649-0.71308 0.71308c-0.3922 0.39219-0.71882 1.4182-0.72584 2.2801l-0.0127 1.567-1.5 0.74036c-0.825 0.4072-3.2835 1.3091-5.4633 2.0043-2.1798 0.69514-4.5744 1.8751-5.3214 2.622l-1.3582 1.3582h-5.6914l-4.8318 2.0712c-2.6575 1.1391-6.3999 3.2766-8.3165 4.75s-5.4046 3.9064-7.7511 5.4068l-4.2664 2.728-0.0553 1.272-0.0553 1.272-2.9463 2.3274-2.9463 2.3274-0.60311-1.5717-0.60312-1.5717-0.95506 0.59025-0.95505 0.59026 1.6786 1.2274 1.6786 1.2274-1.0071 1.9266c-0.55392 1.0596-1.4837 4.5147-2.0662 7.678l-1.0591 5.7514 1.0449 2.9974 1.0449 2.9974 0.90259-0.55783 0.90259-0.55783v2.1756l-0.25 2.2847c-0.89076 2.2078-1.9992 4.6334-1.9992 4.6334-0.96205 2.4884-1.7496 5.2566-1.75 6.1517l-0.00081 1.6274-7.25 7.4233-7.25 7.4233-5.3364 9.7253c-6.4174 11.695-8.4924 14.255-17.17 21.179l-6.6837 5.3328-1.2618 3.331c-0.69401 1.832-2.0012 4.8443-2.9049 6.6939l-1.643 3.363-4.9828 4.387c-5.5345 4.8728-6.0383 5.0773-6.9102 2.8052h-0.00006c-0.32-0.89-0.59-2.67-0.59-3.96v-2.361l2.0593-3.4902 2.0593-3.4902-2.061-1.103-2.0609-1.103-1.3753-3.2917-1.3754-3.2917-3.373-1.372-3.37-1.38-1.2696-1.7473c-0.69828-0.96104-3.0648-2.7563-5.2589-3.9895l-3.9893-2.2421-1.576-2.4053-1.576-2.4053-2.3412 2.1994-2.3412 2.1994-1.9699-3.8549-1.9699-3.8549-3.7684-3.4239-3.7684-3.4239-2.6434 1.5171-2.6433 1.5171-2.2643-0.83761-2.2643-0.8376 1.9641-2.7556c1.0803-1.5156 2.9417-3.639 4.1365-4.7189 1.1948-1.0798 4.241-4.9048 6.7695-8.5 6.0221-8.563 10.804-13.538 16.024-16.674 2.3375-1.404 4.25-2.8772 4.25-3.2738 0-0.39661 2.6573-1.9912 5.9052-3.5435l5.9052-2.8224 1.2394-2.3159 1.2394-2.3159-0.55957-5.2955c-0.30776-2.9126-1.0579-6.589-1.6671-8.1698l-1.1075-2.8742-3.9775 0.63603-3.9775 0.63604v-4.9056l0.89648-0.55405 0.89648-0.55406 1.1463-6.5825 1.1463-6.5825-0.67756-2.1725c-0.37265-1.1948-1.1015-2.4454-1.6197-2.779l-0.94211-0.60654-4.159 1.4329-4.159 1.4329-2.2641-2.6321-2.2641-2.6321v-3.3972c0-1.8684-0.42135-4.4309-0.93634-5.6942-0.51498-1.2634-1.2104-3.9846-1.5453-6.047l-0.60898-3.75h-1.9076c-1.0492 0-3.0405-0.51616-4.4251-1.147l-2.5174-1.147-1.4015 1.1631-1.4015 1.1631-4.8781-0.40694c-5.8642-0.48919-10.685-1.6421-11.405-2.7275l-0.52706-0.79431 0.55184-6.5764 0.55184-6.5764-2.3706-7.5774-2.3706-7.5774 3.0558-7.2799 3.0558-7.2799 0.60091-6.368 0.6009-6.368-2.0825-3.3095-2.0825-3.3095-2.9564-1.0306-2.9564-1.0306-0.94682-3.4291-0.94681-3.4291 0.85488-2.9808 0.85489-2.9808-8.6802-0.011c-4.7741-0.006-10.289-0.27722-12.256-0.6026l-3.576-0.59159-0.23477-5.1474-0.23477-5.1474-1.858-2-1.858-2 0.37361-5.5 0.37361-5.5-0.743-3.4858-0.743-3.4858-3.2782-2.2092-3.2782-2.2092-4.9781 0.58958-4.9781 0.58958-2.7056-2.5391-2.7056-2.5392-3.2168-0.67756-3.2168-0.67757-3.5776-2.4278-3.5776-2.4278h-3.7932l-0.61803-1-0.61803-1h-9.9035l-4.7392-3.2351c-2.6066-1.7793-6.0653-4.755-7.686-6.6126l-2.9468-3.3775-0.87159-6.1374c-1.0366-7.2994-1.0551-7.9228-0.3947-13.308l0.51141-4.1701-5.6758 0.4974c-7.646 0.67007-9.1986 1.3241-18.618 7.8428-3.1789 2.2-7.1924 4.8517-8.9189 5.8926-1.7266 1.0409-4.7593 2.9679-6.7394 4.2822l-3.6002 2.3896-2.7149-1.0322-2.7149-1.0322-6.1849 0.0354-6.1849 0.0354-2.4785 1.3721-2.4786 1.3721-2.7714-1.4332-2.7715-1.4331v-18.355l-3.75 3.5788-3.75 3.5788-4.2676 0.63883-4.2676 0.63883-2.4824-0.62305-2.4824-0.62304v-2.7832l-2-2-2-2h-9v-0.56574c0-0.31116 0.47431-1.452 1.054-2.5352l1.054-1.9694-4.1645-4.7148c-2.27-2.6-4.55-5.62-5.04-6.72-0.49507-1.1-1.9807-3.8-3.3013-6l-2.4012-4 1.502-1.6783 1.502-1.6783-0.5662-1.8217-0.56619-1.8217 3.9604-4.5 3.9604-4.5 0.0218-2.5 0.0218-2.5 1.3363-2.5606 1.3363-2.5606 0.0857-3.4394 0.0857-3.4394 2.7746-2c1.526-1.1 3.8268-3.0105 5.1128-4.2455 3.1827-3.0566 6.7733-4.8049 13.447-6.5477l5.6351-1.4715 2.2384-1.5678 2.2384-1.5678 3.5022 1.4633c1.9262 0.80482 3.6705 1.2949 3.8763 1.0892 0.48906-0.48906 3.6823-17.28 5.8885-30.963l1.743-10.81-1.6564-3.4735c-0.9-1.92-1.65-4.12-1.65-4.89v-1.398l-3-2.1362-3-2.1362v-11.427l4.5107-1.3319 4.5107-1.3319 1.5853 1.3157 1.5853 1.3157-0.34604-2.4522-0.35-2.45-4.25-0.3075-4.25-0.3075-0.13311-2.1925c-0.0732-1.2059-0.15327-3.5425-0.17791-5.1925l-0.0448-3 9.9279-0.28031 9.9279-0.2803 1.6734-2.194 1.6735-2.194 1.9773 1.7894 1.9773 1.7894 0.62952-1.0186c0.34623-0.56022 1.9256-1.9414 3.5096-3.0694l2.8801-2.0508 3.1464 4.2543 3.1464 4.2543-0.41813 2.25-0.41812 2.25h2.856l3.5186 2.6838 3.5186 2.6838 3.6646-1.0463c2.0156-0.57545 4.4521-1.3813 5.4146-1.7908l1.75-0.74451 0.0406 2.357 0.0406 2.357 2.7527-3.2147 2.7527-3.2147 3.4567-1.5502c1.9012-0.85263 4.1317-1.961 4.9567-2.4632 0.825-0.50211 2.2235-1.1317 3.1078-1.3991l1.6078-0.48621 0.61719-3.0859 0.61719-3.086h3.932l0.66134-1.0701c0.36374-0.58854 1.6278-1.46 2.809-1.9366l2.15-0.866-3.6276-0.06339-3.6276-0.06339-0.95025-1.25c-0.52264-0.6875-1.7027-3.29-2.6224-5.7834l-1.6722-4.5334v-6.1958l-3.5-2.6696-3.5-2.6696v-4.1122l1.75 0.75875c0.9625 0.41731 2.7749 0.83789 4.0276 0.93462l2.2776 0.17587 1.1724 1.1724 1.1724 1.1724 5.05 0.02224 5.05 0.02224 2.5 1.9555c1.375 1.0755 2.8375 1.9655 3.25 1.9778l0.75 0.02224v-3.9538l2.5941-1.6997 2.5942-1.6997 4.917-0.24865 4.917-0.24865 3.3569-2.0747 3.3569-2.0747h3.9032l2.2685-2.609 2.2685-2.609-0.51051-1.9522-0.51051-1.9522 1.1724-0.35229c0.64481-0.19376 2.6322-0.60445 4.4165-0.91265l3.2441-0.56035 1.6852 2.5719 1.6852 2.5719-1.1793 1.8883c-0.66 1.037-1.19 2.343-1.19 2.9v1.0136h4.6182l1.5588 4.8744 1.5588 4.8744-1.7766 1.2805-1.7766 1.2805-0.58109 3.5951c-0.3196 1.9773-0.86227 5.4459-1.2059 7.7081l-0.62484 4.113 2.223 1.5571 2.223 1.5571-0.69461 1.1239-0.6946 1.1239 1.7563 2.706c1.972 3.0383 4.6029 5.1489 8.568 6.8732l2.684 1.1672 3.2764-2.4172 3.2764-2.4172h4.4934l0.61803-1 0.61803-1h3.6122l2.3961-1.8848 2.3961-1.8848 6.2711 0.3124c3.4491 0.17182 7.6943 0.62501 9.4339 1.0071l3.1629 0.69469-1.6839-2.5699-1.6839-2.5699 0.56604-1.4751c0.31132-0.81129 1.2696-1.7451 2.1296-2.0751l1.5636-0.59999 1.81 0.57446 1.81 0.57446 4.0212-1.0828 4.0212-1.0828 5.1759 2.6228 5.1759 2.6228 3.1021-0.56806c1.7062-0.31243 5.0146-0.72585 7.3521-0.91872l4.25-0.35066v1.6538h4.69l1.5633-1.75c0.85982-0.9625 2.7373-4.2427 4.1723-7.2892l2.609-5.5392 3.9946-4.834 3.9946-4.834 0.59652-2.3767 0.59653-2.3767h4.302l1.2227 1.9579 1.2227 1.9579 1.9558 8.9611 1.9558 8.9611 2.8444 5.7677 2.8444 5.7677 2.9665 0.79336 2.9665 0.79337 1.2512 1.7111 1.2512 1.7111v2.2618c0 1.244-0.50646 3.3734-1.1255 4.732l-1.1255 2.4701-2.2043 0.55325-2.2043 0.55325-1.9007 3.5294-1.9007 3.5294-1.6533 0.52473c-0.9093 0.2886-3.9556 2.9591-6.7695 5.9344l-5.1162 5.4096-0.11842 2.3099c-0.0651 1.2704-0.0595 2.6641 0.0124 3.0971 0.072 0.433-1.1122 1.8813-2.6316 3.2184l-2.7624 2.4311 1.298 0.0316c0.71392 0.0174 3.6389-1.4658 6.5-3.2961 2.8611-1.8302 5.652-3.4066 6.202-3.5031l1-0.1754 1.0047-4.7357 1.0047-4.7357 2.7395-1.313 2.7395-1.313 5.6019 1.0356 5.6019 1.0356 1.6869-0.90281 1.6869-0.9028 3.9671 0.90276c2.1819 0.49652 5.2484 1.1547 6.8146 1.4625l2.8475 0.55977-0.7326 2.7065c-0.40292 1.4886-0.81483 3.5148-0.91535 4.5027l-0.18276 1.7962-2.6821 3.0566c-1.4752 1.6811-2.6821 3.4762-2.6821 3.989l-2.118 1.862h-3.7576l0.15065 2c0.1748 2.3206 0.2256 2.3377 2.8188 0.94982l1.9623-1.0502z"/>
    <path id="path5334" d="m400.04 582.75 3.4075-2.599 2.5647-5.651c1.4106-3.108 3.0585-6.5305 3.662-7.6056l1.0973-1.9546-1.0801-0.36002-1.0801-0.36003 0.34789-1.1854c0.19134-0.65196 0.6897-2.0854 1.1075-3.1854 0.41776-1.1 0.79843-2.4407 0.84593-2.9793 0.0475-0.53863 1.5315-1.8886 3.2978-3l3.2115-2.0207 0.0385-1.6667c0.0212-0.91666 0.3927-1.8167 0.82559-2 0.43289-0.18333 2.0269-2.4708 3.5422-5.0833l2.7551-4.75 2.2078 0.0153c1.2143 0.008 2.8791 0.43969 3.6995 0.95836l-2.1231 2.9862-2.499 5.0136-5.7208 7.371c-2.4962 2.2672-6.6874 4.3243-7.1369 7.7079l3.5432-0.90025 11.087-11.273 5.9534-10.879c2.2527-4.1165 4.4808-7.9275 4.9859-8.45 0.50511-0.5225 0.91844-1.5875 0.91844-2.3666v-1.4166l-1.9632 0.51339-1.9632 0.5134-1.0853-1.3077-1.0853-1.3077 0.94499-0.58404c0.51975-0.32122 1.8844-2.3863 3.0325-4.589l2.0875-4.005h-8.0588l-2.2045-2.2803c-1.2125-1.2542-3.3331-3.6844-4.7125-5.4006l-2.508-3.1203-6.492-2.9521-6.492-2.9521-4.5-0.77318c-2.475-0.42525-5.8699-0.79912-7.5442-0.83083l-3.0442-0.0576-6.9558 3.3562c-3.8257 1.8459-7.8558 4.2143-8.9558 5.2631s-3.575 2.9-5.5 4.1138l-3.5 2.2069-6.3441 7.9635c-3.4892 4.3799-8.3529 10.205-10.808 12.944l-4.464 4.9806 1.1456 0.38186 1.1456 0.38185 1.1125-1.1125c0.61188-0.61191 1.9046-1.1125 2.8727-1.1125h1.7602l5.0398 4.9608 5.0398 4.9608v3.3084l2.3715-1.5539 2.3715-1.5539 2.8046 2.9273 2.8046 2.9274 2.0739 0.64195c1.1407 0.35308 3.9764 2.3833 6.3016 4.5115l4.2276 3.8696h2.6134l1.8306 3.25c1.0068 1.7875 2.945 4.1997 4.3071 5.3605l2.4766 2.1105-2.0915 4.0996-2.0915 4.0996v2.0398c0 2.6264 0.43453 2.5729 4.541-0.55919z" fill="#fff"/>
    <path id="path5296" d="m416.37 557.12c1.3384-0.0373 1.3383-2.1845 2.3628-2.1192 0.83171-1.1606 1.0431-0.81303 1.986-2.0919l0.8557-1.4607 2.225-2.9123 1.1596-2.2048 1.7566-2.7046 1.7389-3.2724h-2.95c-1.0813 0.5797-1.4586 2.2142-1.8091 3l-3.0596 5.4212-4.0025 4.714-1.9255 1.1612-1.8469 1.397-1.1004 2.7034-0.70746 2.782 1.387-1.0216c0.44019-0.32422 1.8616-3.3336 3.9298-3.3914z" fill="#fff"/>
    <path id="path5294" d="m453.5 511.82v-2.3537l0.91299-0.56425 0.91299-0.56426 0.66226-3.9199 0.66226-3.9199-1.2367-2.3108-1.2367-2.3108-0.29204-5.2641-0.29204-5.2641h0.95349c0.52442 0 0.95349-0.45 0.95349-1v-1h-6.555l-2.2225 1.5567-2.2225 1.5567-2.2225-1.5567-2.2225-1.5567h-8.437l-0.5382 0.87084c-0.29602 0.47896-1.8976 1.1427-3.559 1.475l-3 0.58v5.05l-3.25-0.008-3.25-0.008-6.2151-1.8901c-3.4183-1.0396-8.9308-2.2053-12.25-2.5906l-6.0349-0.6997v9.6964l4.25 0.0698c2.3375 0.0384 6.5997 0.58681 9.4715 1.2187l5.2215 1.1489 4.7785 2.4457 4.7785 2.4457 3.2653 3.3356c1.7959 1.8346 3.8579 4.1819 4.5821 5.2162l1.3169 1.8807 5.2512 0.50457 5.2512 0.50457 0.49738 1.2962 0.49738 1.2962-2.3291 3.1503-2.3291 3.1503 1.8323 1.3398 1.8323 1.3398 5.9162-6.0088 5.9162-6.0088v-2.3537z" fill="#fff"/>
    <path id="path5284" d="m421.5 488.35c0-0.55 0.9-1.9 2-3l2-2h4.0628l0.49736-1.2961 0.49736-1.2961 4.7663 0.15124 4.7663 0.15124 2.272 1.2159 2.272 1.2159 2.3978-1.5711 2.3978-1.5711h7.0704v-2.9006l-1.75-0.98741-1.75-0.98741 1.2482-1.2605 1.2482-1.2605 3.5689 0.10117 3.5689 0.10116-1.624-1.7944-1.624-1.7944-2.0894 0.54638-2.0894 0.54638 0.50751-2.6549 0.50751-2.6549h-8.5086l-0.57561-1.5-0.5756-1.5 0.52853-1.3773 0.52852-1.3773-2.0562-3.3727-2.0562-3.3727-0.004-4.0275-0.004-4.0275-1.5567-2.2225-1.5567-2.2225h-10.957l-2.5541-1.6735-2.5541-1.6735-3.6607-0.34039c-2.0134-0.18721-6.7199-0.59849-10.459-0.91395l-6.7982-0.57357-4.3303 2.0355-4.3303 2.0355-0.59422 2.3676c-0.32682 1.3022-1.5065 3.4194-2.6214 4.705l-2.0267 2.3374v4.0364l-1.5724 1.7375-1.5724 1.7375-0.38479 6.0209-0.38479 6.0209-1.5441 3.6956-1.5441 3.6956 2.7795-0.5559 2.7795-0.5559 2.2218 3.2425c1.222 1.7834 2.2218 3.7179 2.2218 4.299v1.0564l4.25 0.65417c2.3375 0.3598 5.6 0.87071 7.25 1.1354 1.65 0.26465 5.7 1.3553 9 2.4237s6.5625 1.9667 7.25 1.9963l1.25 0.0538v-1z" fill="#fff"/>
    <path id="path5270" d="m474 462.18 8-5.4266 4.5334-1.7032 4.5334-1.7032h5.2192l0.57561-1.5 0.5756-1.5h1.4843c0.81638 0 2.5604-0.49029 3.8756-1.0895l2.3913-1.0895-0.45355-2.3726-0.45354-2.3726 1.43-1.4301c0.78653-0.78653 2.2982-1.6051 3.3593-1.819l1.93-0.39-3.3482-1.6913-3.3482-1.6913-3.508 1.4657-3.508 1.4657-0.78046-0.48235-0.78046-0.48235-1.2358 1.489-1.2358 1.489h-6.4452l-1.4481-1.75c-0.79647-0.9625-2.0557-2.9659-2.7983-4.452l-1.3502-2.702 0.64066-5.451 0.64066-5.451-2.7916-0.97315-2.7916-0.97315-1.1591-3.7767-1.1591-3.7767 0.90653-1.6939 0.90653-1.6939-0.86852-0.90319c-0.47768-0.49676-1.0191-2.0282-1.2032-3.4032l-0.33-2.51-2.25-0.11346-2.25-0.11347v1.7269h-13v1.8h-7.012l-0.57531-2.2922-0.57531-2.2922-6.4081-0.68625-6.4081-0.68625-0.56373-0.91214-0.56372-0.91213-3.0663 2.2406c-1.6865 1.2323-4.5089 3.5906-6.272 5.2406l-3.2056 3-2.1748 4.2808c-1.1962 2.3544-2.1748 4.9419-2.1748 5.75v1.4692h-0.80073c-0.44041 0-1.7926 2.0414-3.0048 4.5365l-2.204 4.5365-3.4952 2.0622c-1.9224 1.1342-3.4952 2.2686-3.4952 2.5208 0 0.25222 2.3625 0.41346 5.25 0.35831 6.1479-0.11741 14.406 1.1544 17.25 2.6567l2 1.0565 6 0.58566 6 0.58565 2.25 2.6063 2.25 2.6063v8.6094l2.4691 3.6384 2.4691 3.6384-0.57605 1.5012-0.57606 1.5012 2.357 0.0136c1.2964 0.008 3.3695 0.285 4.607 0.61664l2.25 0.60297v3.5228l2.25 1.519 2.25 1.519 1.5-1.2673c0.825-0.69699 5.1-3.7092 9.5-6.6938z" fill="#fff"/>
    <path id="path5246" d="m379.6 452.26 1.5954-0.81411 2.1069 1.4758 2.1069 1.4758 1.0477-1.9576c0.57621-1.0767 1.0477-2.6622 1.0477-3.5233v-1.5657l1.9746-1.9746c1.086-1.086 2.234-2.9985 2.5511-4.25l0.57652-2.2754 8.732-6.173 8.732-6.173 4.841-9.827 4.841-9.827 3.2981-3 3.2981-3 0.32788-4.345 0.32788-4.345-3.5-1.8447c-1.925-1.0146-5.975-2.9485-9-4.2975s-7.2116-3.2388-9.3035-4.1996l-3.8035-1.7468 0.45374-1.1824 0.45374-1.1824-1.9002-1.1867-1.9002-1.1867v-3.983h-0.96104c-0.52858 0-1.8786-0.98485-3-2.1886l-2.039-2.1886v-3.6228h-0.94098c-0.51754 0-1.2191 0.45-1.559 1l-0.61803 1h-10.764l-0.6203 1.0037-0.6203 1.0037-2.6887-0.61035c-1.4788-0.33569-4.632-1.5174-7.0072-2.626l-4.3184-2.0157-4.4372 0.50013-4.4372 0.50014-4.7444 4.3181c-5.9942 5.4556-5.9091 5.3041-8.2403 14.671-1.0738 4.3144-2.6689 9.2807-3.5446 11.036l-1.5922 3.1917 1.5461 2.2074 1.5461 2.2074-1.5802 1.7461-1.5802 1.7461 1.7715 5.3103 1.7715 5.3103-0.2225 5c-0.12238 2.75-0.4381 5.7353-0.70161 6.6339l-0.4791 1.6339 2.7805 0.7385c1.5293 0.40618 5.0191 0.93235 7.7551 1.1693l4.9745 0.43076 1.1924-1.6307 1.1924-1.6307 2.3331 1.4585c1.2832 0.80219 3.5136 1.7313 4.9565 2.0648l2.6234 0.60625 1.3503 3.2598 1.3502 3.2598-0.29523 2.2529-0.29523 2.2529h2.1432v8.1314l1.04 1.9433 1.04 1.9433 2.71-0.64734c1.4905-0.35604 3.4279-1.0137 4.3054-1.4614z" fill="#fff"/>
    <path id="path5200" d="m541.1 441.76-0.53358-1.3905 2.6673-2.4733 2.6673-2.4733c6.9988-1.9634 5.6516-1.8686 8.0354-3.5234 0.024-0.4125 0.0186-2.9635 0.47171-5.3062l0.82389-4.2594-3.7574-0.60084-3.7574-0.60084-1.2607-2.3556-1.2607-2.3556-0.96093 0.59389c-0.52851 0.32663-2.0009 2.9454-3.2719 5.8194l-2.311 5.2255-4.7551 2.2352-4.7551 2.2352-3.5723-0.49127-3.5723-0.49126-6 1.5513c-3.3 0.85321-6.4275 1.9344-6.95 2.4026l-0.95 0.85131h3.0333c1.6683 0 3.3349 0.30158 3.7035 0.67017l0.67018 0.67018-1.5834 2.4166c-1.8655 2.8471-1.3462 3.8072 1.2946 2.3939l1.8895-1.0112 1.4461 0.91491c0.79537 0.5032 2.4363 0.92181 3.6464 0.93023l2.2003 0.0153 0.9259-1.6545 0.9259-1.6545 1.6872 0.64743 1.6872 0.64742-0.59104 0.95634-0.59105 0.95633 5.7777 0.30073c3.1777 0.1654 6.1458 0.14271 6.5958-0.0504l0.81818-0.35115z" fill="#fff"/>
    <path id="path5192" d="m493.48 437.37 1.9773-1.9773 1.2727 0.48399 1.2727 0.48398 10.921-3.5067 10.921-3.5067h9.6168l4.0116-1.6051 4.0116-1.6051 1.1562-3.8592 1.1563-3.8592 2.3524-2.21 2.3524-2.21v-5.5234l3.8343-2.155 3.8343-2.155 2.8473-5.2635 2.8472-5.2635-1.3411-3.2378-1.3411-3.2378 1.4096-0.87713 1.4096-0.87712-1.0516-1.7805-1.0516-1.7805 0.35214-1.5 0.35215-1.5 2.4851-1.8236 2.4851-1.8236 3.3138-0.17643 3.3138-0.17643-2.1856-3.5-2.1856-3.5 0.68519-2.5c0.6392-2.3322 1.9301-4.1189 7.802-10.799l2.3148-2.6333-1.7975-1.3144c-0.98861-0.72289-4.0027-1.9692-6.698-2.7696l-4.9005-1.4553-2.1468 0.5388-2.1468 0.5388-1.2281-3.3963-1.2281-3.3963-2.539-1.1569c-1.3965-0.63628-3.3134-1.1569-4.2599-1.1569h-1.7208l-3.6791-2.5c-2.0235-1.375-4.1155-2.5-4.6488-2.5-0.53335 0-1.1438-0.52232-1.3566-1.1607l-0.3869-1.1607-5.5567 0.18158-5.5567 0.18158-1.2516-1.5081-1.2516-1.5081 0.56085-1.4615 0.56084-1.4616-1.8639-0.59158-1.8639-0.59159-2.835 0.67163-2.835 0.67164-2.0846 1.8877c-2.5443 2.304-15.154 8.8498-17.047 8.8498h-1.3679v-1.3776c0-0.75765-0.66245-1.9273-1.4721-2.5993l-1.4721-1.2218-1.5993 1.5993c-0.87962 0.87962-2.2422 1.5993-3.0279 1.5993h-1.4286l-0.14537 2.25c-0.0799 1.2375-0.057 3.6052 0.051 5.2615l0.19636 3.0115-2.9035 1.0959-2.9035 1.0959-1.0955 3.1425-1.0955 3.1426h1.737l0.68378 3.1132 0.68379 3.1132-2.066 2.7945-2.066 2.7944 1.4735 0.56543 1.4735 0.56543-0.38002 4.5618c-0.20901 2.509-0.55181 4.6929-0.76178 4.8532s-1.9568 1.2356-3.8818 2.3895l-3.5 2.098-8.2492-0.71088-8.2492-0.71088-1.4562 1.4562-1.4562 1.4562-5.0152 0.25361c-2.7584 0.13949-5.9285 0.54346-7.0446 0.89771l-2.0294 0.6441v2.4892l-2.9513 2.182-2.9513 2.182-1.0216 3.6998c-0.56186 2.0349-0.87572 3.8457-0.69746 4.0239 0.17827 0.17826 1.5756-0.32517 3.1052-1.1187l2.7811-1.4428 2.6177 1.0018 2.6177 1.0018 5.25 0.12868 5.25 0.12868v4.8444l4.25-0.80237c2.3375-0.4413 5.899-0.83631 7.9145-0.87781l3.6645-0.0754 0.75214-0.75 0.75214-0.75h6.3567l1.7763 1.9628 1.7763 1.9628-0.56184 1.4641-0.56184 1.4641 1.3845 1.149 1.3845 1.149-1.0035 2.2024-1.0035 2.2024 1.0348 2.7216 1.0348 2.7217h2.7396l1.8137 2.0041 1.8136 2.0041-1.1587 2.543c-0.63727 1.3986-1.1587 3.621-1.1587 4.9387v2.3958l2.0988 3.5572 2.0988 3.5572h3.8024l1.9773-1.9773z" fill="#fff"/>
    <path id="path5172" d="m557.46 418.42 1.0341-1.9323 1.9116-0.60672 1.9442-1.096 1.7317-2.2034 1.7643-2.6927 2.4538-2.3764c-0.28331-3.7698-2.3439-4.1704 1.3873-4.1704l1.7388-1.9898 1.0338-1.9317 1.0338-1.9317 0.81049-7.5646 0.81049-7.5646-3.6129-2.5037-3.6129-2.5037h-5.1786l-0.57561 1.5-0.5756 1.5h-3.0628v0.95295c0 0.52412 0.52779 2.1113 1.1729 3.5271l1.1729 2.5742-1.0998 1.0998-1.0998 1.0998 0.90815 2.3886 0.90814 2.3886-3.2061 5.2344c-3.3197 5.4199-6.428 8.6436-8.3897 8.7012l-1.1334 0.0333-0.46806 2.4485-0.46806 2.4485 0.75442 0.80148c0.41493 0.44082 0.91609 1.698 1.1137 2.7938l0.35927 1.9923 2.9878 0.63939c1.6433 0.35166 3.3095 0.69263 3.7026 0.75771 0.39315 0.0651 1.1802-0.75121 1.7489-1.814z" fill="#fff"/>
    <path id="path5168" d="m431.59 387.6 2.9102-2.7468v-2.4362l1.75-0.90984c0.9625-0.50041 4.45-1.2369 7.75-1.6367l6-0.72686 0.71251-1.1485 0.7125-1.1485 7.2875 0.18527c4.0081 0.10191 8.457 0.28243 9.8863 0.40117l2.5988 0.2159 2.0064-2.0064 2.0064-2.0064 0.62856-2.5044 0.62856-2.5044-1.9602-1.774-1.9603-1.774 2.5077-2.9802 2.5077-2.9802-0.65364-2.1361c-0.3595-1.1749-1.0798-2.6699-1.6006-3.3222l-0.94701-1.1861 1.0694-1.9982c0.58816-1.099 1.0694-2.2346 1.0694-2.5235 0-0.28891-3.7125-0.65599-8.25-0.81574l-8.25-0.28 0.16211-3.5c0.0892-1.925 0.20166-4.0625 0.25-4.75l0.0879-1.25h13.755l0.94553 1.25c0.52003 0.6875 1.001 2.3134 1.0688 3.613 0.0678 1.2997 0.36811 2.6079 0.66734 2.9071l0.54405 0.54406 2.1906-0.97749 2.1906-0.97749 0.27755-4.7773 0.27756-4.7773 1.1547-1.3913 1.1547-1.3913 0.8867 0.54801 0.88669 0.548v-1.359c0-0.74746 0.53386-1.8929 1.1864-2.5454l1.1863-1.1863 1.7764 1.6076 1.7764 1.6076 1.5372-0.58989 1.5372-0.5899v-4.0092l-2.2254-4.5804-2.2254-4.5804-8.465 0.3746-8.465 0.3746-0.39303 1.1791-0.39303 1.1791h-3.4562l-2.1351-1.9891-2.1351-1.9891-1.479 0.56756-1.479 0.56756-1.6894-2.5784-1.6894-2.5784h-5.1124l-1.5787 1.3848-1.5787 1.3848-5.75-2.5119-5.75-2.5119-0.0304-2.6228-0.0304-2.6228-1.0247 1.7596c-0.56357 0.96779-2.0903 2.8253-3.3928 4.1278l-2.3682 2.3682-1.1422 4.3722c-0.6282 2.4047-1.7879 6.6222-2.577 9.3722l-1.4349 5-3.2497 1.5-3.2497 1.5-1.3196 4.1693-1.3196 4.1693-3.6869 1.4752-3.6869 1.4752-2.4436 4.3555c-1.344 2.3955-3.2311 5.2038-4.1936 6.2405-0.9625 1.0368-2.4358 3.3303-3.274 5.0967l-1.524 3.2116 0.95175 3.3186 0.95174 3.3185-0.55397 2.2072-0.55396 2.2072 2.4838 0.62341 2.4839 0.62341-0.5241 2.0042-0.5241 2.0042h1.602c0.88111 0 4.1961 1.2821 7.3666 2.8491 6.2624 3.0951 14.56 6.9895 15.104 7.0889 0.1869 0.0341 1.6494-1.174 3.25-2.6847z" fill="#fff"/>
    <path id="path5140" d="m579.56 377.64 2.8755-2.714-0.53466-2.1302-0.53466-2.1302 2.7273-8.9057 2.7273-8.9057 0.32165-12.5c0.29614-11.509 0.78662-18.753 1.3542-20 0.12513-0.275 0.35179-1.9878 0.50369-3.8063l0.27618-3.3063 1.8642-1.4247c1.3972-0.94956 1.3026-0.99298 0.46847-2.3428l-1.3957-0.91808 0.61433-1.6009 0.61433-1.6009h5.0628v1.941c0 1.0675 0.38542 2.1792 0.85649 2.4703l0.85648 0.52934 3.1435-3.9117c1.7289-2.1514 3.1435-4.388 3.1435-4.9703 0-0.58225 0.36714-1.0586 0.81586-1.0586s1.8275-1.8 3.064-4l2.2481-4h-3.1052l-2.0114-1.7222-2.0114-1.7222-0.0318-1.5278c-0.0175-0.84027-0.6925-2.4013-1.5-3.4689-0.80751-1.0676-1.4682-2.707-1.4682-3.643v-1.7019l1.5-0.57561 1.5-0.5756 1.3723 0.52661 1.3723 0.52662 0.46163-2.4149 0.46164-2.4149-1.8582-5.8674c-1.022-3.2271-2.2973-6.3065-2.834-6.8431-0.53666-0.53666-0.97575-1.5929-0.97575-2.3472 0-0.75428-0.56652-1.9379-1.2589-2.6304l-1.2589-1.2589-1.2405 0.41351-1.2406 0.41352-0.60751-1.5832-0.60752-1.5832-1.143-0.006c-0.62865-0.003-2.4208-0.67263-3.9827-1.4872l-2.8396-1.481-1.9104 1.0224c-1.0507 0.56231-1.9112 1.344-1.9121 1.7372-0.00098 0.39315-2.026 1.9936-4.5 3.5566l-4.4982 2.8417v1.9344l-0.91459-0.56524-0.91459-0.56525-0.42279 1.2562-0.42279 1.2562-1.6626-1.3724-1.6626-1.3724v-2.8178l-1.5806-0.60652-1.5806-0.60652 0.50289-1.9231 0.50289-1.923-2.1723-0.80605-2.1723-0.80606-3.3648 3.264-3.3648 3.264-6.4062 2.103c-3.5234 1.1567-7.2968 2.103-8.3852 2.103h-1.979v-1.773l-3.1949-0.46891c-1.7572-0.2579-3.9404-0.27397-4.8515-0.0357l-1.6566 0.43321 0.71374 3.9031 0.71374 3.9031-3.2798 3.8317-3.2798 3.8317-4.8324 1.2408c-2.6578 0.68246-5.8774 1.5004-7.1546 1.8177l-2.3221 0.57689-2.4279-1.2994-2.4278-1.2994-0.0318-1.081c-0.0175-0.59456-0.67517-1.9308-1.4615-2.9695l-1.4297-1.8885-3.6362 3.8885c-5.8913 6.3-6.4407 6.9994-6.4407 8.1993v1.1431l2.3808 1.56 2.3808 1.56-0.23044 2.9294-0.23044 2.9294-1.2721 1.5328-1.2721 1.5328 1.2563 3.033 1.2563 3.033-0.62592 0.62593-0.62593 0.62592 1.1489 1.3844 1.149 1.3844-1.0795 1.0795-1.0795 1.0795 0.51302 1.3369 0.51302 1.3369-1.1388 3.4507-1.1388 3.4507 1.9872 4.3405c2.3046 5.0338 2.7241 7.6286 1.6383 10.134-0.42748 0.98622-0.57336 1.997-0.32419 2.2462 0.5637 0.5637 11.785-5.4329 13.699-7.321 2.0762-2.0475 5.7333-3.2183 10.053-3.2183h3.8279l0.60699 1.5818c0.33385 0.86998 0.60699 2.4872 0.60699 3.5938v2.012l4.75-0.64236 4.75-0.64235 6.207 4.0485 6.207 4.0485h4.78l1.996 1.75c1.0978 0.9625 2.5003 2.7024 3.1167 3.8664l1.1206 2.1164 5.2656 0.6985 5.2656 0.6985 3.7708 2.1193 3.7708 2.1193v4.5184l-1.9272 1.3499c-1.06 0.74242-2.4822 2.5679-3.1605 4.0567-0.67833 1.4888-1.5953 2.7068-2.0376 2.7068-0.44237 0-1.3291 0.98056-1.9705 2.179l-1.1662 2.179 1.7885 3.321c0.98365 1.8265 2.1676 3.321 2.631 3.321h0.84253v3.8866l2.2225 1.5567c2.806 1.9654 2.449 2.0363 5.8326-1.1573z" fill="#fff"/>
    <path id="path5126" d="m354.4 361.74 3.3955-1.6253 4.3717 0.59921 4.3717 0.5992 2.9331 1.5168 2.9331 1.5168h2.883c1.5856 0 3.1976-0.31464 3.5822-0.6992l0.6992-0.6992 4.2913 0.2639 4.2913 0.26389 1.2879-1.5518 1.2879-1.5518 1.5489 0.86679 1.5489 0.86678 1.0894 3.2952 1.0894 3.2952 1.3854 0.45357 1.3854 0.45358-0.64201-3.4222-0.64202-3.4222 3.2566-4.8521c1.7911-2.6687 4.1718-6.331 5.2903-8.1384 1.1185-1.8075 2.8758-4.2168 3.905-5.3541l1.8713-2.0678h3.5964l1.9227-4.25c1.0575-2.3375 2.8961-5.2625 4.0858-6.5l2.163-2.25h2.6056l1.0728-3.75c0.59002-2.0625 1.3954-5.325 1.7897-7.25 0.39429-1.925 1.8135-5.9008 3.1537-8.835l2.4368-5.335-0.96748-2.7753-0.96748-2.7753 0.22934-11.89 0.22934-11.89 2.1295-6.4571c1.1712-3.5514 1.905-6.6816 1.6306-6.956-0.27444-0.27443-19.657-1.5387-43.071-2.8094l-42.572-2.3104-2.8329-2.2335-2.8329-2.2335-0.0553-1.2814-0.0553-1.2814-1.75-0.61763c-0.9625-0.33969-2.7625-1.529-4-2.6429l-2.25-2.0253v-2.2108c0-2.9-3.1-12.44-4.04-12.44-1.1331 0-2.1098 3.9241-2.6007 10.448l-0.44752 5.9478-1.0807 1.3022-1.0807 1.3022h-39.756l0.0436 0.75c0.0239 0.4125 0.41781 2.6859 0.87524 5.052l0.83169 4.302-1.4317 4.8841-1.4317 4.8841 2.6843 4.0562 2.6843 4.0562 5.1762-0.11933 5.1762-0.11933 3.196 1.6527 3.196 1.6527-0.0153 1.7243c-0.008 0.94838-0.39893 2.3296-0.86779 3.0694l-0.85248 1.3451 1.869 4.9189 1.869 4.9189-1.9658 3.736c-1.0812 2.0548-2.945 5.761-4.1418 8.236s-2.4503 4.6198-2.7854 4.7663c-0.33519 0.14644-1.1993 0.63994-1.9203 1.0967l-1.3109 0.83041 2.1937 2.4628 2.1937 2.4628 0.38289 3.4406c0.21059 1.8923 0.45643 5.0407 0.54631 6.9963l0.16343 3.5558-0.78383 1.2683-0.78383 1.2683 2.1048 2.2404 2.1048 2.2404v9.3096l12.25 0.28078 12.25 0.28078 0.0662 1.5c0.0364 0.825-0.33104 2.3139-0.81657 3.3086l-0.88279 1.8086 0.65082 2.9631 0.65081 2.9631 3.4056 1.423 3.4056 1.4229 1.603 3.3616 1.603 3.3616 4.6571-4.297 4.6572-4.297 3.3955-1.6253z" fill="#fff"/>
    <path id="path5098" d="m475.21 343.1-0.21-3.25l-1-0.73469-1-0.73468-5.75-0.0153-5.75-0.0153v8h13.92l-0.20975-3.25z" fill="#fff"/>
    <path id="path5096" d="m476.48 314.11 1.8443 1.1518 3.1013-0.88945 3.1014-0.88946 3.381 0.54866 3.381 0.54866 0.71218-2.2439c0.39171-1.2341 0.80168-3.5366 0.91107-5.1165l0.19887-2.8726-0.7377-1.1936-0.73771-1.1936 0.96541-1.8039 0.96541-1.8039h-1.8372l-0.46577-2.4365-0.46577-2.4365 1.5133-1.5133 1.5133-1.5133-1.2865-1.5502-1.2865-1.5502h2.619l-2.81-2.933-2.81-2.933 2.3586-3.817c1.2972-2.0993 3.4816-4.7832 4.8542-5.9642l2.4956-2.1473-3.7571-2.2167-3.7571-2.2167-0.97416-1.8202c-0.53579-1.0011-0.98627-2.8623-1.0011-4.136l-0.0269-2.3157-2.8027-3.3791-2.8027-3.3791 1.5796-4.4122 1.5796-4.4122 2.3-0.57964 2.3-0.57963-0.30835-1.629-0.30834-1.629-3.8257-0.31537-3.8257-0.31538-1.666-2.9283-1.666-2.9283-1.25-0.006-1.25-0.007v-1.0714c0-0.58928-0.66908-1.7405-1.4868-2.5583l-1.4868-1.4868 2.0148-2.7252 2.0148-2.7252 0.15813-7.7527 0.15813-7.7527-1.9366-1.9366-1.9366-1.9366-4.7495-1.4294-4.7495-1.4294v0.7855c0 0.43202 0.89773 1.0203 1.995 1.3072l1.995 0.52169 0.64056 1.6693 0.64057 1.6693-1.287 3.8997-1.287 3.8997-1.8485 1.9841c-1.0167 1.0913-1.8485 2.6097-1.8485 3.3743v1.3901l-4 1.5712-4 1.5712v2.6462c0 1.4554-0.45122 3.4893-1.0027 4.5198l-1.0027 1.8736 1.0027 0.61971 1.0027 0.6197v2.4731c0 1.3602-0.68321 4.1083-1.5182 6.1068l-1.5183 3.6337-4.2688 4.5842-4.2688 4.5842-1.3438 3.5c-0.73908 1.925-2.1589 5.3-3.1552 7.5-0.99628 2.2-2.5472 7.15-3.4464 11l-1.635 7 0.66384 8.8969c0.3651 4.8933 0.98694 9.7704 1.3819 10.838l0.71803 1.941 1.3178-1.5879c0.72482-0.87335 1.6732-1.5879 2.1075-1.5879h0.78965l0.6625 3.9213 0.66249 3.9213 4.0504 1.6206 4.0504 1.6206 1.6709-1.5122 1.6709-1.5122 3.6769 0.59667 3.6769 0.59668 0.59528 1.8756 0.59528 1.8756 2.4227-0.60805 2.4227-0.60805 0.68638 1.8561c0.37751 1.0208 1.1692 2.191 1.7593 2.6003l1.0729 0.74425 1.8198-2.1912 1.8198-2.1912 1.8443 1.1518z" fill="#fff"/>
    <path id="path5076" d="m300.13 311.08c0.59006-0.36468 2.8182-4.0552 4.9515-8.2011l3.8787-7.5381-1.7711-4.9867-1.7711-4.9867 1.0388-1.9409c1.4436-2.6974 1.4187-2.7443-2.1105-3.9746l-3.1492-1.0978h-7.4318l-2.6548-2.0883-2.6548-2.0883-1.5683-3.0327-1.5683-3.0327 1.127-4.4756 1.127-4.4756-0.66789-5.9034-0.66789-5.9034h-1.8506c-1.0178 0-3.7722-0.75192-6.1208-1.6709l-4.27-1.68-3.2981-3.3291-3.2981-3.3291-3.7019 0.0293-3.7019 0.0293-3.1569 2.8734-3.1569 2.8734-1.7122 3.6081-1.7122 3.6081-2.6093 0.65489-2.6093 0.65488-4.9901 3.5843-4.9901 3.5843-6.6731-0.16791-6.6731-0.1679-2.8455 2.97-2.8455 2.97 6.987-0.68721 6.987-0.6872 1.9208-0.99154 1.9208-0.99154 1.3309 1.8201 1.3309 1.8201-0.0911 6.5565c-0.0501 3.6061-0.0645 8.391-0.032 10.633l0.0591 4.0766 2.259 2.9234c3.0287 3.9195 3.6229 4.4626 8.5248 7.7908l4.2232 2.8674 3.2768-0.49561 3.2768-0.49562 2.8178 1.4389 2.8178 1.4389 1.1822-0.41364 1.1822-0.41363 3.2286 2.8036 3.2286 2.8036 3.524 0.66111 3.524 0.66111 2.2474 2.3513 2.2474 2.3513 7.5308-0.26861c4.142-0.14774 8.0136-0.56698 8.6037-0.93165z" fill="#fff"/>
    <path id="path5050" d="m613.9 286.35c2.1742-0.80312 1.7523-2.8079 3.5224-4.0655l2.3953-1.5188c0.53642-0.34014 0.47571-1.1562 2.5006-2.0242l3.68-1.58-1.902-1.1566c-1.0461-0.63612-2.8461-2.2138-4-3.506l-2.1-2.34-4.8494-2.4678c-5.2952-2.6947-6.3859-2.5759-4.7316 0.51525l1.081 2.0199v8.8866l-1.4873 1.2343-1.4873 1.2343-1.5127-0.58049-1.5127-0.58049v0.84617c0 0.46539 0.675 1.4064 1.5 2.0911l1.5 1.2449v3.0346l1.75 1.3264 1.75 1.3264 1-0.32377 1-0.32378c0.995-0.71754 1.2634-2.3012 1.9-3.2847z" fill="#fff"/>
    <path id="path5046" d="m177.79 281.65 6.7906-0.46687 2.8426 0.99095 2.8426 0.99094 6.8667-4.1017c3.7767-2.2559 7.4719-4.6997 8.2115-5.4306 0.73961-0.73091 2.5407-1.9474 4.0024-2.7032 1.4617-0.75587 3.4361-2.2345 4.3876-3.2859l1.73-1.9116-10.629-3.7764c-5.8459-2.077-17.517-6.8983-25.936-10.714l-15.3-6.94-13.79-2.39-13.8-2.39-7.4924-2.609-7.4924-2.609-0.3469 1.0407c-0.1908 0.5724-0.95631 1.6501-1.7011 2.3949l-1.3542 1.3542 1.9435 2.0861c1.0689 1.1474 1.9435 2.5708 1.9435 3.1631 0 0.99044 2.7533 5.8392 3.9786 7.0066 0.28864 0.275 2.0052 2.2244 3.8145 4.3319l3.2897 3.8319-0.60877 1.9181-0.60878 1.9181h2.5023c1.3763 0 3.6621 0.44096 5.0797 0.97992l2.5774 0.97992 1.1482 2.5201 1.1482 2.5201h10.759l3.8051-4 3.8051-4h2.3096v19.667l0.73779 0.73778 0.73779 0.73779 2.5122-0.68791c1.3817-0.37835 5.568-0.89799 9.3029-1.1548z" fill="#fff"/>
    <path id="path5036" d="m635.49 267.14 1.7988-1.7882 3.1652-3.605 3.1652-3.605-0.55728-0.55728c-0.30651-0.30651-2.6629-0.47764-5.2365-0.3803l-4.6792 0.17699-3.2834 2.5044-3.2834 2.5044-3.2917-0.2371-3.2917-0.23709-4-2.2699-4-2.2699-2.0589-0.012-2.0589-0.012-1.7407 1.2728-1.7407 1.2728 7.7996 4.4042c4.2898 2.4223 8.1766 5.0302 8.6374 5.7953 0.46078 0.7651 2.2458 2.2473 3.9666 3.2938l3.1288 1.9027 2.2834-2.1451 2.2834-2.1452c2.0448-2.6143 2.0135-2.0751 2.9941-3.8633z" fill="#fff"/>
    <path id="path5032" d="m517.06 272.88 5.6604-1.4743 2.3872-2.7757 2.3872-2.7756 0.001-2.3157c0.00067-1.2737-0.43932-3.1389-0.97777-4.145l-0.97898-1.8292 1.5825-1.3134 1.5825-1.3134 3.853 0.15365 3.853 0.15364 2.7488 1.4403 2.7488 1.4403 6.0446-2.1356 6.04-2.13 2.0969-2c4.6547-4.4397 8.433-7.5 9.2596-7.5 0.48059 0 2.0127-0.89585 3.4047-1.9908l2.5309-1.9908-0.95919-3.7789-0.95919-3.7789 1.9658-4.586 1.9658-4.586-2.3666-2.8943-2.3666-2.8943-0.0397-2.5-0.0397-2.5-1.8539-3.04-1.8539-3.04 0.42674-2.96 0.42673-2.96-0.91686-4.0454-0.91685-4.0454 0.8632-2.3335 0.8632-2.3335-0.87103-1.1211c-1.1379-1.4645-2.1065-5.1011-2.7623-10.371l-0.52892-4.25h2.2494l-0.61803-1-0.61803-1h-4.7472l-0.61356 1.9331-0.61356 1.9332-4.3452 2.1035-4.3452 2.1035-2.5395 3.8375-2.5395 3.8375 0.32366 6.8759 0.32365 6.8759-1.7849 4.1331-1.7849 4.1331 1.8931 4.2285 1.8932 4.2285-1.2744 2.6384-1.2744 2.6384h-15.216l-2.83 2.8248-2.83 2.8248-3.5388 1.5443c-1.9464 0.84938-4.8766 1.8442-6.5116 2.2106l-2.9727 0.66628-0.96223 3.4646c-0.52922 1.9055-2.2388 5.8553-3.799 8.7772l-2.8367 5.3126 1.0642 3.9522 1.0642 3.9522-0.67293 3.7352c-0.3701 2.0544-1.1194 4.2977-1.665 4.9852l-0.99206 1.25h5.3124l2.065 3.5 2.065 3.5h1.8524c1.0188 0 4.3996-0.66346 7.5128-1.4744z" fill="#fff"/>
    <path id="path5020" d="m497.89 263.77c0.88563-2.3079 0.74229-7.4596-0.3096-11.127l-0.91658-3.196 3.3939-6.2974 3.3939-6.2974 0.0227-2.095 0.0227-2.095 1.75-1.5771c0.9625-0.86739 3.1-1.9003 4.75-2.2953 4.5286-1.0842 8.5869-3.3399 12.794-7.1109l3.7939-3.4008 3.7061 0.62439c2.0383 0.34342 4.4047 0.81221 5.2585 1.0418l1.5524 0.41737 1.8408-1.346 1.8408-1.346-1.7792-4.6586-1.7792-4.6586 1.8505-4.75c1.0178-2.6125 1.7072-5.2 1.5321-5.75-0.17512-0.55-0.41165-3.475-0.52564-6.5l-0.20725-5.5 3.3945-5.1626 3.3945-5.1626 2.2321-0.56021c2.2753-0.57106 6.6009-3.8358 6.6009-4.982 0-0.34798-0.83776-0.6327-1.8617-0.6327s-4.839-1.35-8.478-3l-6.6164-3h-3.9258l-0.61803 1-0.61803 1h-5.764l-0.61803 1c-0.33992 0.55-1.0415 1-1.559 1h-0.94098l-0.0761-1.75-0.0761-1.75-1.2428 3.4396-1.2428 3.4396-1.1811 0.3937-1.1811 0.39371v-4l-1.1434-0.38114-1.1434-0.38113 1.1461-2.1415 1.1461-2.1415-1.0837-0.66979-1.0837-0.66978 0.60523-2.4114 0.60522-2.4114-1.0471-1.9566c-0.57591-1.0761-1.9851-2.4586-3.1316-3.0721l-2.0844-1.1156-1.0422 1.0422-1.0422 1.0422-3.5783-2.9495c-1.968-1.6222-4.1507-2.9495-4.8504-2.9495h-1.2722l-0.0703-1.25-0.0703-1.25-0.85943 2c-0.47269 1.1-0.89106 3.246-0.92971 4.7689l-0.0703 2.7689-3 5.6219c-1.65 3.092-3 6.3669-3 7.2774v1.6556l-3.4744 5.4537c-1.9109 2.9995-3.4859 5.7634-3.5 6.1419-0.0141 0.37856-1.3545 2.1432-2.9786 3.9215l-2.953 3.2332 0.45604 0.73788 0.45604 0.73789-4.253 2.098c-2.3391 1.1539-5.3612 2.9563-6.7157 4.0054l-2.4627 1.9074 3.6146 0.67811 3.6146 0.67811 2.8481 2.9782 2.8481 2.9782-0.0464 8.679-0.0465 8.679-1.2892 2.3444-1.2892 2.3444 1.9607 2.1556c1.0784 1.1856 2.5057 3.211 3.1718 4.5008l1.2111 2.3451 3.3156-0.62201 3.3156-0.62201 1.6558 1.6558 1.6558 1.6558-0.55751 1.4528c-0.30664 0.79906-0.55752 2.0825-0.55752 2.852v1.3992l-2.3103 0.57985-2.3103 0.57985-0.96853 3.1892-0.96852 3.1892 2.7759 4.1759 2.7759 4.1759-0.57438 1.4968-0.57437 1.4968 2.0773 2.0773 2.0773 2.0773h2.786l0.60699-1.5818z" fill="#fff"/>
    <path id="path5000" d="m217.89 259.32 3.4556-3.034 2.8292 0.0724c1.5561 0.0398 4.5255 0.0865 6.5987 0.10378l3.7695 0.0314 6.0945-4.0697c3.352-2.2384 6.6694-4.0698 7.3721-4.0698h1.2776l0.60807-2.4227 0.60807-2.4227 2.8369-2.8369c1.5603-1.5603 3.0229-3.3385 3.2503-3.9516l0.41-1.12 6.095-0.42825 6.095-0.42824 1.5197 2.6479 1.5197 2.6479 4.8853 2.4047 4.8853 2.4047 22.75 0.33185 22.75 0.33184 0.0153-2.8318c0.008-1.5575 0.42703-3.4826 0.93023-4.278l0.91491-1.4461-1.0093-1.8858-1.0093-1.8858 1.4632-1.168 1.4632-1.168 0.53269-3 0.5327-3-1.9287-3.1374-1.9288-3.1374 13.114-29.363c7.2126-16.149 13.31-29.684 13.549-30.078l0.43553-0.71498-5.4102-3.5922-5.4102-3.5922-4.8772-0.4667c-2.6824-0.25668-5.6646-0.71128-6.6271-1.0102l-1.75-0.54354v-2.4236l-2-1.4415c-1.1-0.79284-2-1.9127-2-2.4886 0-0.57591-1.1018-2.6686-2.4485-4.6503l-2.4484-3.6032-0.68038-5.1289-0.68037-5.1289h-12.443l-3.1495 5.0664c-1.7322 2.7866-3.1495 5.4762-3.1495 5.977 0 0.50078-1.1118 1.639-2.4706 2.5293l-2.4706 1.6188-2.6643-2.0957-2.6643-2.0957h-4.3302l-1.2 1.2-1.2 1.2v2.7182c0 1.495-0.27314 3.43-0.60699 4.3l-0.60699 1.5818h-3.7164l-3.4168-3c-1.8792-1.65-3.8896-3-4.4674-3h-1.0506l-0.6744-2.1248-0.6744-2.1248 1.214-0.75031 1.214-0.75031-0.59205-1.8748c-0.32564-1.0312-1.03-6.1196-1.5652-11.308l-0.97317-9.4328-4.2853-6.3193c-2.3569-3.4756-4.5282-6.2058-4.8252-6.0672-0.29691 0.13869-2.6606 1.1522-5.2527 2.2522l-4.7129 2-0.004 1.595-0.004 1.595-1.75 1.5009c-0.9625 0.82552-4 2.5525-6.75 3.8378l-5 2.3369-3.7489 3.8172c-4.1229 4.1985-4.7506 4.5125-4.7506 2.3762 0-0.79254-0.40208-1.6895-0.89352-1.9932l-0.89352-0.55223-3.9124 1.3804-3.9124 1.3804-3.8722-2.8872-3.8722-2.8872h-3.62l-0.64901-4.0586-0.649-4.0586-1.7845-2.1914-1.7845-2.1914-3.0422 2.9024-3.0422 2.9024-1.289-1.0698-1.289-1.0698-1.9383 1.4173-1.9383 1.4173h-18.618v1.9182c0 1.055-0.27315 2.63-0.60699 3.5l-0.60699 1.5818h7.814l1.2 1.2 1.2 1.2v5.4334l-1.25 0.44821-1.25 0.4482-1.6163-0.82848-1.6163-0.82849-3.1337 1.1828-3.1337 1.1828v8.1692l3.4611 3.3546 3.4611 3.3546-0.45579 0.73747-0.45578 0.73747 1.4885 2.8541 1.4885 2.8541 0.006 2.5416c0.007 2.9745-6.8609 42.159-7.5019 42.8-0.23904 0.23905-2.4653-0.13393-4.9473-0.82884l-4.5127-1.2635-2.2757 1.4911-2.2757 1.4911-5.4903 1.173-5.4903 1.173-3.75 2.4756-3.75 2.4756v1.9716h-1.4286c-0.78572 0-2.1357 0.70714-3 1.5714l-1.5715 1.5714-0.0354 3.1786-0.0354 3.1786-1.4291 2.5-1.4291 2.5-0.0354 2.5378-0.0354 2.5378-2.9594 3.4622c-1.6276 1.9042-2.9776 3.932-3 4.5061l-0.0406 1.0439 8.3516 2.7198 8.3516 2.7198 13.464 2.3609 13.464 2.3609 13.434 6.2837c13.353 6.2456 32.326 13.877 34.649 13.936 0.66837 0.0171 2.7702-1.3343 4.6708-3.003z" fill="#fff"/>
    <path id="path4982" d="m632.25 255.65 3.8312-0.37457c3.0049-0.37031 2.5974-0.26767 4.8373 0.24456l2.718 0.12758c1.3762-0.36614 1.9803 0.0383 3.0041-1.7982l0.85943-2 0.85943-2 0.0703-4.6682c0.0387-2.5675 1.183-4.173 0.84913-5.043l-0.29411-2.7441-4.0421-0.0447h-2.3433l-0.79969 1.338-0.79969 1.338-4.3676 1.0855-4.3676 1.0855-1.4114-0.54158-1.4113-0.54158-2.9798 3.1181c-3.3987 3.1024-6.72 3.1675-8.5948-0.0202l-2.6324-2.7477 2.0822-3.5291 2.0822-3.5291-0.94137-0.5818-0.94136-0.5818-4.2584 2.8962c-2.3421 1.5929-5.307 3.1594-6.5886 3.4812l-2.3302 0.58496-3.8939-1.3738-3.8939-1.3738-0.58496 0.94648-0.58496 0.94649h-3.7686l-1.3067-1.8299c-0.71868-1.0064-2.4317-2.5442-3.8067-3.4173l-2.5-1.5874-5.7387-0.0448-5.7387-0.0448 0.23867 4.6258 0.23867 4.6258-4.1193 3.1774-4.1193 3.1774 1.8693 1.1674 1.8693 1.1674v1.5267c0 0.83969 0.70986 2.6101 1.5775 3.9342l1.5775 2.4075 4.9446-3.6927c2.7195-2.031 6.287-4.6619 7.9277-5.8465l2.9831-2.1538 5.6779 2.9038c3.1228 1.597 6.1663 2.9037 6.7633 2.9037h1.0854l1.5382 2.5351 1.5382 2.5351 2.3464-2.0351c1.2905-1.1193 2.5285-2.0351 2.751-2.0351s2.5161 1.1934 5.097 2.6519c2.5808 1.4586 6.0424 2.9706 7.6924 3.3602l3 0.70833 2-1.3744c1.1-0.75595 3.4625-2.1264 5.25-3.0454z" fill="#fff"/>
    <path id="path4978" d="m439.89 255.93 0.60679-2.4176 5.0108-5.4826 5.0108-5.4826 1.3568-3.8498 1.3568-3.8498-0.86152-2.325-0.86152-2.325 1.1364-4.675 1.1364-4.675 1.514-1.75c0.83273-0.9625 2.0193-1.75 2.6368-1.75 1.6156 0 4.4247-3.5518 7.2365-9.15l2.4418-4.8615-0.61451-0.9943-0.6145-0.99429h-3.9448l-0.62213-1.6212-0.62213-1.6212 3.9035-3.347c2.1469-1.8408 5.6011-4.2098 7.676-5.2644l3.7725-1.9174 3.2802-4.3643c4.7429-6.3104 8.8619-13.631 10.895-19.364 0.97519-2.75 2.4013-6.35 3.1692-8 1.6474-3.5399 3.6226-11.672 3.0572-12.587-0.21725-0.35153-2.5441-1.2202-5.1708-1.9305-2.6267-0.71024-5.2258-1.5468-5.7758-1.859-1.8275-1.0375-3.9498-1.403-9.3047-1.6026l-5.3047-0.19772-1.967 2.5007c-1.0819 1.3754-2.231 3.5526-2.5537 4.8382l-0.58668 2.3375h-0.85825c-0.47205 0-2.3695 1.5112-4.2166 3.3583s-3.7746 3.5346-4.2833 3.75c-0.50875 0.21542-2.2394 2.4108-3.846 4.8786l-2.921 4.487-0.4176-1.2528-0.4176-1.2528 1.5607-4.5805 1.5607-4.5805-1.7221 0.78584c-0.97 0.43-3.54 0.81-5.74 0.84l-4 0.0605-1.4275 0.9187-1.4275 0.91871-2.6748-3.204-2.6748-3.204-1.2198-4.0713-1.2198-4.0713-2.1779 1.9896c-4.6403 4.2391-10.867 6.3448-12.232 4.1364l-0.67189-1.0871 1.1129-1.1129c0.61-0.62 1.11-1.48 1.11-1.92v-0.8h-3.6076l-3.127-3.25-3.127-3.25-0.69766-2.83-0.69765-2.83-2.2868-1.0419-2.2868-1.0419-0.5711-2.1281c-0.31411-1.1705-0.57725-3.8118-0.58476-5.8696l-0.0136-3.7415-2.0722-1.2585-2.0722-1.2585-1.3768-3.25-1.3768-3.25h-1.3189c-0.72539 0-2.9193-1.0875-4.8753-2.4166l-3.5564-2.4166-2.9258-0.33338-2.93-0.33-0.30525-3.6642-0.30525-3.6642-1.3702-0.52578-1.3702-0.52578-3.7235 1.0281-3.7235 1.0281-2.375-0.45401-2.375-0.454-0.48329 0.78197-0.48329 0.78198 0.95295 2.5065 0.95296 2.5064-1.2414 1.0303-1.2414 1.0303-8.3991-0.84672-8.3991-0.84671-1.3053 0.50089c-0.71792 0.27548-1.3053 0.90274-1.3053 1.3939v0.89301l-1.25 0.0339c-0.6875 0.0187-3.0415 0.88093-5.2311 1.9162l-3.9812 1.8822-0.84288-0.52093-0.84289-0.52093-2.176 1.9558c-1.1968 1.0757-2.9635 2.2337-3.926 2.5734l-1.75 0.61763 0.007 1.7814c0.004 0.97976 0.64001 5.9966 1.4136 11.148l1.4065 9.367 4.2462 6.2616 4.2462 6.2616 6.1648 1.0215 6.1648 1.0215 5.6754 3.6306 5.6755 3.6306v1.5359c0 0.84476-5.9031 14.768-13.118 30.941l-13.118 29.405 0.61155 1.2785c0.33636 0.70317 1.0144 1.9535 1.5068 2.7785 0.49239 0.825 2.0325 3.75 3.4224 6.5l2.5271 5 0.69622 4c0.38292 2.2 1.3311 5.0125 2.107 6.25l1.4108 2.25h2.3994l3.5273 3.9407 3.5273 3.9407 35.5 1.9257c19.525 1.0591 39.164 1.9858 43.642 2.0593l8.1416 0.13358 0.60679-2.4176z" fill="#fff"/>
    <path id="path4964" d="m625.5 241.85 2.3486-2.5h7.5212l2.5651-0.97525 2.5651-0.97525c-0.28214-3.9485 10.409-0.0462 9.694-2.5344-0.65581-1.8699 1.6073-4.2916-0.53164-5.4986l-0.84938-2.0198-0.31293-2.735-3.75-0.61983c-2.0625-0.34091-5.2421-0.62479-7.0657-0.63084l-3.3157-0.011-1.9343-1.0352-1.9343-1.0352v4.0704l-2.0814 2.0814-2.0814 2.0814-1.6686-1.4485-1.6686-1.4485-3.1548 0.0339-3.1548 0.0338-1.5302-1.5302-1.5302-1.5302 2.471-3.6364c1.3591-2.0001 2.2426-3.6365 1.9635-3.6365-0.27914 0-3.0514 1.125-6.1605 2.5l-5.6529 2.5h-5.518l-0.51255 2.6812-0.51255 2.6813 1.0565 2.3187 1.0565 2.3188-1.094 2.4012-1.094 2.4012 3.4057 0.6389 3.4057 0.63891 2.8507-1.4742c1.5679-0.81078 3.4355-2.1788 4.1503-3.0401l1.2996-1.5659h4.5102l1.3311 1.6039 1.3311 1.6039-1.6885 2.942-1.6885 2.942 1.2204 1.9541c1.616 2.5876 2.9112 2.4644 5.7393-0.54589z" fill="#fff"/>
    <path id="path4962" d="m596.63 234.7 1.37-1.66l0.0663-6.0964c0.0365-3.353 0.40049-7.5167 0.80889-9.2527l0.74255-3.1564 2.3534-0.59066 2.3534-0.59066 3.6295-6.4901 3.6295-6.4901 1.856-0.99332 1.856-0.99332-8.1478-7.8188c-10.55-10.13-14.07-12.75-24.65-18.39l-3.5-1.8675-6 0.65091-6 0.65092-1.1661 0.92248-1.1661 0.92248 0.28814 4.2739 0.28814 4.2739 1.1243 2.1007 1.1243 2.1007-0.12442 4.8226c-0.0684 2.6524 0.0871 7.6157 0.34558 11.03l0.47002 6.2071 1.0173 1.2929c0.55954 0.7111 1.3094 2.8303 1.6664 4.7094l0.64902 3.4165 2.4348 3.1922 2.4348 3.1922-1.501 2.143-1.5011 2.143 0.6312 1.0213 0.63119 1.0213 5.217-0.17048 5.217-0.17048 1.9709 1.0548c1.084 0.58015 2.8232 1.9965 3.8647 3.1474 2.2832 2.523 3.8799 2.6457 5.7114 0.43896z" fill="#fff"/>
    <path id="path4948" d="m627.5 222.91v-2.3185l1.4361-1.1918 1.4361-1.1918 1.8139 0.94578 1.8139 0.94578 6.8914 0.71835 6.8914 0.71835-0.66548-2.3447c-0.36601-1.2896-0.93734-3.5895-1.2696-5.1108l-0.60414-2.766-2.0545-2.9499c-2.0647-1.7431-3.724-2.1764-5.373-2.4491l-5.6656-0.56899h-5.3495l-4.3508-2.9221-4.3508-2.9221-2.7996 1.4478-2.7996 1.4477v0.9549c0 0.5252-1.5806 3.4258-3.5125 6.4458l-3.5125 5.4909-2.2375 1.2172-2.2375 1.2172 2.5 0.64892 2.5 0.64891 5.7215-2.8376c3.1468-1.5607 6.3612-2.8376 7.143-2.8376h1.4215l0.52075 1.357 0.52075 1.357-1.9072 2.893c-1.0489 1.5911-1.9101 3.5117-1.9138 4.268l-0.007 1.375 2.9128-0.58256 2.9128-0.58255 1.2005 1.4465 1.2005 1.4466 0.8867-0.54801 0.88669-0.548v-2.3185z" fill="#fff"/>
    <path id="path4938" d="m447.5 149.17c0-0.45267 0.3375-0.72744 0.75-0.61059s1.7625-0.34898 3-1.0352l2.25-1.2476v1.4704l1.1219-1.1219 1.1218-1.1218 1.1282 0.40619 1.1281 0.40619 2.75-3.8941 2.75-3.8941v-1.656c0-0.91078 0.4356-2.4699 0.96799-3.4647l0.968-1.8087-5.9808-0.67665-5.9808-0.67665-0.89054 0.55038-0.89054 0.55039-5.9735-0.81693-5.9735-0.81692-2.2298 0.82485-2.2298 0.82486 0.62565 2.4928 0.62565 2.4928h-2.038v3.786l1.5 0.5756c0.825 0.31659 1.5 1.0397 1.5 1.607v1.0314h-2.8128l0.58368 2.232c0.32103 1.2276 1.0122 2.6901 1.5358 3.25l0.95214 1.018 4.8706 0.073 4.8706 0.073v-0.82304z" fill="#fff"/>
    <path id="path4936" d="m282.5 140.42v-3.9274l2.6349-2.0726 2.6349-2.0726h3.1208l2.6917 2.5788 2.6917 2.5788 1.1271-1.3288c1.9556-2.3055 6.099-8.8848 6.099-9.6846 0-0.42187 0.91753-1.7519 2.039-2.9556l2.039-2.1886h11.922v-8.8572l-1.5714-1.5714c-0.86428-0.86429-1.9359-1.5714-2.3813-1.5714-0.44545 0-2.1914-1.413-3.8799-3.14l-3.07-3.14-0.65999-3.11-0.66-3.11-1.5215-1.7255-1.5215-1.7255 0.71157-4.7745c0.39137-2.626 0.78199-5.8995 0.86805-7.2745l0.15648-2.5 1.8864-1.5577 1.8864-1.5577-0.69709-3.1738-0.69709-3.1738-2.6746-1.3029-2.67-1.303 0.31748-4.2155 0.31748-4.2155h-6.0722l0.5149 1.3418 0.51491 1.3418-4.0492 3.6582-4.0492 3.6582h-3.7246l-2.4006 1.8883-2.4006 1.8883-3.8088 1.0517-3.8088 1.0517-1.4381-0.55187-1.4381-0.55186-1.3293 1.1032-1.3293 1.1032-0.80564-0.74132-0.80564-0.74132 0.53917 2.1932 0.53917 2.1932-1.7658 1.598-1.7658 1.598-2.8757-2.3911-2.87-2.391-5.2097 0.25089-5.2097 0.25089-1.1628-1.401-1.1628-1.401-2.6276 0.0037-2.6276 0.0037 3.25 1.9816 3.25 1.9816v8.9114l1 0.61803 1 0.61803v3.7392l1.6438 1.6438 1.6438 1.6438 2.3443-0.58839 2.3443-0.58839 3.5896 3.9732c1.9742 2.1853 4.9692 5.8777 6.6554 8.2055l3.0659 4.2323 1.0112 8.5606c0.55617 4.7083 1.0303 10.923 1.0536 13.811 0.0233 2.8875 0.29121 5.2511 0.5953 5.2524 0.3041 0.001 2.1279 1.3502 4.0529 2.9976s3.8375 2.9964 4.25 2.9977l0.75 0.002v-3.9274z" fill="#fff"/>
    <path id="path4918" d="m420.17 137.27 0.61537-3.0769 5.7454-5.6731c3.16-3.1202 6.4882-6.3481 7.3961-7.1731 0.90792-0.825 2.7993-2.9625 4.2031-4.75l2.5524-3.25h2.7316l0.65866-3.511 0.65866-3.511-1.2358-1.489-1.2358-1.489h-3.652l-2.3015-2.25-2.32-2.25-2.6904-8c-1.4797-4.4-2.9744-9.575-3.3215-11.5-0.34707-1.925-1.0838-4.9625-1.6371-6.75l-1.0061-3.25h-2.1782l0.63655 0.63656 0.63656 0.63656-4.2813 4.7618-4.2813 4.7618-3.8653 7.6153-3.8653 7.6153-2.995 1.8963-2.9949 1.8963-2.4604-0.93544-2.4604-0.93544-1.7838 0.56614-1.7838 0.56614-0.67318-1.0892-0.67319-1.0892-1.2621 1.0474-1.2621 1.0474-2.3989 0.05648c-1.3194 0.03107-3.6364-0.24589-5.1489-0.61546l-2.75-0.67194v2.2332l2.25 0.0023 2.25 0.0023 3.5 2.9954 3.5 2.9953 2.1361 0.002 2.1361 0.002 1.7182 3.6209 1.7182 3.6209 1.7788 0.46517 1.7788 0.46518 0.60587 3.6639c0.33323 2.0152 0.61082 4.9014 0.61687 6.4139l0.011 2.7501h0.96104c0.52858 0 1.8786 0.98485 3 2.1886l2.039 2.1886v3.4694l2.5889 3.0767 2.5889 3.0767h4.8722l0.61537-3.0769z" fill="#fff"/>
  </g>
  <metadata>
    <rdf:RDF>
      <cc:Work>
        <dc:format>image/svg+xml</dc:format>
        <dc:type rdf:resource="http://purl.org/dc/dcmitype/StillImage"/>
        <cc:license rdf:resource="http://creativecommons.org/licenses/publicdomain/"/>
        <dc:publisher>
          <cc:Agent rdf:about="http://openclipart.org/">
            <dc:title>Openclipart</dc:title>
          </cc:Agent>
        </dc:publisher>
        <dc:title>Map of Brazil</dc:title>
        <dc:date>2011-03-02T05:56:44</dc:date>
        <dc:description>A blank map of Brazil, with state lines drawn. Drawn in Inkscape based on a Brazilian government work (IBGE).</dc:description>
        <dc:source>http://openclipart.org/detail/124777/map-of-brazil-by-j_alves</dc:source>
        <dc:creator>
          <cc:Agent>
            <dc:title>J_Alves</dc:title>
          </cc:Agent>
        </dc:creator>
        <dc:subject>
          <rdf:Bag>
            <rdf:li>brasil</rdf:li>
            <rdf:li>brazil</rdf:li>
            <rdf:li>clip art</rdf:li>
            <rdf:li>clipart</rdf:li>
            <rdf:li>geography</rdf:li>
            <rdf:li>map</rdf:li>
            <rdf:li>state</rdf:li>
          </rdf:Bag>
        </dc:subject>
      </cc:Work>
      <cc:License rdf:about="http://creativecommons.org/licenses/publicdomain/">
        <cc:permits rdf:resource="http://creativecommons.org/ns#Reproduction"/>
        <cc:permits rdf:resource="http://creativecommons.org/ns#Distribution"/>
        <cc:permits rdf:resource="http://creativecommons.org/ns#DerivativeWorks"/>
      </cc:License>
    </rdf:RDF>
  </metadata>
</svg>
