<svg version="1.1" id="Layer_1" xmlns="http://www.w3.org/2000/svg" xmlns:xlink="http://www.w3.org/1999/xlink" x="0px" y="0px"
	 width="100%" viewBox="0 0 600 821" enable-background="new 0 0 600 821" xml:space="preserve">
<path fill="none" opacity="1.000000" stroke="#000000" stroke-linecap="round" stroke-linejoin="round" stroke-width="12.000000"
	d="
M29.500000,616.000000 
	C31.534363,617.298950 32.999443,619.136047 34.543701,620.963074 
	C37.396095,624.337769 37.498604,627.615540 35.573414,631.536072 
	C33.396622,635.968750 31.949566,640.768127 28.498207,644.498352 
	C28.178282,644.844116 27.553570,645.156067 27.540457,645.501526 
	C27.072166,657.838074 19.609581,667.754089 15.920132,678.973755 
	C14.365087,683.702698 11.832336,687.878723 8.183094,691.675964 
	C4.815300,695.180359 4.098746,700.620361 4.079161,705.500305 
	C3.933343,741.833069 3.979701,778.166687 4.021548,814.500000 
	C4.027938,820.047852 5.613228,821.500000 11.000000,821.500000 
	C207.500000,821.500000 404.000000,821.500000 600.500000,821.500000 
	C600.500000,551.333313 600.500000,281.166656 600.500000,11.000000 
	C600.500000,5.613229 599.047668,4.158916 593.499939,4.002555 
	C592.833740,3.983779 592.166687,4.000000 591.500000,4.000000 
	C397.833344,4.000000 204.166672,4.000000 10.500000,4.000001 
	C3.999997,4.000001 4.000000,4.000005 4.000000,10.500000 
	C3.999996,97.166664 4.009681,183.833328 3.960744,270.499969 
	C3.958986,273.614197 4.275967,276.490662 6.250000,279.000000 
"/>
<path fill="none" opacity="1.000000" stroke="#000000" stroke-linecap="round" stroke-linejoin="round" stroke-width="6.000000"
	d="
M232.000000,186.000000 
	C228.825653,189.131485 226.897919,193.056244 224.639557,197.148911 
	C232.846252,207.172714 242.515167,213.851212 256.000671,213.528152 
	C262.747803,213.366531 269.502045,213.500000 275.891724,213.500000 
	C277.381195,210.690216 278.189850,207.666977 280.138458,205.902924 
	C282.154877,204.077469 284.987335,206.609451 287.498535,206.473267 
	C297.159943,205.949249 306.904236,207.753937 316.496918,205.486954 
	C319.684692,204.733597 321.864410,206.671707 322.333618,209.033066 
	C323.230255,213.545303 326.053131,213.603851 329.500641,213.529114 
	C334.664856,213.417130 339.839325,213.339676 344.998810,213.531845 
	C357.488373,213.997009 366.530914,207.577850 374.448639,198.952866 
	C375.511047,197.795563 376.335999,196.232025 374.568726,194.432495 
	C372.914276,192.747849 372.163940,190.123718 370.419769,188.591324 
	C368.017548,186.480835 368.074768,184.121460 368.509583,181.501587 
	C370.021881,172.389404 370.363129,163.139435 371.613342,154.015533 
	C373.118805,143.028824 373.324738,131.907562 375.431824,120.986847 
	C376.237427,116.811676 374.143341,112.062004 378.000000,108.500000 
"/>
<path fill="none" opacity="1.000000" stroke="#000000" stroke-linecap="round" stroke-linejoin="round" stroke-width="6.000000"
	d="
M420.000000,667.000000 
	C408.333344,680.333374 396.222107,693.309570 385.137115,707.110107 
	C375.840088,718.684570 363.694550,724.735718 349.983826,728.440186 
	C339.873932,731.171814 329.512878,732.530151 318.999969,732.507019 
	C305.833405,732.477966 292.665833,732.593506 279.500214,732.475403 
	C264.268463,732.338806 249.466522,729.385376 235.579849,723.317261 
	C227.632370,719.844421 221.090897,714.030701 215.376511,707.101868 
	C203.959564,693.258423 191.833328,680.000000 179.999985,666.500000 
"/>
<path fill="none" opacity="1.000000" stroke="#000000" stroke-linecap="round" stroke-linejoin="round" stroke-width="9.000000"
	d="
M261.500000,485.000000 
	C260.536499,489.597504 256.434784,491.969849 253.888962,495.418030 
	C237.430115,517.710754 240.584213,551.924683 262.354156,571.164978 
	C284.935638,591.122498 320.459839,590.246704 341.460510,567.962769 
	C361.563904,546.630920 362.332672,514.310303 343.674377,491.855103 
	C335.703369,482.262024 325.784576,477.041931 314.484650,473.549652 
	C303.782837,470.242279 293.092316,471.061462 282.488922,474.465515 
	C277.527008,476.058472 272.827850,478.233337 268.580475,481.118469 
	C266.463867,482.556183 264.356445,483.685791 262.000000,484.500000 
"/>
<path fill="none" opacity="1.000000" stroke="#000000" stroke-linecap="round" stroke-linejoin="round" stroke-width="9.000000"
	d="
M393.000000,365.500000 
	C392.666656,364.833344 392.459900,364.053253 391.980133,363.517822 
	C387.885956,358.948364 388.300568,354.085419 389.835999,348.455261 
	C391.870148,340.996307 390.611633,333.161041 390.854401,325.511261 
	C391.064301,318.896637 390.724060,312.103455 392.063049,305.512817 
	C392.190887,304.883575 393.144928,304.462860 393.013763,303.498138 
	C391.569305,292.874054 392.330292,282.057068 390.069611,271.485107 
	C389.298706,267.880157 387.420685,265.419128 384.834778,263.577698 
	C381.427826,266.527802 379.664520,270.141754 379.493713,274.499756 
	C379.337708,278.479767 378.081848,282.214325 375.947327,285.465424 
	C370.765930,293.357178 366.500763,301.822021 361.535950,309.832184 
	C357.343475,316.596313 352.935577,323.462524 348.981445,330.489563 
	C343.911407,339.499786 337.566498,347.193420 326.990540,349.963898 
	C323.412140,350.901306 319.746338,351.525482 315.999969,351.511322 
	C306.833435,351.476685 297.649231,351.138153 288.503784,351.578674 
	C271.771362,352.384674 259.983887,345.332855 251.373093,331.076660 
	C242.444916,316.294952 233.259277,301.677826 224.966736,286.518188 
	C222.465057,281.944855 221.118896,277.105621 220.502121,271.999756 
	C220.089752,268.586029 218.757141,265.667786 216.000000,263.500000 
"/>
<path fill="none" opacity="1.000000" stroke="#000000" stroke-linecap="round" stroke-linejoin="round" stroke-width="4.000000"
	d="
M195.500000,444.500000 
	C194.459808,449.866028 197.490738,454.307861 199.107559,458.962646 
	C203.301682,471.037476 207.912460,482.977509 213.512543,494.493896 
	C217.247208,502.174103 220.567841,510.118347 226.515320,516.485718 
	C227.867828,517.933594 228.964813,519.574463 228.451141,521.486877 
	C225.872116,531.088257 228.861252,540.283142 230.710968,549.457458 
	C231.298172,552.369812 231.723236,554.603760 230.000000,557.000000 
"/>
<path fill="none" opacity="1.000000" stroke="#000000" stroke-linecap="round" stroke-linejoin="round" stroke-width="9.000000"
	d="
M459.000000,244.000000 
	C454.883911,238.429672 448.292023,237.056076 442.464508,234.583664 
	C431.116821,229.769226 419.333221,226.270081 406.997742,225.022385 
	C401.998474,224.516708 397.066254,223.535034 392.002808,223.396912 
	C389.021149,223.315567 386.974976,222.322449 387.763000,217.957214 
	C388.569550,213.489090 388.114777,209.001053 392.450684,205.930374 
	C393.733368,205.021988 393.512909,203.093674 393.511414,201.499985 
	C393.493713,182.500000 393.508820,163.499985 393.478607,144.500031 
	C393.476746,143.333099 393.515930,141.946060 392.941650,141.036850 
	C389.869568,136.173126 390.938843,130.754150 390.403870,125.509811 
	C389.638336,118.005707 389.676758,110.440163 388.145538,102.970169 
	C387.325897,98.971512 388.257446,94.646469 387.932648,90.505280 
	C387.555054,85.690895 386.110779,81.056007 384.501129,76.499603 
	C383.176971,72.751343 380.815002,69.323463 381.452545,64.993011 
	C381.823029,62.476509 379.992279,60.671883 378.468445,59.029278 
	C369.503571,49.365654 358.577332,42.372253 346.453583,37.618382 
	C331.278992,31.668230 315.288330,28.236130 299.005280,28.689615 
	C278.474213,29.261410 258.524933,33.617649 240.585083,44.145000 
	C233.589035,48.250378 226.800858,53.036751 221.459518,59.466370 
	C219.460739,61.872387 218.365326,64.292534 218.435608,67.501411 
	C218.557480,73.066536 214.563843,77.504242 213.823959,82.976196 
	C213.514252,85.266602 212.545227,87.691536 212.586014,89.998482 
	C212.840759,104.407997 208.764404,118.544319 209.967606,133.002701 
	C210.049103,133.982040 209.961716,135.193954 209.452423,135.968719 
	C205.984879,141.243668 206.481659,147.145554 206.491257,153.000015 
	C206.516937,168.666641 206.535446,184.333481 206.464966,199.999847 
	C206.453278,202.599152 206.510254,205.246658 208.549332,206.940613 
	C211.979401,209.790054 212.670639,213.754089 212.366516,217.489136 
	C211.478210,228.398621 215.068069,238.782516 215.476624,249.500885 
	C215.622528,253.328659 215.514648,257.166779 215.486404,260.999908 
	C215.481369,261.683777 215.697174,262.367523 215.019363,263.020111 
	C208.391418,269.401703 209.213120,278.061951 208.665039,286.011383 
	C207.978836,295.964081 208.500000,306.000000 208.500000,316.000000 
	C208.500000,316.666656 208.376907,317.360809 208.518631,317.995850 
	C210.366043,326.273743 209.188904,334.667328 209.435181,343.001923 
	C209.550583,346.906616 210.251022,350.537781 211.990036,354.005005 
	C212.391006,354.804413 212.474976,356.224762 213.029160,356.415100 
	C219.848282,358.757294 222.011963,365.206207 224.831650,370.588196 
	C229.101013,378.737244 236.234406,382.508484 243.980743,386.042206 
	C256.053467,391.549469 268.038910,397.254272 279.942902,403.115936 
	C281.205231,403.737549 282.267914,403.980530 283.500061,403.985687 
	C290.499939,404.015137 297.544952,403.496979 304.489471,404.117737 
	C314.943481,405.052185 324.025787,401.962158 333.057098,397.106201 
	C343.814697,391.322052 354.932281,386.184418 366.057159,381.125671 
	C368.281769,380.114105 369.781403,378.889893 370.998840,376.999237 
	C374.002380,372.334839 377.000366,367.666901 379.999908,362.999908 
	C381.864136,360.099335 383.866791,357.359131 387.500000,356.500000 
"/>
<path fill="none" opacity="1.000000" stroke="#000000" stroke-linecap="round" stroke-linejoin="round" stroke-width="6.000000"
	d="
M389.500000,324.500000 
	C385.922150,325.048065 384.244659,327.540894 382.407684,330.441528 
	C375.979187,340.592377 369.158325,350.494476 362.511658,360.507751 
	C361.767029,361.629578 360.652771,361.970062 359.548370,362.586639 
	C346.391754,369.931793 332.465698,375.765411 319.401550,383.329987 
	C314.428589,386.209534 308.170135,384.293030 302.498291,384.428894 
	C300.842712,384.468536 299.178406,384.383545 297.498016,384.447906 
	C289.431458,384.757050 281.921997,384.158600 274.340240,379.776428 
	C264.189514,373.909454 253.574432,368.659760 242.923370,363.663330 
	C238.261307,361.476410 236.107437,357.626007 233.566467,353.954010 
	C228.018173,345.936096 222.727829,337.732544 217.561661,329.461487 
	C215.924362,326.840149 214.072479,324.989105 211.000000,324.500000 
"/>
<path fill="none" opacity="1.000000" stroke="#000000" stroke-linecap="round" stroke-linejoin="round" stroke-width="9.000000"
	d="
M139.000000,418.500000 
	C137.833328,412.833344 136.491440,407.195099 135.565186,401.489410 
	C135.002121,398.020996 135.354065,395.241913 139.952255,393.843079 
	C150.188248,390.729095 159.742386,385.685303 169.974854,382.421143 
	C173.485886,381.301147 176.313004,380.610077 179.040695,383.966949 
	C184.679337,390.906281 192.137589,396.301849 199.491943,400.584534 
	C210.211777,406.827087 221.473221,412.542328 233.442352,416.667297 
	C244.971695,420.640656 256.581390,424.214264 268.520142,426.389526 
	C285.197052,429.428070 302.067719,430.874115 318.996246,428.473633 
	C348.088867,424.348145 375.809906,415.902100 400.900238,400.339172 
	C408.081390,395.884888 415.174347,390.825348 420.931610,384.438354 
	C424.026855,381.004517 427.196136,380.982422 431.004181,382.489410 
	C442.659332,387.101807 454.333344,391.666656 466.000000,396.250000 
"/>
<path fill="none" opacity="1.000000" stroke="#000000" stroke-linecap="round" stroke-linejoin="round" stroke-width="9.000000"
	d="
M190.000000,655.500000 
	C194.017136,659.336609 196.934006,664.423462 202.500000,666.500000 
	C205.346863,673.979248 212.052368,678.305237 217.127319,683.884155 
	C224.682724,692.189941 231.884613,700.846436 242.404205,706.188599 
	C252.648193,711.390808 263.207550,714.223450 274.499969,715.000549 
	C289.323853,716.020691 304.174988,715.653137 318.998047,715.389648 
	C335.278839,715.100281 350.944550,712.155457 364.552582,702.070984 
	C370.322998,697.794617 375.173370,692.617920 379.881500,687.393188 
	C385.810974,680.813171 393.456665,675.596985 397.021332,667.008850 
	C397.188354,666.606445 397.617279,666.123291 398.007385,666.031555 
	C403.697784,664.693665 405.971008,659.298523 410.000000,656.000000 
"/>
<path fill="none" opacity="1.000000" stroke="#000000" stroke-linecap="round" stroke-linejoin="round" stroke-width="9.000000"
	d="
M299.500000,494.500000 
	C280.218140,495.280701 266.209045,509.843292 266.109039,529.000549 
	C266.042206,541.814270 274.124481,555.283569 288.485260,560.540222 
	C301.048615,565.138977 316.364105,561.622131 325.049652,551.542786 
	C334.734253,540.304016 337.171722,528.045654 330.947754,514.524048 
	C325.021454,501.649139 314.595367,495.175385 300.500000,494.500000 
"/>
<path fill="none" opacity="1.000000" stroke="#000000" stroke-linecap="round" stroke-linejoin="round" stroke-width="10.000000"
	d="
M181.000000,322.500000 
	C178.140167,321.969757 175.620178,323.339966 173.010574,324.039459 
	C165.979675,325.924164 158.984741,327.948822 152.008530,330.028595 
	C149.663925,330.727600 148.498810,332.118408 148.394119,334.996155 
	C147.987549,346.172272 147.224899,357.337372 146.450089,368.496521 
	C146.297958,370.687561 145.502640,372.833893 145.002075,375.002319 
	C138.384949,376.365631 131.614838,374.630066 125.000000,376.000000 
"/>
<path fill="none" opacity="1.000000" stroke="#000000" stroke-linecap="round" stroke-linejoin="round" stroke-width="9.000000"
	d="
M419.000000,322.500000 
	C426.187805,322.713318 432.689697,325.738770 439.502655,327.489716 
	C439.815338,327.570068 440.196136,327.412140 440.495758,327.512665 
	C452.190063,331.437317 452.082062,331.443451 452.538239,343.998596 
	C452.835236,352.172638 453.179626,360.369812 454.103424,368.488220 
	C454.816986,374.759247 454.060150,375.595947 461.500122,375.510010 
	C466.166138,375.456116 470.833344,375.500000 475.500000,375.500000 
"/>
<path fill="none" opacity="1.000000" stroke="#000000" stroke-linecap="round" stroke-linejoin="round" stroke-width="6.000000"
	d="
M221.500000,107.000000 
	C218.390228,110.215439 216.273438,113.673271 217.457031,118.510513 
	C219.018906,124.893875 218.721970,131.530991 219.258926,138.019943 
	C219.988892,146.841461 220.942978,155.658981 221.487869,164.500748 
	C222.025421,173.223618 219.147446,181.497543 217.964035,189.994995 
	C217.333405,194.523224 216.138443,198.975998 215.580093,203.509857 
	C215.289505,205.869431 214.831299,207.915817 213.000000,209.500000 
"/>
<path fill="none" opacity="1.000000" stroke="#000000" stroke-linecap="round" stroke-linejoin="round" stroke-width="6.000000"
	d="
M511.500000,257.000000 
	C512.474487,265.553955 518.004089,270.730286 527.492493,272.539307 
	C538.857544,274.706116 550.174255,277.130676 561.496033,279.518738 
	C565.687195,280.402771 569.789185,281.783630 574.009338,282.439880 
	C582.329834,283.733734 588.182129,287.997101 591.515259,295.743408 
	C592.073303,297.040192 592.833313,298.250000 593.500000,299.500000 
"/>
<path fill="none" opacity="1.000000" stroke="#000000" stroke-linecap="round" stroke-linejoin="round" stroke-width="6.000000"
	d="
M118.000000,461.000000 
	C123.091644,468.037506 125.710426,476.315887 129.443787,484.027222 
	C137.955200,501.607666 146.117279,519.356873 154.531464,536.984985 
	C156.916031,541.980774 152.343048,544.958923 151.429581,548.984009 
	C151.253052,549.761963 150.166672,550.333374 149.500015,551.000000 
"/>
<path fill="none" opacity="1.000000" stroke="#000000" stroke-linecap="round" stroke-linejoin="round" stroke-width="6.000000"
	d="
M385.000000,117.000000 
	C383.848206,118.134293 382.386505,119.175713 382.529236,120.997711 
	C382.848053,125.067154 381.809509,129.000809 381.535675,133.002441 
	C380.758545,144.357452 380.006470,155.704483 378.585541,167.010757 
	C377.972870,171.885941 379.957886,176.681549 380.757294,181.456924 
	C381.930328,188.464417 383.713135,195.401627 384.458527,202.504349 
	C384.676880,204.584930 385.816772,206.008270 387.000000,207.500000 
"/>
<path fill="none" opacity="1.000000" stroke="#000000" stroke-linecap="round" stroke-linejoin="round" stroke-width="6.000000"
	d="
M88.500000,257.000000 
	C88.271049,264.506866 83.112419,269.933777 75.512283,271.557465 
	C61.635777,274.522064 47.834354,277.837799 33.998997,280.995605 
	C31.672733,281.526581 29.355522,282.194885 26.995846,282.463501 
	C19.914316,283.269684 14.187697,286.083588 10.429244,292.458282 
	C9.637827,293.800598 8.811872,295.478546 7.000000,296.000000 
"/>
<path fill="none" opacity="1.000000" stroke="#000000" stroke-linecap="round" stroke-linejoin="round" stroke-width="9.000000"
	d="
M490.000000,261.000000 
	C494.802307,255.283691 501.318329,254.196213 508.533020,255.280121 
	C518.050903,256.710083 527.495300,258.530182 536.994507,260.034729 
	C555.672791,262.993073 573.436218,268.722961 590.023499,277.957764 
	C593.047668,279.641418 596.499390,280.169617 600.000000,280.000000 
"/>
<path fill="none" opacity="1.000000" stroke="#000000" stroke-linecap="round" stroke-linejoin="round" stroke-width="9.000000"
	d="
M167.500000,415.000000 
	C167.969376,422.445099 170.690750,429.362823 172.420471,436.519226 
	C176.650513,454.020416 183.448502,470.639740 189.635376,487.450165 
	C192.867676,496.232727 197.295563,504.603790 201.546005,512.976624 
	C208.617432,526.906494 215.805511,540.807190 225.050980,553.462769 
	C229.366577,559.370117 233.782974,565.191772 237.463806,571.521057 
	C238.055054,572.537781 238.166672,573.833313 238.500000,575.000000 
"/>
<path fill="none" opacity="1.000000" stroke="#000000" stroke-linecap="round" stroke-linejoin="round" stroke-width="9.000000"
	d="
M432.500000,414.500000 
	C433.072876,421.312225 430.654541,427.654663 428.863953,433.961365 
	C425.325134,446.425659 421.408936,458.817932 416.914490,470.968353 
	C407.701996,495.873352 396.030609,519.620911 382.617889,542.568909 
	C376.885620,552.376465 369.256897,560.770508 363.431854,570.459045 
	C362.543274,571.936951 361.803406,573.338562 361.500000,575.000000 
"/>
<path fill="none" opacity="1.000000" stroke="#000000" stroke-linecap="round" stroke-linejoin="round" stroke-width="9.000000"
	d="
M600.000000,457.500000 
	C584.333313,457.500000 568.666687,457.500000 553.000000,457.500000 
	C543.500000,457.500000 533.983032,457.841095 524.506531,457.368866 
	C519.043030,457.096588 513.325867,461.887024 511.490265,468.997498 
	C511.399200,469.350342 510.930756,469.817871 511.033691,469.978394 
	C517.704895,480.384644 514.903503,492.872375 518.693481,504.103455 
	C524.078491,520.061523 530.773499,535.013428 541.574158,547.938049 
	C543.884521,550.702820 546.059875,553.194641 545.480103,556.996948 
	C545.047607,559.833740 546.849609,561.775146 547.994263,564.002930 
	C551.493408,570.812744 555.252808,577.445862 559.975098,583.519348 
	C564.413757,589.228027 565.242798,596.411194 567.464722,603.011841 
	C568.843750,607.108337 569.877441,611.321045 570.929077,615.001770 
	C580.298706,619.900391 588.441772,627.652161 600.000000,625.500000 
"/>
<path fill="none" opacity="1.000000" stroke="#000000" stroke-linecap="round" stroke-linejoin="round" stroke-width="6.000000"
	d="
M411.000000,489.500000 
	C416.986542,491.821381 421.760956,495.712646 426.061615,500.443970 
	C429.130585,503.820251 429.496094,507.142212 427.500366,511.000183 
	C419.725067,526.030518 412.806488,541.497559 404.048645,556.029297 
	C398.619507,565.037781 393.721924,574.365173 388.463501,583.478943 
	C387.037170,585.950989 385.166687,588.166687 383.500031,590.500000 
"/>
<path fill="none" opacity="1.000000" stroke="#000000" stroke-linecap="round" stroke-linejoin="round" stroke-width="9.000000"
	d="
M6.000000,457.500000 
	C29.166666,457.500000 52.334888,457.649048 75.499031,457.407227 
	C82.256668,457.336700 86.235153,460.333618 88.581100,467.975098 
	C88.792984,468.665253 89.241219,469.577820 88.948769,469.960876 
	C84.480034,475.814972 85.666847,482.984009 84.646378,489.522858 
	C80.965981,513.105591 71.519173,533.804504 55.502308,551.502075 
	C55.100952,551.945496 54.733799,552.419922 54.409138,552.809692 
	C55.541759,556.152771 54.908752,559.117859 53.500824,562.000427 
	C49.750576,569.678528 45.587654,577.212036 40.303551,583.843445 
	C37.504215,587.356506 36.447487,591.275146 35.182861,595.061096 
	C33.082066,601.350342 31.825546,607.925781 29.024813,614.011414 
	C28.834911,614.424011 29.132849,615.392273 28.980951,615.443726 
	C21.029594,618.136353 15.450459,626.269409 6.000000,625.500000 
"/>
<path fill="none" opacity="1.000000" stroke="#000000" stroke-linecap="round" stroke-linejoin="round" stroke-width="6.000000"
	d="
M189.000000,489.000000 
	C183.365906,492.207367 178.313736,496.124969 173.981979,500.983948 
	C171.389252,503.892181 170.664581,507.027649 172.515259,510.491852 
	C182.211975,528.642578 190.801025,547.370667 201.404495,565.057251 
	C205.162415,571.325500 208.700333,577.742676 212.467941,584.019226 
	C213.468521,585.686096 214.474091,587.279419 216.000000,588.500000 
"/>
<path fill="none" opacity="1.000000" stroke="#000000" stroke-linecap="round" stroke-linejoin="round" stroke-width="6.000000"
	d="
M600.000000,299.500000 
	C596.515442,299.420654 593.170166,299.095398 590.905029,302.944122 
	C589.041504,306.110596 585.187866,306.025085 581.992798,306.445282 
	C568.343018,308.240448 554.661316,309.791473 541.006409,311.549774 
	C539.175293,311.785553 537.381409,312.596100 535.867737,314.086212 
	C538.483459,321.807983 540.184814,329.729980 539.500000,338.000000 
"/>
<path fill="none" opacity="1.000000" stroke="#000000" stroke-linecap="round" stroke-linejoin="round" stroke-width="9.000000"
	d="
M89.500000,470.000000 
	C93.471573,472.578583 97.093834,475.381866 98.060822,480.488495 
	C98.327652,481.897552 99.284569,483.193756 100.007706,484.495728 
	C106.081268,495.430908 114.899971,504.411499 121.588722,514.943665 
	C128.523621,525.863403 136.210007,536.303833 143.486649,547.009094 
	C149.596146,555.997192 155.539917,565.095398 161.371246,574.263855 
	C165.641815,580.978455 170.889008,587.334351 175.501953,593.998657 
	C179.659424,600.005005 183.873993,605.972351 187.978638,612.014526 
	C189.478714,614.222656 191.108261,616.167175 193.750000,617.000000 
"/>
<path fill="none" opacity="1.000000" stroke="#000000" stroke-linecap="round" stroke-linejoin="round" stroke-width="7.000000"
	d="
M110.500000,261.000000 
	C104.770370,254.808136 98.217796,254.090179 89.935631,255.660477 
	C82.000229,257.165039 74.009247,258.884521 65.984573,259.875031 
	C46.869202,262.234467 28.986012,268.111786 11.998783,276.997681 
	C11.008268,277.515808 10.018013,278.384399 8.996825,278.432220 
	C4.966367,278.621094 4.264636,281.668182 4.105786,284.505920 
	C3.890417,288.353302 3.161710,292.430847 5.521877,295.985474 
	C6.505839,297.467407 6.481278,299.545502 5.870169,300.408020 
	C3.161886,304.230225 4.096897,308.428986 4.034099,312.500519 
	C3.915879,320.165344 3.468554,327.878967 4.121978,335.489532 
	C5.155650,347.528839 3.484205,359.488434 3.907419,371.503265 
	C4.329587,383.488403 4.000000,395.500000 4.000000,407.500000 
	C4.000000,421.333344 3.995507,435.166656 4.004309,449.000000 
	C4.005821,451.376404 3.555604,453.876221 5.048736,455.965149 
	C5.564598,456.686829 5.622614,457.372955 5.467124,457.991730 
	C2.140994,471.228363 3.843651,484.722870 4.361594,497.985870 
	C4.722432,507.225830 3.431843,516.315491 3.900434,525.505066 
	C4.358166,534.481750 4.050786,543.500488 3.966279,552.499695 
	C3.943571,554.917786 4.103580,557.250854 5.008633,559.496521 
	C5.286348,560.185608 6.133800,561.080627 5.931091,561.463501 
	C1.825497,569.217957 4.622255,577.507996 4.135320,585.508240 
	C3.559230,594.973145 3.901661,604.501526 4.051108,613.999207 
	C4.106548,617.522461 3.207911,621.124878 5.395118,624.566650 
	C6.609630,626.477844 3.682318,628.265259 3.984538,630.502075 
	C4.746734,636.143433 2.561744,641.980103 5.419711,647.541260 
	C6.537221,649.715698 3.866554,651.563660 3.914267,654.001648 
	C4.116418,664.331055 4.071223,674.667480 3.954391,684.999512 
	C3.921515,687.906860 5.800991,689.751953 7.000000,692.000000 
"/>
<path fill="none" opacity="1.000000" stroke="#000000" stroke-linecap="round" stroke-linejoin="round" stroke-width="9.000000"
	d="
M587.500000,344.500000 
	C586.268372,350.450012 581.109497,353.509399 577.384338,357.388947 
	C559.171875,376.356445 539.695740,393.878784 517.063110,407.604034 
	C515.239441,408.709961 513.258301,409.362427 511.500000,410.500000 
"/>
<path fill="none" opacity="1.000000" stroke="#000000" stroke-linecap="round" stroke-linejoin="round" stroke-width="7.000000"
	d="
M339.000000,308.500000 
	C339.125732,307.495056 339.251434,306.490143 339.435730,305.016968 
	C336.446686,301.886627 332.107330,299.571991 329.482300,295.511444 
	C328.438385,293.896667 326.696564,293.986206 325.000000,293.988251 
	C308.666656,294.007843 292.333344,294.000000 276.000000,294.000000 
	C275.166656,294.000000 273.957703,293.639038 273.557617,294.055389 
	C269.134399,298.658508 262.511932,301.378082 261.000000,308.500000 
"/>
<path fill="none" opacity="1.000000" stroke="#000000" stroke-linecap="round" stroke-linejoin="round" stroke-width="9.000000"
	d="
M13.500000,344.500000 
	C14.059926,346.869781 14.681792,349.163788 16.485952,351.013702 
	C36.722347,371.763428 57.427696,391.953735 82.496277,407.006195 
	C83.525482,407.624207 84.451073,408.429443 85.514771,408.970978 
	C86.443779,409.443970 87.499603,409.667847 88.881691,410.129456 
	C92.137764,406.102875 97.386894,404.688873 101.521606,401.528259 
	C106.578720,397.662567 105.542191,396.466034 103.009163,392.494171 
	C98.828873,385.939331 98.061775,378.239899 96.071144,370.980499 
	C93.270264,360.766327 90.150368,350.616364 88.922371,340.008972 
	C88.487190,336.249908 89.665466,332.873779 90.594582,329.526245 
	C96.576241,307.974915 102.844078,286.503082 108.992088,264.997742 
	C110.440384,259.931702 118.097359,257.845062 122.000114,261.499878 
	C123.294006,262.711578 123.824135,264.796234 126.000000,265.000000 
"/>
<path fill="none" opacity="1.000000" stroke="#000000" stroke-linecap="round" stroke-linejoin="round" stroke-width="6.000000"
	d="
M483.000000,460.000000 
	C476.222717,470.952728 471.621582,482.979675 466.047943,494.523132 
	C458.851227,509.428162 452.000000,524.500000 445.000000,539.500000 
"/>
<path fill="none" opacity="1.000000" stroke="#000000" stroke-linecap="round" stroke-linejoin="round" stroke-width="5.000000"
	d="
M31.000015,370.000000 
	C29.833347,371.166687 28.225502,372.134308 27.590910,373.541016 
	C26.227667,376.562927 25.512524,379.548309 28.451900,382.547150 
	C42.725098,397.109375 56.789787,411.875763 71.018883,426.481598 
	C77.844559,433.488037 83.949532,441.242767 92.000000,447.000000 
"/>
<path fill="none" opacity="1.000000" stroke="#000000" stroke-linecap="round" stroke-linejoin="round" stroke-width="6.000000"
	d="
M385.000000,115.000000 
	C378.709412,109.225883 376.168457,102.572815 378.839905,93.950401 
	C379.898285,90.534470 379.075623,86.718163 376.542847,83.466629 
	C365.931244,69.843658 352.327179,61.663357 334.753967,59.924492 
	C332.598267,64.535217 332.290588,69.619598 331.595001,74.513504 
	C330.291290,83.685577 329.186493,92.875656 327.592834,102.016182 
	C326.153259,110.272881 325.469635,118.663162 324.508240,127.000946 
	C323.472595,135.982498 318.476929,139.904755 310.996826,139.571060 
	C303.678040,139.244568 296.333344,139.504105 289.000000,139.498886 
	C281.202576,139.493332 277.424103,135.680222 276.422455,128.010132 
	C275.067749,117.636055 272.615051,107.383362 271.671967,96.984406 
	C270.896667,88.435249 269.534698,79.975685 268.242096,71.539513 
	C267.661346,67.749039 268.962860,63.370396 265.913025,60.226398 
	C256.809326,59.642189 248.621628,63.475204 241.149506,67.760674 
	C233.632584,72.071823 226.833679,78.092934 222.583328,86.044540 
	C220.434235,90.065094 221.723282,94.776863 222.164536,98.982735 
	C223.550827,112.196304 225.895523,125.306725 227.430756,138.508057 
	C228.763611,149.969345 229.300018,161.523117 230.624680,172.985596 
	C231.010742,176.326279 231.417694,179.635559 231.544037,182.998352 
	C231.600037,184.488678 232.267456,185.644562 233.981415,186.298691 
	C245.907730,190.850494 257.939056,195.256866 270.523285,197.360687 
	C283.208191,199.481339 296.036865,200.357864 309.006805,199.619553 
	C324.661713,198.728394 339.808044,195.885757 354.496277,190.489853 
	C358.853790,188.889053 363.166656,187.166656 367.500000,185.499985 
"/>
<path fill="none" opacity="1.000000" stroke="#000000" stroke-linecap="round" stroke-linejoin="round" stroke-width="9.000000"
	d="
M495.000000,495.500000 
	C498.793671,498.186493 499.617065,502.610138 500.356964,506.527008 
	C503.253632,521.861145 505.535614,537.194702 503.646637,553.017517 
	C501.133362,574.069946 497.652679,594.975342 494.934143,615.991455 
	C494.581177,618.720276 493.652466,621.491638 492.426056,623.963318 
	C490.534302,627.776062 489.515533,631.018494 491.153412,635.623291 
	C492.288879,638.815613 490.241364,643.181458 489.486938,646.997437 
	C486.411377,662.554382 482.210754,677.672180 474.106140,691.561951 
	C470.491577,697.756592 465.491547,702.687256 460.796265,707.813416 
	C458.402863,710.426392 453.648712,710.460510 450.454590,712.941528 
	C447.061096,715.577576 443.335388,717.620056 444.421295,723.015869 
	C444.955841,725.672119 442.337341,726.021912 440.534729,727.060303 
	C432.401581,731.745422 423.700256,735.140625 414.964111,738.403931 
	C411.977600,739.519531 410.034424,741.089722 408.993835,743.997803 
	C406.161774,751.912231 400.865814,757.491516 392.987457,760.466797 
	C390.508453,761.402954 387.889740,761.820435 385.500000,760.000000 
"/>
<path fill="none" opacity="1.000000" stroke="#000000" stroke-linecap="round" stroke-linejoin="round" stroke-width="9.000000"
	d="
M117.000000,821.000000 
	C116.608536,813.615906 120.523842,807.495789 123.072258,801.028503 
	C126.598778,792.078979 130.602112,783.334839 135.398285,774.941895 
	C137.464920,771.325439 140.340057,769.652466 143.983032,768.448669 
	C145.716095,767.875977 146.758316,768.028931 148.038391,769.465820 
	C160.759262,783.744751 177.679916,791.946777 194.009155,800.983459 
	C199.618225,804.087524 205.362350,806.946777 210.990646,810.017151 
	C215.354507,812.397705 218.068222,816.071594 219.000000,821.000000 
"/>
<path fill="none" opacity="1.000000" stroke="#000000" stroke-linecap="round" stroke-linejoin="round" stroke-width="9.000000"
	d="
M111.000000,632.000000 
	C107.854538,638.840576 110.663887,645.420166 112.045929,651.990356 
	C115.289757,667.411316 119.539429,682.416687 128.887787,695.579712 
	C132.150253,700.173523 135.990646,704.475037 139.888397,708.080078 
	C142.467514,710.465393 147.327454,711.808838 151.017212,713.970642 
	C154.154480,715.808594 156.472778,717.844299 156.078171,722.007385 
	C155.836655,724.555542 157.736160,725.866455 159.963776,727.067200 
	C167.737701,731.257690 175.740509,734.943298 184.031189,737.912964 
	C188.001373,739.335022 190.693954,741.440918 192.031143,745.489746 
	C194.641312,753.392944 200.812805,757.838257 208.043167,760.897949 
	C210.121948,761.777649 212.757233,761.934509 215.000000,760.500000 
"/>
<path fill="none" opacity="1.000000" stroke="#000000" stroke-linecap="round" stroke-linejoin="round" stroke-width="9.000000"
	d="
M474.500000,265.000000 
	C475.833344,264.000000 477.666473,263.275238 478.399261,261.944519 
	C480.089966,258.874237 482.406189,259.816772 485.003143,259.894287 
	C489.880341,260.039856 491.055054,263.399658 491.972412,267.007019 
	C496.421509,284.501343 501.847931,301.710175 506.976227,319.007050 
	C508.791504,325.129639 511.040009,331.253204 511.751648,337.528168 
	C512.226257,341.713196 510.533783,346.216919 509.461945,350.490448 
	C506.403595,362.684265 503.122589,374.822266 500.063385,387.015900 
	C499.731628,388.338196 499.176117,389.419983 498.491333,390.494476 
	C493.942932,397.631104 495.358734,400.873108 503.448486,404.128021 
	C506.308472,405.278687 508.575592,407.902740 511.102264,409.845551 
	C509.832092,419.973785 506.185394,428.803528 498.648743,436.326477 
	C504.237762,444.344025 509.868866,452.422028 515.500000,460.500000 
"/>
<path fill="none" opacity="1.000000" stroke="#000000" stroke-linecap="round" stroke-linejoin="round" stroke-width="9.000000"
	d="
M141.500000,244.000000 
	C143.433533,250.148804 140.756653,253.730255 135.613220,257.169312 
	C129.863953,261.013519 125.504814,266.224731 124.870216,273.989380 
	C124.174278,282.504700 122.826271,291.025909 121.605942,299.442871 
	C119.737617,312.329163 119.322945,325.135406 119.619987,337.997223 
	C119.870483,348.844025 121.239670,359.661926 121.943695,370.503662 
	C122.100632,372.920319 124.343559,374.304840 124.129608,377.010254 
	C123.794090,381.252991 120.932693,383.014984 118.005821,385.008545 
	C113.649956,387.975464 109.333344,391.000000 105.000008,394.000000 
"/>
<path fill="none" opacity="1.000000" stroke="#000000" stroke-linecap="round" stroke-linejoin="round" stroke-width="9.000000"
	d="
M465.500000,242.500000 
	C462.627502,242.889771 459.528870,242.530533 458.435486,246.482147 
	C457.237640,250.811493 460.153656,254.076187 462.634430,255.204437 
	C467.704315,257.510254 468.752625,263.885529 474.226837,265.337341 
	C474.490540,265.407318 474.474792,266.748718 474.491211,267.500183 
	C474.722992,278.105225 479.739014,288.177155 478.000000,299.000000 
	C482.246613,317.231140 481.434570,335.586029 479.555939,354.005707 
	C478.836456,361.059814 478.587494,368.091034 476.779083,375.072296 
	C476.079590,377.772583 476.725128,381.868195 480.457977,384.071228 
	C485.625366,387.120941 490.500000,390.666656 495.500000,394.000000 
"/>
<path fill="none" opacity="1.000000" stroke="#000000" stroke-linecap="round" stroke-linejoin="round" stroke-width="4.000000"
	d="
M405.500000,444.000000 
	C405.489960,449.044769 403.054657,453.399567 401.490295,457.996704 
	C395.434601,475.792084 388.291138,493.124664 378.940277,509.465820 
	C377.250366,512.419067 376.165649,516.051270 372.500000,517.500000 
"/>
<path fill="none" opacity="1.000000" stroke="#000000" stroke-linecap="round" stroke-linejoin="round" stroke-width="9.000000"
	d="
M503.500000,475.500000 
	C501.315552,474.649445 499.676056,473.085663 497.978088,471.523834 
	C491.030640,465.133392 484.256622,458.514313 476.913361,452.607727 
	C471.673248,448.392822 470.030487,443.268219 472.191467,437.572632 
	C474.012146,432.773987 470.245758,428.893494 471.449158,424.486115 
	C471.510712,424.260590 470.891022,423.659088 470.491150,423.526703 
	C466.076538,422.065491 462.793854,418.122314 457.494446,418.390320 
	C451.904175,418.672974 446.796692,415.936768 441.522705,414.420990 
	C435.975220,412.826630 430.083099,412.707092 425.083221,414.266754 
	C412.824127,418.090790 400.497925,421.800140 388.371674,426.141541 
	C381.853485,428.475159 374.796204,430.023285 367.971893,431.897705 
	C365.198090,432.659576 363.617218,434.113983 362.497620,436.498871 
	C356.002502,450.334503 349.509399,464.171112 342.991150,477.995819 
	C341.856750,480.401764 340.736237,482.843018 338.500000,484.500000 
"/>
<path fill="none" opacity="1.000000" stroke="#000000" stroke-linecap="round" stroke-linejoin="round" stroke-width="9.000000"
	d="
M127.000000,433.500000 
	C127.500000,432.166656 128.165985,430.869629 128.466904,429.492767 
	C129.187973,426.193512 128.710205,422.313629 133.493134,421.461487 
	C136.763885,420.878815 139.305389,418.341217 143.001343,418.384216 
	C148.567978,418.449066 153.652374,415.773773 158.981949,414.428497 
	C164.184021,413.115356 169.594391,413.017273 174.447281,414.213837 
	C185.944611,417.048737 197.163147,421.011475 208.501221,424.496002 
	C216.161469,426.850250 223.797760,429.294708 231.517136,431.438293 
	C234.699051,432.321930 236.647369,433.875854 238.079391,436.963165 
	C244.226669,450.216125 250.642105,463.345245 257.019562,476.490509 
	C258.385345,479.305634 260.000000,482.000000 261.500000,484.750000 
"/>
<path fill="none" opacity="1.000000" stroke="#000000" stroke-linecap="round" stroke-linejoin="round" stroke-width="6.000000"
	d="
M368.000000,654.000000 
	C367.633362,658.614319 364.149017,661.332764 361.468628,664.473206 
	C356.410583,670.399292 351.140320,676.143616 346.006317,682.005493 
	C338.582153,690.482239 328.768158,693.930420 317.995178,694.386230 
	C306.182983,694.885986 294.310760,694.952454 282.506836,694.363342 
	C272.216003,693.849731 262.612457,691.037781 255.438980,682.551575 
	C248.893448,674.808289 241.867676,667.468201 234.974655,660.023499 
	C233.348221,658.266846 232.221878,656.463074 232.500000,654.000000 
"/>
<path fill="none" opacity="1.000000" stroke="#000000" stroke-linecap="round" stroke-linejoin="round" stroke-width="9.000000"
	d="
M105.500000,495.500000 
	C102.667595,496.744232 101.718353,499.609406 101.116844,502.029053 
	C97.409393,516.942566 95.383247,532.029846 96.437836,547.504211 
	C98.054680,571.228821 102.646057,594.525024 105.973015,618.003845 
	C106.647545,622.764099 108.333290,628.251343 111.328194,630.577454 
	C115.290901,633.655273 118.867996,637.888184 124.000000,639.500000 
"/>
<path fill="none" opacity="1.000000" stroke="#000000" stroke-linecap="round" stroke-linejoin="round" stroke-width="5.000000"
	d="
M569.000000,369.500000 
	C575.229004,375.846466 575.444214,379.233276 569.475464,385.476532 
	C558.561646,396.892242 547.512024,408.178375 536.495850,419.495941 
	C528.850647,427.350250 521.169800,435.169678 513.497742,442.997772 
	C511.622284,444.911407 509.798798,446.913055 507.000000,447.500000 
"/>
<path fill="none" opacity="1.000000" stroke="#000000" stroke-linecap="round" stroke-linejoin="round" stroke-width="6.000000"
	d="
M136.500000,242.500000 
	C139.395966,243.979797 141.344116,243.115219 144.134949,241.196259 
	C150.768234,236.635300 158.395432,233.481018 166.058334,231.195587 
	C174.855621,228.571838 183.664261,225.580475 192.996796,224.952362 
	C198.873367,224.556839 204.724869,223.860138 210.519562,222.589157 
	C213.662933,221.899704 217.069748,222.981354 218.914490,225.561142 
	C226.657150,236.388962 235.505127,246.470291 241.506104,258.496948 
	C246.224258,267.952698 248.730881,277.968842 247.838776,288.486328 
	C247.492386,292.570038 245.369675,296.512634 243.984482,300.494598 
	C243.304657,302.448883 243.715729,303.374451 245.322159,305.160004 
	C250.791046,311.238678 255.507812,317.994019 260.573853,324.571686 
	C265.892151,323.480347 269.774353,318.685883 275.500000,318.500000 
"/>
<path fill="none" opacity="1.000000" stroke="#000000" stroke-linecap="round" stroke-linejoin="round" stroke-width="6.000000"
	d="
M387.000000,222.000000 
	C385.013336,222.193329 383.100769,222.977768 382.052673,224.535431 
	C373.510162,237.230759 362.920288,248.592285 356.983582,262.993225 
	C354.788544,268.317871 352.170074,273.842010 352.694580,279.481903 
	C353.778778,291.141418 345.636749,297.010742 339.000000,304.000000 
"/>
<path fill="none" opacity="1.000000" stroke="#000000" stroke-linecap="round" stroke-linejoin="round" stroke-width="10.000000"
	d="
M396.500000,666.000000 
	C396.166687,665.833313 395.822784,665.684692 395.501587,665.497253 
	C391.713593,663.285767 387.300659,664.956177 383.559204,663.807251 
	C378.593109,662.282104 376.703033,656.066589 371.931335,654.173035 
	C368.771057,652.918945 365.114716,652.441589 361.499786,652.459961 
	C344.000244,652.548828 326.500000,652.500000 309.000000,652.500000 
	C286.166656,652.500000 263.332977,652.572693 240.500198,652.459045 
	C232.917511,652.421265 226.095520,653.196228 221.367767,660.413391 
	C219.192642,663.733887 215.528412,665.405334 210.971146,664.100830 
	C208.112213,663.282349 205.389862,664.780884 203.000000,666.500000 
"/>
<path fill="none" opacity="1.000000" stroke="#000000" stroke-linecap="round" stroke-linejoin="round" stroke-width="9.000000"
	d="
M440.000000,574.500000 
	C447.472504,581.057190 455.089294,587.317017 460.629669,595.916443 
	C467.702881,606.895142 471.697021,618.784790 473.360016,631.518311 
	C473.751587,634.516479 475.073639,636.670532 476.500000,639.000000 
"/>
<path fill="none" opacity="1.000000" stroke="#000000" stroke-linecap="round" stroke-linejoin="round" stroke-width="6.000000"
	d="
M353.500000,754.500000 
	C354.838898,761.690979 352.457703,768.607971 351.250732,775.456055 
	C349.721497,784.132568 348.275238,792.853210 346.545197,801.509033 
	C345.260864,807.934753 343.716187,814.356750 344.000000,821.000000 
"/>
<path fill="none" opacity="1.000000" stroke="#000000" stroke-linecap="round" stroke-linejoin="round" stroke-width="9.000000"
	d="
M160.500000,575.000000 
	C140.224182,588.859619 129.651245,608.371216 126.992889,632.499207 
	C126.882027,633.505371 127.006905,634.789490 126.443344,635.451782 
	C123.378944,639.053284 124.609802,642.767578 126.590118,645.943787 
	C130.613831,652.397400 135.204849,658.493591 140.535172,663.965759 
	C141.107498,664.553284 142.166672,664.666687 143.000000,665.000000 
"/>
<path fill="none" opacity="1.000000" stroke="#000000" stroke-linecap="round" stroke-linejoin="round" stroke-width="6.000000"
	d="
M246.500000,754.500000 
	C246.082748,762.677185 248.336090,770.561462 249.719742,778.461487 
	C251.239700,787.139832 252.816605,795.837097 254.449799,804.509460 
	C255.473984,809.948059 257.045563,815.353088 256.500000,821.000000 
"/>
<path fill="none" opacity="1.000000" stroke="#000000" stroke-linecap="round" stroke-linejoin="round" stroke-width="9.000000"
	d="
M421.000000,602.500000 
	C432.620728,612.448181 441.687988,624.291321 447.478302,638.508850 
	C449.987335,644.669556 451.934631,651.023865 453.539307,657.490234 
	C454.204895,660.172302 454.340851,663.196472 457.000000,665.000000 
"/>
<path fill="none" opacity="1.000000" stroke="#000000" stroke-linecap="round" stroke-linejoin="round" stroke-width="7.000000"
	d="
M412.500000,336.500000 
	C419.827271,340.821381 428.303070,342.115784 436.093140,345.269989 
	C439.425995,346.619537 440.012268,347.994934 440.050690,350.999359 
	C440.165833,359.999512 439.440704,369.016174 440.497650,378.000275 
	C440.786377,380.454407 439.863983,382.547882 438.500000,384.500000 
"/>
<path fill="none" opacity="1.000000" stroke="#000000" stroke-linecap="round" stroke-linejoin="round" stroke-width="6.000000"
	d="
M188.000015,337.000031 
	C180.000015,339.833344 172.088791,342.971649 163.953354,345.339752 
	C160.980896,346.204956 160.439529,347.391205 160.464722,350.000336 
	C160.554794,359.332825 160.540649,368.666962 160.471405,377.999786 
	C160.454102,380.331421 161.109024,382.423553 162.000000,384.500000 
"/>
<path fill="none" opacity="1.000000" stroke="#000000" stroke-linecap="round" stroke-linejoin="round" stroke-width="6.000000"
	d="
M547.000000,458.500000 
	C546.864807,465.876648 547.543945,473.218719 548.637268,480.479340 
	C549.022827,483.039581 548.098450,484.579041 546.445007,485.387604 
	C544.164368,486.502808 541.536499,487.126984 538.992920,487.443115 
	C532.243774,488.282074 532.130432,487.686676 528.391235,481.566467 
	C525.105347,476.188293 524.020508,469.670654 519.500000,465.000000 
"/>
<path fill="none" opacity="1.000000" stroke="#000000" stroke-linecap="round" stroke-linejoin="round" stroke-width="6.000000"
	d="
M537.000000,339.500000 
	C536.901917,347.949921 532.569214,355.101257 529.346436,362.432495 
	C522.972900,376.931213 514.730835,390.446228 505.000000,403.000000 
"/>
<path fill="none" opacity="1.000000" stroke="#000000" stroke-linecap="round" stroke-linejoin="round" stroke-width="9.000000"
	d="
M179.500000,603.000000 
	C165.955185,612.976379 157.735046,626.749146 151.462891,641.984741 
	C148.408966,649.403015 147.816696,657.624573 143.916412,664.703979 
	C143.054626,666.268127 143.709320,667.766907 144.125381,668.420105 
	C148.339157,675.034973 152.087631,682.093628 159.000000,686.500000 
"/>
<path fill="none" opacity="1.000000" stroke="#000000" stroke-linecap="round" stroke-linejoin="round" stroke-width="4.000000"
	d="
M429.500000,231.000000 
	C428.398682,233.094772 428.362671,235.167862 428.943756,237.513931 
	C431.247192,246.813385 433.378632,256.156647 435.449188,265.511261 
	C435.745819,266.851471 435.359344,268.342865 435.281067,269.925171 
	C428.499725,270.409821 422.346924,268.134399 416.014099,267.381439 
	C414.254944,267.172302 412.666656,267.159210 411.000000,267.500000 
"/>
<path fill="none" opacity="1.000000" stroke="#000000" stroke-linecap="round" stroke-linejoin="round" stroke-width="6.000000"
	d="
M600.000000,413.500000 
	C593.329163,413.500000 586.658386,413.500000 579.911194,413.500000 
	C578.612122,421.357788 581.086792,428.356445 582.001526,435.499817 
	C582.908264,442.580627 585.854126,449.273834 586.000000,456.500000 
"/>
<path fill="none" opacity="1.000000" stroke="#000000" stroke-linecap="round" stroke-linejoin="round" stroke-width="5.000000"
	d="
M63.500000,340.500000 
	C62.846786,346.001587 66.238907,350.288391 68.085907,354.966064 
	C74.955093,372.362915 83.827919,388.655945 96.000000,403.000000 
"/>
<path fill="none" opacity="1.000000" stroke="#000000" stroke-linecap="round" stroke-linejoin="round" stroke-width="9.000000"
	d="
M388.500000,737.500000 
	C389.612274,740.734009 389.050476,743.651978 388.213409,747.052551 
	C385.313477,758.833191 379.840363,769.608704 375.962097,780.987061 
	C372.135773,792.212891 368.026001,803.342773 363.977386,814.491821 
	C363.191559,816.655762 363.666504,818.833313 363.500000,821.000000 
"/>
<path fill="none" opacity="1.000000" stroke="#000000" stroke-linecap="round" stroke-linejoin="round" stroke-width="3.000000"
	d="
M406.500000,627.500000 
	C409.093170,618.614075 403.077209,612.979858 398.440948,607.046143 
	C389.587067,595.714600 378.983582,586.258362 366.504852,578.991638 
	C365.468201,578.387939 364.466339,577.711609 363.506012,576.991943 
	C359.989349,574.356567 356.400726,574.418396 353.519073,577.517700 
	C342.197968,589.693970 328.416229,597.194275 312.004883,600.028259 
	C294.936890,602.975647 279.023499,599.633728 264.028778,591.447266 
	C258.379028,588.362793 253.438431,584.242432 248.963394,579.534790 
	C244.139069,574.459717 240.926819,574.276428 235.489746,577.984985 
	C231.709778,580.563232 227.786957,582.932129 224.008606,585.512573 
	C212.167435,593.599670 203.803452,604.997742 194.915131,615.931030 
	C192.984802,618.305420 193.782608,620.628784 193.529434,623.003113 
	C193.371277,624.486267 193.500000,626.000000 193.500000,627.500000 
"/>
<path fill="none" opacity="1.000000" stroke="#000000" stroke-linecap="round" stroke-linejoin="round" stroke-width="9.000000"
	d="
M168.500000,680.000000 
	C176.343536,687.019287 181.653046,696.144897 188.422791,704.065979 
	C194.131256,710.745422 199.318008,717.891663 204.438187,725.044250 
	C207.121979,728.793396 209.045059,733.079468 211.574677,736.951233 
	C212.325806,738.100891 211.528214,738.667175 211.497574,739.499939 
	C211.385376,742.550293 211.477859,745.537903 212.472321,748.509277 
	C219.669098,770.012756 228.276627,791.005798 235.600189,812.465820 
	C236.596024,815.383850 236.253815,818.156433 236.500000,821.000000 
"/>
<path fill="none" opacity="1.000000" stroke="#000000" stroke-linecap="round" stroke-linejoin="round" stroke-width="9.000000"
	d="
M432.750000,679.500000 
	C425.419434,684.293030 421.677155,692.253601 416.126373,698.610352 
	C409.103149,706.653442 403.001587,715.501221 396.497589,723.998169 
	C395.849091,724.845398 394.920959,725.568054 394.540314,726.516174 
	C392.272491,732.165466 389.155945,736.514282 383.096283,739.215942 
	C376.956329,741.953491 371.927460,746.895508 365.533417,749.579590 
	C357.475067,752.962158 349.245636,755.011047 340.500000,755.005615 
	C315.000000,754.989868 289.497437,754.780579 264.000916,755.077942 
	C247.272614,755.273010 232.408707,750.787415 219.450989,740.059204 
	C217.575714,738.506592 215.178223,737.367615 212.500000,737.500000 
"/>
<path fill="none" opacity="1.000000" stroke="#000000" stroke-linecap="round" stroke-linejoin="round" stroke-width="9.000000"
	d="
M511.000000,470.500000 
	C507.134094,472.128113 503.943665,473.972717 503.295258,478.973450 
	C502.951630,481.623383 500.719330,484.171967 498.934326,486.448517 
	C497.351074,488.467743 496.085907,490.520020 495.498749,492.999695 
	C495.340424,493.668335 495.392822,494.647064 494.966919,494.954102 
	C484.275757,502.661438 479.505005,514.891785 472.097809,525.071167 
	C461.874481,539.120728 452.056854,553.487244 442.596313,568.062500 
	C436.191406,577.930176 428.142059,586.725586 422.726898,597.118225 
	C419.633759,603.054565 414.415405,607.151917 411.505096,613.002502 
	C410.535065,614.952576 408.802704,616.007202 407.000000,617.000000 
"/>
<path fill="none" opacity="1.000000" stroke="#000000" stroke-linecap="round" stroke-linejoin="round" stroke-width="10.000000"
	d="
M461.000000,709.000000 
	C462.308319,711.544800 462.567261,714.079590 462.098511,717.015747 
	C460.962128,724.134033 460.366119,731.337341 459.483765,738.497986 
	C459.132965,741.344849 458.823029,744.320435 455.988831,745.980957 
	C453.354706,747.524292 453.386871,749.951599 453.491150,752.500366 
	C453.695679,757.498901 453.062317,762.525696 454.000000,767.500000 
"/>
<path fill="none" opacity="1.000000" stroke="#000000" stroke-linecap="round" stroke-linejoin="round" stroke-width="9.000000"
	d="
M139.000000,709.000000 
	C136.535507,712.904236 138.285080,717.049133 138.624359,720.989319 
	C139.084137,726.329041 140.135315,731.619812 140.578735,736.993530 
	C140.852448,740.310608 141.122192,743.876709 144.489395,746.016663 
	C146.496552,747.292358 146.635468,749.360291 146.506836,751.500427 
	C146.186630,756.828308 147.101807,762.195862 146.000000,767.500000 
"/>
<path fill="none" opacity="1.000000" stroke="#000000" stroke-linecap="round" stroke-linejoin="round" stroke-width="5.000000"
	d="
M300.000000,140.500000 
	C300.000000,160.000000 300.000000,179.500000 300.000000,199.000000 
"/>
<path fill="none" opacity="1.000000" stroke="#000000" stroke-linecap="round" stroke-linejoin="round" stroke-width="9.000000"
	d="
M483.000000,821.000000 
	C483.686188,815.161804 481.075348,810.132385 478.979004,805.008606 
	C475.079620,795.477844 470.867126,786.102905 466.131104,776.932312 
	C463.489319,771.816772 459.454926,769.308960 454.217102,767.559753 
	C448.439240,772.409912 443.574524,778.610168 437.037964,783.055847 
	C424.889404,791.318176 411.763458,797.834778 398.990417,804.982910 
	C395.219055,807.093567 391.232666,808.831726 387.528351,811.047424 
	C383.835388,813.256470 381.937469,816.867676 381.000000,821.000000 
"/>
<path fill="none" opacity="1.000000" stroke="#000000" stroke-linecap="round" stroke-linejoin="round" stroke-width="6.000000"
	d="
M5.500000,413.500000 
	C10.674053,413.923676 16.023361,412.536377 21.042110,414.499695 
	C20.024258,427.378754 18.506235,439.652588 14.568126,451.522614 
	C14.069999,453.023987 14.500000,454.833344 14.500000,456.500000 
"/>
<path fill="none" opacity="1.000000" stroke="#000000" stroke-linecap="round" stroke-linejoin="round" stroke-width="6.000000"
	d="
M8.000000,302.000000 
	C10.236011,305.464722 14.142392,305.876404 17.518526,306.374420 
	C28.802998,308.038971 40.218063,308.850708 51.470539,310.681122 
	C55.128155,311.276123 59.095203,310.578033 62.484112,312.527618 
	C65.099434,314.032135 66.432762,311.231049 68.500000,311.000000 
"/>
<path fill="none" opacity="1.000000" stroke="#000000" stroke-linecap="round" stroke-linejoin="round" stroke-width="6.000000"
	d="
M578.500000,458.500000 
	C578.943909,469.259979 582.713318,479.277893 585.576721,489.478455 
	C586.782715,493.774445 588.873108,497.817993 590.489136,502.004211 
	C592.188354,506.405823 595.114807,509.176849 600.000000,509.500000 
"/>
<path fill="none" opacity="1.000000" stroke="#000000" stroke-linecap="round" stroke-linejoin="round" stroke-width="6.000000"
	d="
M468.000000,784.000000 
	C462.744019,787.506653 459.308136,792.986267 454.042419,796.562439 
	C445.569153,802.317017 436.203644,806.238281 426.980469,810.457336 
	C422.203461,812.642517 417.876678,814.975708 417.500000,821.000000 
"/>
<path fill="none" opacity="1.000000" stroke="#000000" stroke-linecap="round" stroke-linejoin="round" stroke-width="9.000000"
	d="
M571.000000,616.000000 
	C569.333313,617.500000 567.433472,618.813354 566.051025,620.540833 
	C563.571655,623.639038 562.468384,627.165283 564.510193,630.994568 
	C566.972778,635.612915 567.727478,641.243652 572.486755,644.519226 
	C572.755554,644.704224 573.023071,645.199219 572.972351,645.495239 
	C571.630737,653.322815 576.732300,659.278564 579.131775,665.952637 
	C581.901062,673.655151 584.853455,681.363525 589.005798,688.496643 
	C591.490051,692.764160 594.536743,696.303589 600.000000,696.500000 
"/>
<path fill="none" opacity="1.000000" stroke="#000000" stroke-linecap="round" stroke-linejoin="round" stroke-width="6.000000"
	d="
M132.000000,784.000000 
	C137.117279,786.586426 139.961761,791.714661 144.459015,795.055176 
	C153.556900,801.812805 164.051605,805.904968 174.066666,810.865417 
	C178.674561,813.147705 181.910767,815.759155 182.500000,821.000000 
"/>
<path fill="none" opacity="1.000000" stroke="#000000" stroke-linecap="round" stroke-linejoin="round" stroke-width="9.000000"
	d="
M600.000000,560.500000 
	C596.725281,560.315796 593.550415,560.627380 590.494019,561.986633 
	C579.043213,567.079163 568.563232,564.046265 558.509033,557.984985 
	C554.599731,555.628296 551.289978,551.858398 546.000000,553.000000 
"/>
<path fill="none" opacity="1.000000" stroke="#000000" stroke-linecap="round" stroke-linejoin="round" stroke-width="4.000000"
	d="
M428.000000,734.000000 
	C430.780518,742.113342 428.227814,750.337036 428.366760,758.502258 
	C428.494202,765.991577 427.522430,773.501587 426.987793,780.999146 
	C426.802856,783.592529 427.820892,785.658630 429.500000,787.500000 
"/>
<path fill="none" opacity="1.000000" stroke="#000000" stroke-linecap="round" stroke-linejoin="round" stroke-width="4.000000"
	d="
M172.500000,734.000000 
	C169.176880,740.346680 171.753326,747.030457 171.694092,753.501770 
	C171.607193,762.994873 172.800873,772.502502 173.528732,781.997803 
	C173.666306,783.792542 172.273544,784.924500 172.000000,786.500000 
"/>
<path fill="none" opacity="1.000000" stroke="#000000" stroke-linecap="round" stroke-linejoin="round" stroke-width="5.000000"
	d="
M300.000000,29.500000 
	C300.000000,46.500000 300.000000,63.500000 300.000000,80.500000 
"/>
<path fill="none" opacity="1.000000" stroke="#000000" stroke-linecap="round" stroke-linejoin="round" stroke-width="5.000000"
	d="
M300.000000,602.500000 
	C300.000000,619.000000 300.000000,635.500000 300.000000,652.000000 
"/>
<path fill="none" opacity="1.000000" stroke="#000000" stroke-linecap="round" stroke-linejoin="round" stroke-width="6.000000"
	d="
M21.500000,458.500000 
	C21.353838,470.976746 17.146463,482.490936 12.958824,493.984985 
	C11.410768,498.234009 11.075767,503.335968 6.000000,505.500000 
"/>
<path fill="none" opacity="1.000000" stroke="#000000" stroke-linecap="round" stroke-linejoin="round" stroke-width="5.000000"
	d="
M356.500000,305.000000 
	C353.699707,305.960266 352.119324,308.226227 350.485779,310.489746 
	C347.072235,315.219757 343.579132,319.892395 340.109558,324.600952 
	C334.216309,322.639374 329.494659,318.318726 323.016846,317.792511 
	C320.579590,317.594513 318.347443,318.161957 315.997620,318.111603 
	C304.502899,317.865356 292.999908,317.978119 281.500092,318.022369 
	C279.666138,318.029449 277.833344,318.333344 276.000000,318.500000 
"/>
<path fill="none" opacity="1.000000" stroke="#000000" stroke-linecap="round" stroke-linejoin="round" stroke-width="6.000000"
	d="
M501.500000,404.500000 
	C494.999451,417.307770 490.503632,430.975037 484.633667,444.059967 
	C483.242584,447.160797 481.622406,450.061218 480.000000,453.000000 
"/>
<path fill="none" opacity="1.000000" stroke="#000000" stroke-linecap="round" stroke-linejoin="round" stroke-width="9.000000"
	d="
M54.000000,553.000000 
	C49.708557,552.255798 46.644844,554.764099 43.504841,557.006775 
	C36.017185,562.354736 27.664267,564.624268 18.499578,564.562317 
	C14.168475,564.533020 10.749567,561.501709 6.500000,561.500000 
"/>
<path fill="none" opacity="1.000000" stroke="#000000" stroke-linecap="round" stroke-linejoin="round" stroke-width="10.000000"
	d="
M61.000000,338.500000 
	C51.405998,340.220276 41.627495,339.137787 31.993399,340.451599 
	C26.116816,341.252960 20.142672,340.829346 14.424596,343.327393 
	C12.045337,344.366791 8.833333,343.500000 6.000000,343.500000 
"/>
<path fill="none" opacity="1.000000" stroke="#000000" stroke-linecap="round" stroke-linejoin="round" stroke-width="10.000000"
	d="
M513.000000,338.500000 
	C521.995056,338.066162 531.188843,337.568390 539.961365,338.405182 
	C553.631653,339.709198 567.566284,338.781738 580.930420,341.807373 
	C587.395508,343.271118 593.621338,343.264008 600.000000,343.500000 
"/>
<path fill="none" opacity="1.000000" stroke="#000000" stroke-linecap="round" stroke-linejoin="round" stroke-width="6.000000"
	d="
M207.000000,303.500000 
	C203.783356,303.868988 201.324341,302.480804 199.519913,299.985596 
	C195.931259,295.023163 191.007584,291.482941 186.491364,287.509827 
	C183.202271,284.616241 179.646942,287.242432 176.533157,287.717407 
	C164.783936,289.509491 153.242218,292.936401 141.460037,294.092896 
	C137.192810,294.511749 134.140930,296.630463 130.605865,297.815735 
	C127.867264,298.733917 125.324509,299.464691 122.500000,299.500000 
"/>
<path fill="none" opacity="1.000000" stroke="#000000" stroke-linecap="round" stroke-linejoin="round" stroke-width="9.000000"
	d="
M105.500000,398.000000 
	C108.905624,399.950256 111.138168,402.819733 112.522659,406.491455 
	C115.110497,413.354523 117.740799,420.205200 120.561020,426.974579 
	C121.325241,428.808899 122.573776,430.620300 124.044678,431.950623 
	C130.618301,437.895966 130.020233,446.714081 123.070839,452.091553 
	C118.528664,455.606262 114.758553,460.101715 110.474457,463.971710 
	C106.089745,467.932678 101.500000,471.666656 97.000000,475.500000 
"/>
<path fill="none" opacity="1.000000" stroke="#000000" stroke-linecap="round" stroke-linejoin="round" stroke-width="6.000000"
	d="
M414.500000,286.500000 
	C421.666656,287.666656 428.812103,288.991364 436.005554,289.958679 
	C444.376648,291.084381 452.474945,293.808075 460.999084,294.034088 
	C464.342926,294.122742 466.916077,296.579926 469.889496,297.774933 
	C472.540619,298.840393 474.802948,299.485199 477.500000,299.000000 
"/>
<path fill="none" opacity="1.000000" stroke="#000000" stroke-linecap="round" stroke-linejoin="round" stroke-width="6.000000"
	d="
M99.000000,405.000000 
	C105.414543,417.527252 109.979950,430.841919 115.512436,443.744659 
	C116.693901,446.500000 117.711960,449.374237 120.000000,451.500000 
"/>
<path fill="none" opacity="1.000000" stroke="#000000" stroke-linecap="round" stroke-linejoin="round" stroke-width="3.000000"
	d="
M348.000000,475.000000 
	C360.133881,485.125244 367.232910,497.940247 370.713684,513.452026 
	C373.699951,526.760193 372.814697,539.385681 368.419647,551.971924 
	C367.496552,554.615540 367.581146,556.756104 369.000000,559.000000 
"/>
<path fill="none" opacity="1.000000" stroke="#000000" stroke-linecap="round" stroke-linejoin="round" stroke-width="4.000000"
	d="
M133.500000,604.000000 
	C130.988815,603.328491 129.443436,601.551392 127.974373,599.518494 
	C121.199158,590.143188 114.433167,580.757446 107.433464,571.550598 
	C105.560471,569.086975 103.456703,566.206604 99.500000,567.000000 
"/>
<path fill="none" opacity="1.000000" stroke="#000000" stroke-linecap="round" stroke-linejoin="round" stroke-width="4.000000"
	d="
M500.500000,567.000000 
	C497.575928,566.760071 495.683167,568.080017 493.945251,570.460022 
	C486.574341,580.554321 478.957184,590.468506 471.549225,600.536255 
	C470.520172,601.934814 469.661346,603.328003 468.000000,604.000000 
"/>
<path fill="none" opacity="1.000000" stroke="#000000" stroke-linecap="round" stroke-linejoin="round" stroke-width="6.000000"
	d="
M199.500000,225.500000 
	C200.344711,232.047195 197.279709,237.859451 195.961166,243.991653 
	C193.349731,256.136688 190.208801,268.167358 188.450119,280.492889 
	C188.133850,282.709534 187.166656,284.833344 186.499985,287.000000 
"/>
<path fill="none" opacity="1.000000" stroke="#000000" stroke-linecap="round" stroke-linejoin="round" stroke-width="6.000000"
	d="
M401.000000,225.500000 
	C400.024200,232.699127 403.042023,239.304535 404.730408,245.941391 
	C407.768799,257.885010 409.851105,270.003204 412.707672,281.950348 
	C413.851776,286.735260 412.452728,288.965973 409.066254,291.585632 
	C405.922424,294.017609 403.016083,296.923615 400.600372,300.076904 
	C398.667480,302.599915 396.410431,303.676575 393.500000,304.000000 
"/>
<path fill="none" opacity="1.000000" stroke="#000000" stroke-linecap="round" stroke-linejoin="round" stroke-width="6.000000"
	d="
M82.000000,464.000000 
	C79.404091,465.178070 78.614281,467.735596 77.520477,470.009857 
	C75.613594,473.974487 74.020615,478.101654 71.926208,481.959961 
	C70.763885,484.101166 70.941360,487.525757 67.000328,487.550995 
	C61.579906,487.585663 56.330139,487.255341 52.022182,483.474731 
	C50.818676,482.418579 51.254768,480.673462 51.584209,479.524139 
	C53.564259,472.616760 53.543766,465.567657 53.500000,458.500000 
"/>
<path fill="none" opacity="1.000000" stroke="#000000" stroke-linecap="round" stroke-linejoin="round" stroke-width="3.000000"
	d="
M251.500000,475.000000 
	C240.108398,485.906372 231.993439,498.631622 229.450882,514.492126 
	C229.334152,515.220276 228.500000,515.833313 228.000000,516.500000 
"/>
<path fill="none" opacity="1.000000" stroke="#000000" stroke-linecap="round" stroke-linejoin="round" stroke-width="6.000000"
	d="
M495.500000,398.500000 
	C491.864136,399.784302 489.774872,402.303070 488.422241,405.971313 
	C485.682770,413.400726 482.459839,420.650604 479.520111,428.008026 
	C478.379059,430.863770 476.024261,432.238586 473.500000,433.500000 
"/>
<path fill="none" opacity="1.000000" stroke="#000000" stroke-linecap="round" stroke-linejoin="round" stroke-width="9.000000"
	d="
M389.000031,223.500000 
	C388.000031,228.666672 387.187225,233.878387 385.957153,238.989685 
	C383.999969,247.122147 384.810577,255.311996 385.000000,263.500000 
"/>
<path fill="none" opacity="1.000000" stroke="#000000" stroke-linecap="round" stroke-linejoin="round" stroke-width="4.000000"
	d="
M170.500000,231.000000 
	C171.869324,233.419830 171.715576,235.817978 171.071503,238.517059 
	C168.592728,248.904556 165.082397,259.114136 165.194107,270.000580 
	C165.202621,270.829559 164.416656,271.666656 164.000000,272.500000 
"/>
<path fill="none" opacity="1.000000" stroke="#000000" stroke-linecap="round" stroke-linejoin="round" stroke-width="6.000000"
	d="
M461.500000,256.000000 
	C457.505249,262.401855 460.910797,268.997223 461.025604,275.499542 
	C461.131683,281.507629 462.626404,287.446686 462.000000,293.500000 
"/>
<path fill="none" opacity="1.000000" stroke="#000000" stroke-linecap="round" stroke-linejoin="round" stroke-width="6.000000"
	d="
M139.000000,256.500000 
	C140.529648,258.242584 140.717712,260.270813 140.525299,262.502167 
	C139.634674,272.830597 138.833328,283.166656 138.000000,293.500000 
"/>
<path fill="none" opacity="1.000000" stroke="#000000" stroke-linecap="round" stroke-linejoin="round" stroke-width="4.000000"
	d="
M600.000000,581.000000 
	C594.587463,580.308777 589.482239,582.002441 584.543884,583.632935 
	C579.907715,585.163574 575.362610,586.214478 570.499329,586.017090 
	C568.062561,585.918152 565.564148,585.743835 563.500000,587.500000 
"/>
<path fill="none" opacity="1.000000" stroke="#000000" stroke-linecap="round" stroke-linejoin="round" stroke-width="4.000000"
	d="
M600.000000,590.000000 
	C594.752380,589.347473 589.688843,590.525024 585.047302,592.605469 
	C578.835632,595.389709 572.211792,593.243164 566.000000,595.000000 
"/>
<path fill="none" opacity="1.000000" stroke="#000000" stroke-linecap="round" stroke-linejoin="round" stroke-width="9.000000"
	d="
M187.500000,290.000000 
	C184.997574,296.268860 184.923599,302.932251 184.574188,309.503937 
	C184.347137,313.774719 183.783569,317.820892 181.297516,321.696289 
	C190.820236,335.778900 194.668732,353.131805 206.253922,366.994049 
	C208.677826,363.115692 210.588913,360.057831 212.500000,357.000000 
"/>
<path fill="none" opacity="1.000000" stroke="#000000" stroke-linecap="round" stroke-linejoin="round" stroke-width="3.000000"
	d="
M207.000000,366.500000 
	C209.827332,376.216125 212.312531,386.011139 214.067383,395.988159 
	C214.213303,396.817688 213.888306,398.333679 215.500000,398.500000 
"/>
<path fill="none" opacity="1.000000" stroke="#000000" stroke-linecap="round" stroke-linejoin="round" stroke-width="9.000000"
	d="
M412.500000,290.000000 
	C416.104675,292.956299 414.208160,297.398621 415.265594,301.067566 
	C416.577332,305.618896 416.326202,310.663208 416.430939,315.501495 
	C416.481354,317.831696 417.508636,319.608246 418.596741,321.520142 
	C412.723694,333.361786 406.788330,345.145508 401.062683,357.030182 
	C399.931061,359.379059 399.148926,362.005859 396.956146,363.432617 
	C393.747375,365.520477 392.659729,368.506592 391.965912,371.993225 
	C390.189972,380.917664 386.813599,389.457428 385.500000,398.500000 
"/>
<path fill="none" opacity="1.000000" stroke="#000000" stroke-linecap="round" stroke-linejoin="round" stroke-width="4.000000"
	d="
M37.000008,587.500000 
	C35.500008,587.000000 33.955994,585.967896 32.507259,586.087646 
	C24.046474,586.787476 16.298515,584.092529 8.491102,581.527100 
	C7.388700,581.164856 6.166664,581.166687 4.999997,581.000000 
"/>
<path fill="none" opacity="1.000000" stroke="#000000" stroke-linecap="round" stroke-linejoin="round" stroke-width="4.000000"
	d="
M600.000000,598.000000 
	C592.744141,596.691833 586.431824,600.793091 579.525513,601.695190 
	C575.659729,602.200195 571.663086,600.208618 568.000000,602.500000 
"/>
<path fill="none" opacity="1.000000" stroke="#000000" stroke-linecap="round" stroke-linejoin="round" stroke-width="5.000000"
	d="
M300.000000,352.500000 
	C300.000000,362.833344 300.000000,373.166656 300.000000,383.500000 
"/>
<path fill="none" opacity="1.000000" stroke="#000000" stroke-linecap="round" stroke-linejoin="round" stroke-width="4.000000"
	d="
M34.500000,594.500000 
	C24.304022,595.377319 14.703500,592.351135 5.000000,590.000000 
"/>
<path fill="none" opacity="1.000000" stroke="#000000" stroke-linecap="round" stroke-linejoin="round" stroke-width="4.000000"
	d="
M271.500000,86.500015 
	C276.500000,85.333344 281.493683,84.138741 286.501373,83.006142 
	C295.496490,80.971710 304.510742,80.940750 313.495941,83.017509 
	C318.851379,84.255318 324.166656,85.666664 329.500000,87.000000 
"/>
<path fill="none" opacity="1.000000" stroke="#000000" stroke-linecap="round" stroke-linejoin="round" stroke-width="4.000000"
	d="
M32.000000,602.500000 
	C29.687092,602.047363 27.533262,601.469299 24.978544,601.859558 
	C19.785654,602.652771 14.922599,600.400940 9.994514,599.019592 
	C8.362655,598.562073 6.666666,598.333313 4.999999,598.000000 
"/>
<path fill="none" opacity="1.000000" stroke="#000000" stroke-linecap="round" stroke-linejoin="round" stroke-width="9.000000"
	d="
M489.000000,631.000000 
	C487.833344,631.333313 486.125793,631.289917 485.588287,632.061523 
	C482.251648,636.851135 476.752106,639.182861 474.027222,645.289001 
	C470.876740,652.349060 465.748413,659.170532 458.984802,663.978638 
	C457.356842,665.135803 456.809784,666.828857 455.944855,668.470947 
	C452.299652,675.391724 447.983551,681.829346 441.500000,686.500000 
"/>
<path fill="none" opacity="1.000000" stroke="#000000" stroke-linecap="round" stroke-linejoin="round" stroke-width="9.000000"
	d="
M600.000000,648.500000 
	C592.777466,649.536072 585.823669,648.172119 579.017395,645.946838 
	C577.142273,645.333801 575.341248,645.579956 573.500000,645.500000 
"/>
<path fill="none" opacity="1.000000" stroke="#000000" stroke-linecap="round" stroke-linejoin="round" stroke-width="9.000000"
	d="
M393.500000,638.000000 
	C396.833344,640.666687 400.263855,643.221924 403.477173,646.026123 
	C408.276276,650.214233 411.835327,655.549072 416.846436,659.686035 
	C421.878174,663.839966 425.761566,669.422058 429.959991,674.532898 
	C432.065674,677.096130 433.540436,680.142883 436.485870,682.022156 
	C441.499756,685.221130 442.208588,690.120300 441.500000,695.500000 
"/>
<path fill="none" opacity="1.000000" stroke="#000000" stroke-linecap="round" stroke-linejoin="round" stroke-width="9.000000"
	d="
M207.000000,638.000000 
	C202.336502,641.276489 197.968384,644.930908 194.027313,649.026306 
	C185.770554,657.606262 177.129745,665.908325 169.766342,675.210815 
	C166.852905,678.891541 163.780533,682.234192 160.514297,685.514221 
	C157.931351,688.108093 158.229568,691.288269 159.000000,694.500000 
"/>
<path fill="none" opacity="1.000000" stroke="#000000" stroke-linecap="round" stroke-linejoin="round" stroke-width="9.000000"
	d="
M89.000000,410.500000 
	C90.627930,417.335419 92.484634,423.983002 96.367615,430.084259 
	C99.192970,434.523712 101.751556,437.830231 107.500000,435.500000 
"/>
<path fill="none" opacity="1.000000" stroke="#000000" stroke-linecap="round" stroke-linejoin="round" stroke-width="3.000000"
	d="
M531.500000,293.500000 
	C533.030273,296.373810 534.679077,299.067047 538.487671,296.481781 
	C540.022217,295.440125 541.556091,294.072632 540.925659,292.022858 
	C540.437378,290.435760 539.611267,289.111176 537.560608,288.339020 
	C535.101624,287.413208 534.329590,288.891815 532.981873,289.977509 
	C531.972290,290.790771 531.944336,291.972168 531.500000,293.000000 
"/>
<path fill="none" opacity="1.000000" stroke="#000000" stroke-linecap="round" stroke-linejoin="round" stroke-width="4.000000"
	d="
M250.000000,333.000000 
	C244.796021,337.898010 244.251984,345.120453 241.101593,351.053925 
	C240.061050,353.013733 239.707047,355.353516 238.000000,357.000000 
"/>
<path fill="none" opacity="1.000000" stroke="#000000" stroke-linecap="round" stroke-linejoin="round" stroke-width="3.000000"
	d="
M64.500000,297.500000 
	C69.628075,294.189545 69.786888,293.576721 67.544991,290.467560 
	C65.559761,287.714294 63.439331,287.044495 61.039825,289.538330 
	C58.816254,291.849274 58.563454,294.397614 61.517651,296.474884 
	C62.232105,296.977264 63.166668,297.166656 64.000000,297.500000 
"/>
<path fill="none" opacity="1.000000" stroke="#000000" stroke-linecap="round" stroke-linejoin="round" stroke-width="10.000000"
	d="
M64.000000,313.500000 
	C65.015709,317.169800 62.019451,319.991699 61.932724,323.498322 
	C61.829609,327.667633 60.081779,331.603668 60.843952,336.026886 
	C61.500175,339.835266 62.897514,339.740967 66.020256,339.098419 
	C73.099869,337.641754 80.336823,338.816620 87.500000,338.500000 
"/>
<path fill="none" opacity="1.000000" stroke="#000000" stroke-linecap="round" stroke-linejoin="round" stroke-width="3.000000"
	d="
M428.000000,647.000000 
	C430.958832,645.798340 433.194824,644.005188 431.409576,640.546692 
	C430.650085,639.075256 429.280334,637.492798 426.997009,637.986145 
	C424.980560,638.421875 423.537994,639.586731 423.050537,641.512817 
	C422.547943,643.498535 423.315826,645.282593 425.019409,646.472229 
	C425.736084,646.972656 426.666656,647.166687 427.500000,647.500000 
"/>
<path fill="none" opacity="1.000000" stroke="#000000" stroke-linecap="round" stroke-linejoin="round" stroke-width="4.000000"
	d="
M189.500000,267.500000 
	C182.604294,266.501038 176.167068,269.176819 169.509766,270.072632 
	C168.109238,270.261078 166.833328,270.687897 165.500000,270.000000 
"/>
<path fill="none" opacity="1.000000" stroke="#000000" stroke-linecap="round" stroke-linejoin="round" stroke-width="4.000000"
	d="
M350.000000,333.000000 
	C355.393921,337.180908 355.556305,344.059357 358.534576,349.481018 
	C359.795929,351.777222 359.873322,354.646667 362.000000,356.500000 
"/>
<path fill="none" opacity="1.000000" stroke="#000000" stroke-linecap="round" stroke-linejoin="round" stroke-width="5.000000"
	d="
M300.500000,405.000000 
	C299.631378,412.985382 300.125397,420.999146 300.000000,429.000000 
"/>
<path fill="none" opacity="1.000000" stroke="#000000" stroke-linecap="round" stroke-linejoin="round" stroke-width="9.000000"
	d="
M101.000008,437.000000 
	C95.666679,444.666687 90.333344,452.333344 85.000008,460.000000 
"/>
<path fill="none" opacity="1.000000" stroke="#000000" stroke-linecap="round" stroke-linejoin="round" stroke-width="6.000000"
	d="
M280.999969,404.500000 
	C279.166656,411.833313 277.333313,419.166656 275.499969,426.500000 
"/>
<path fill="none" opacity="1.000000" stroke="#000000" stroke-linecap="round" stroke-linejoin="round" stroke-width="6.000000"
	d="
M319.000000,404.500000 
	C321.529877,411.659210 323.437103,418.974060 324.500000,426.500000 
"/>
<path fill="none" opacity="1.000000" stroke="#000000" stroke-linecap="round" stroke-linejoin="round" stroke-width="5.000000"
	d="
M300.000000,472.500000 
	C300.000000,479.666656 300.000000,486.833344 300.000000,494.000000 
"/>
<path fill="none" opacity="1.000000" stroke="#000000" stroke-linecap="round" stroke-linejoin="round" stroke-width="9.000000"
	d="
M6.000000,648.500000 
	C10.480667,648.791016 14.883183,648.333252 18.979942,646.456238 
	C21.615000,645.249023 24.299776,645.564880 27.000000,645.500000 
"/>
<path fill="none" opacity="1.000000" stroke="#000000" stroke-linecap="round" stroke-linejoin="round" stroke-width="6.000000"
	d="
M217.000000,448.000000 
	C205.413956,445.515900 193.801575,443.177399 182.464996,439.611298 
	C180.038437,438.847961 177.166672,439.500000 174.500000,439.500000 
"/>
<path fill="none" opacity="1.000000" stroke="#000000" stroke-linecap="round" stroke-linejoin="round" stroke-width="5.000000"
	d="
M300.000000,563.500000 
	C300.000000,570.500000 300.000000,577.500000 300.000000,584.500000 
"/>
<path fill="none" opacity="1.000000" stroke="#000000" stroke-linecap="round" stroke-linejoin="round" stroke-width="9.000000"
	d="
M464.500000,397.000000 
	C464.737427,404.176788 463.202698,411.100372 461.500000,418.000000 
"/>
<path fill="none" opacity="1.000000" stroke="#000000" stroke-linecap="round" stroke-linejoin="round" stroke-width="6.000000"
	d="
M404.000000,619.000000 
	C398.721130,623.819946 395.185760,629.738464 393.018921,636.506042 
	C392.873718,636.959595 393.193420,637.819702 392.971985,637.953674 
	C385.624878,642.398682 384.630432,651.656555 378.500000,657.000000 
"/>
<path fill="none" opacity="1.000000" stroke="#000000" stroke-linecap="round" stroke-linejoin="round" stroke-width="6.000000"
	d="
M221.000000,656.000000 
	C217.261673,652.448730 215.879074,647.295959 212.510422,643.490784 
	C212.427704,643.397339 212.572205,643.083496 212.489700,643.011841 
	C206.777115,638.055359 205.837158,630.286865 201.562912,624.453918 
	C199.688126,621.895447 197.843109,619.490234 195.000000,618.000000 
"/>
<path fill="none" opacity="1.000000" stroke="#000000" stroke-linecap="round" stroke-linejoin="round" stroke-width="5.000000"
	d="
M300.000000,733.500000 
	C300.000000,740.333313 300.000000,747.166687 300.000000,754.000000 
"/>
<path fill="none" opacity="1.000000" stroke="#000000" stroke-linecap="round" stroke-linejoin="round" stroke-width="6.000000"
	d="
M388.000000,427.000000 
	C389.970306,432.316711 385.999725,436.599548 385.264038,441.464325 
	C384.991882,443.264099 384.610413,445.126129 384.500000,447.000000 
"/>
<path fill="none" opacity="1.000000" stroke="#000000" stroke-linecap="round" stroke-linejoin="round" stroke-width="6.000000"
	d="
M425.500000,440.000000 
	C419.990051,438.006317 415.154602,441.248810 410.001984,442.013458 
	C401.587616,443.262146 393.681641,447.019257 385.000519,447.078156 
	C383.996613,447.084961 383.000000,448.166687 382.000000,448.750000 
"/>
<path fill="none" opacity="1.000000" stroke="#000000" stroke-linecap="round" stroke-linejoin="round" stroke-width="6.000000"
	d="
M213.000000,427.000000 
	C211.332184,430.690582 213.169144,434.047607 214.000443,437.499908 
	C214.714264,440.464417 216.689667,443.218384 215.500000,446.500000 
"/>
<path fill="none" opacity="1.000000" stroke="#000000" stroke-linecap="round" stroke-linejoin="round" stroke-width="6.000000"
	d="
M235.500000,48.500000 
	C237.784851,52.358299 238.430527,56.613312 238.494110,61.000084 
	C238.528625,63.380333 238.266327,65.795288 239.500000,68.000000 
"/>
<path fill="none" opacity="1.000000" stroke="#000000" stroke-linecap="round" stroke-linejoin="round" stroke-width="6.000000"
	d="
M364.500000,48.500000 
	C361.096313,52.524010 363.157837,57.549278 362.101196,62.023895 
	C361.659271,63.895344 361.679962,65.852112 360.500000,67.500000 
"/>
<path fill="none" opacity="1.000000" stroke="#000000" stroke-linecap="round" stroke-linejoin="round" stroke-width="5.000000"
	d="
M300.000000,695.500000 
	C300.000000,701.833313 300.000000,708.166687 300.000000,714.500000 
"/>
<path fill="none" opacity="1.000000" stroke="#000000" stroke-linecap="round" stroke-linejoin="round" stroke-width="4.000000"
	d="
M331.000000,299.500000 
	C326.809448,305.508911 327.056732,312.954437 324.550110,319.519135 
	C323.576630,322.068634 322.683868,324.819641 322.607727,327.503052 
	C322.477844,332.079498 320.188538,333.506744 316.037933,334.639038 
	C304.926666,337.670319 293.949188,337.205444 283.020111,334.421021 
	C277.001678,332.887665 278.005463,326.830292 276.580750,322.473602 
	C276.164734,321.201385 276.280060,319.721649 275.500000,318.500000 
"/>
<path fill="none" opacity="1.000000" stroke="#000000" stroke-linecap="round" stroke-linejoin="round" stroke-width="6.000000"
	d="
M401.500000,401.000000 
	C403.824860,404.844635 407.825256,406.421204 411.470978,408.549713 
	C414.268494,410.182922 416.986359,412.096008 418.000000,415.500000 
"/>
<path fill="none" opacity="1.000000" stroke="#000000" stroke-linecap="round" stroke-linejoin="round" stroke-width="6.000000"
	d="
M198.000000,402.500000 
	C195.285339,405.717163 191.364578,407.225372 187.957993,409.435242 
	C185.520462,411.016479 183.304184,412.556610 182.500000,415.500000 
"/>
<path fill="none" opacity="1.000000" stroke="#000000" stroke-linecap="round" stroke-linejoin="round" stroke-width="4.000000"
	d="
M270.000000,300.000000 
	C273.215820,305.569672 273.683075,311.902832 275.000000,318.000000 
"/>
<path fill="none" opacity="1.000000" stroke="#000000" stroke-linecap="round" stroke-linejoin="round" stroke-width="3.000000"
	d="
M278.500000,332.000000 
	C273.218231,334.451172 267.505737,335.917877 262.500000,339.000000 
"/>
<path fill="none" opacity="1.000000" stroke="#000000" stroke-linecap="round" stroke-linejoin="round" stroke-width="6.000000"
	d="
M261.500000,304.500000 
	C257.960205,302.068604 256.165375,298.165497 253.540558,294.966736 
	C252.020111,293.113800 250.870804,290.962524 248.500000,290.000000 
"/>
<path fill="none" opacity="1.000000" stroke="#000000" stroke-linecap="round" stroke-linejoin="round" stroke-width="6.000000"
	d="
M352.500000,290.000000 
	C355.395844,293.098480 355.657074,297.231201 356.360504,301.025848 
	C356.892853,303.897919 357.730988,306.217834 360.000000,308.000000 
"/>
<path fill="none" opacity="1.000000" stroke="#000000" stroke-linecap="round" stroke-linejoin="round" stroke-width="3.000000"
	d="
M322.500000,332.000000 
	C327.241760,334.886719 333.052521,335.482727 337.500000,339.000000 
"/>
<path fill="none" opacity="1.000000" stroke="#000000" stroke-linecap="round" stroke-linejoin="round" stroke-width="6.000000"
	d="
M443.500000,539.500000 
	C446.256042,539.516296 445.755341,542.002991 446.478424,543.510376 
	C447.955139,546.588928 449.027069,549.938049 452.500000,551.500000 
"/>
<path fill="none" opacity="1.000000" stroke="#000000" stroke-linecap="round" stroke-linejoin="round" stroke-width="3.000000"
	d="
M457.500000,249.000000 
	C455.563110,249.752487 453.694336,250.777283 451.500000,250.500000 
"/>
<path fill="none" opacity="1.000000" stroke="#000000" stroke-linecap="round" stroke-linejoin="round" stroke-width="3.000000"
	d="
M424.000000,375.500000 
	C424.600952,377.284668 425.185852,379.072266 425.000000,381.000000 
"/>
<path fill="none" opacity="1.000000" stroke="#000000" stroke-linecap="round" stroke-linejoin="round" stroke-width="3.000000"
	d="
M53.000000,499.500000 
	C49.242336,502.465057 48.472103,504.757172 50.503120,506.997162 
	C51.859142,508.492706 53.852882,509.140564 55.439949,508.375458 
	C57.174931,507.538971 59.040321,506.061890 58.490177,503.502106 
	C57.919094,500.844940 56.396263,499.296326 53.500000,499.500000 
"/>
<path fill="none" opacity="1.000000" stroke="#000000" stroke-linecap="round" stroke-linejoin="round" stroke-width="3.000000"
	d="
M545.000000,499.500000 
	C542.754822,500.419556 541.813477,502.043579 541.966187,504.502106 
	C542.112427,506.855591 543.330017,508.153412 545.504822,508.466400 
	C547.864990,508.806030 549.361267,507.498413 550.531189,505.518433 
	C551.681030,503.572418 550.835144,502.211823 549.477600,501.025635 
	C548.379517,500.066101 547.174194,499.091064 545.500000,499.500000 
"/>
<path fill="none" opacity="1.000000" stroke="#000000" stroke-linecap="round" stroke-linejoin="round" stroke-width="3.000000"
	d="
M172.500000,638.000000 
	C169.649857,638.453247 168.227112,640.225403 168.566452,642.991821 
	C168.798294,644.881836 169.580490,646.753174 171.999664,647.003296 
	C174.024841,647.212646 175.780579,646.881104 177.012878,645.008484 
	C178.650009,642.520569 176.963501,639.526184 173.000000,638.000000 
"/>
</svg>