<svg version="1.1" id="Layer_1" xmlns="http://www.w3.org/2000/svg" xmlns:xlink="http://www.w3.org/1999/xlink" x="0px" y="0px"
	 width="100%" viewBox="0 0 980 980" enable-background="new 0 0 980 980" xml:space="preserve">
<path fill="none" opacity="1.000000" stroke="#000000" stroke-linecap="round" stroke-linejoin="round" stroke-width="8.000000"
	d="
M466.000000,233.000000 
	C464.333344,232.666656 462.360199,232.796387 461.047791,231.927795 
	C448.959900,223.927948 435.100067,220.339722 421.453094,216.674683 
	C403.539886,211.863922 385.094727,209.812546 366.502350,210.558640 
	C347.089783,211.337646 328.086792,214.557663 309.477448,220.428482 
	C278.516144,230.196060 250.950760,245.704605 225.913528,266.395355 
	C185.583496,299.724060 155.743622,340.828033 134.109573,388.050201 
	C121.790909,414.939056 112.104691,442.808716 106.405914,471.981628 
	C104.133331,483.615234 102.023369,495.233551 100.364357,506.980835 
	C97.642418,526.254578 96.852318,545.623779 96.650612,565.001587 
	C96.518845,577.659973 97.152504,590.414185 98.645401,602.982727 
	C101.523796,627.215759 106.279289,651.049988 113.291702,674.562134 
	C125.241745,714.629822 143.495010,751.073059 169.929199,783.557617 
	C193.572510,812.612671 221.823807,835.591309 256.033936,850.924316 
	C271.505890,857.858826 287.662170,862.680603 304.473053,865.652344 
	C322.806915,868.893311 341.091309,868.911011 359.499542,867.493958 
	C360.186371,867.441101 360.839355,867.647400 361.524994,867.027649 
	C366.980164,862.096924 372.592407,865.195374 377.980316,867.057007 
	C388.410004,870.660645 398.978455,873.270874 409.976807,874.680908 
	C417.860962,875.691650 425.719086,875.861328 433.489502,875.342834 
	C449.356079,874.284119 464.884735,871.239258 479.530640,864.567261 
	C482.346222,863.284668 484.743195,861.908630 486.000000,859.000000 
"/>
<path fill="none" opacity="1.000000" stroke="#000000" stroke-linecap="round" stroke-linejoin="round" stroke-width="8.000000"
	d="
M627.000000,866.000000 
	C629.845032,868.055481 633.034485,868.488220 636.498718,868.561096 
	C649.225891,868.828491 661.960388,868.544617 674.480286,866.385803 
	C690.432556,863.635132 706.039551,859.382935 721.005005,853.011719 
	C747.902283,841.560669 771.645264,825.643616 792.614563,805.117004 
	C817.463989,780.792236 836.633362,752.583069 851.313904,721.412354 
	C863.583313,695.360962 872.278442,667.944946 877.547302,639.508789 
	C881.593506,617.671631 883.907776,595.754944 884.916870,573.518921 
	C885.564392,559.251343 884.595886,545.133911 884.194946,531.008667 
	C883.738220,514.918274 881.132202,498.871704 878.009888,482.998047 
	C873.729431,461.237091 868.070251,439.865936 860.519653,418.992889 
	C848.643677,386.162720 832.799194,355.436127 812.523010,326.983582 
	C799.009033,308.019989 783.787537,290.582550 766.469727,275.033691 
	C752.470154,262.464111 737.429932,251.263016 721.003357,241.994019 
	C704.319946,232.580078 687.123230,224.466644 668.525330,219.407013 
	C657.950134,216.529999 647.420715,213.821091 636.513428,212.397247 
	C625.360962,210.941391 614.210022,210.144547 603.001526,210.543396 
	C586.188293,211.141708 569.665405,213.900375 553.517944,218.562164 
	C542.975647,221.605743 532.508911,225.030518 523.974426,232.470657 
	C523.335815,233.027359 522.333313,233.166672 521.500000,233.500015 
"/>
<path fill="none" opacity="1.000000" stroke="#000000" stroke-linecap="round" stroke-linejoin="round" stroke-width="8.000000"
	d="
M490.000000,859.000000 
	C491.321808,861.344849 493.191559,863.296448 495.524780,864.449890 
	C509.819946,871.516174 524.640137,877.337830 540.512695,879.402405 
	C565.422913,882.642578 589.646484,879.443542 613.008362,870.020691 
	C620.169373,867.132324 627.664124,865.562073 633.684204,859.688843 
	C639.853149,853.670288 647.767517,849.489258 654.454285,843.944824 
	C685.373230,818.308228 707.608521,786.108398 724.468384,749.985229 
	C733.640320,730.333801 740.777405,709.960205 746.665222,689.046509 
	C752.415222,668.622314 756.342285,647.880493 759.351868,626.978699 
	C762.041443,608.299072 762.766541,589.402954 762.517151,570.499756 
	C762.413818,562.667847 762.957703,554.800537 762.399414,547.007202 
	C761.406860,533.149902 760.690491,519.284851 758.682617,505.473450 
	C756.357117,489.477753 753.420715,473.655212 749.487610,458.003113 
	C741.322388,425.508636 729.591492,394.411011 712.472778,365.516144 
	C694.591858,335.334991 672.263550,309.189270 642.490479,290.014832 
	C625.191040,278.873657 606.297485,271.502686 585.978821,268.650726 
	C568.134644,266.146088 550.286011,267.016876 533.000000,273.000000 
"/>
<path fill="none" opacity="1.000000" stroke="#000000" stroke-linecap="round" stroke-linejoin="round" stroke-width="8.000000"
	d="
M453.500000,258.500000 
	C449.106506,256.728973 444.373840,256.985077 440.026947,257.670837 
	C431.160706,259.069550 422.240631,260.069946 413.462189,262.354736 
	C393.535248,267.541168 375.674133,276.705627 359.000427,288.500580 
	C346.590179,297.279510 335.230591,307.312347 325.061401,318.555542 
	C308.329468,337.054535 294.245300,357.411987 282.386444,379.438873 
	C269.061340,404.189117 258.816498,430.087067 251.036255,457.010468 
	C246.529053,472.607635 243.015579,488.426575 240.377899,504.479950 
	C238.166794,517.937012 236.647003,531.416931 235.326233,544.983093 
	C233.460098,564.150940 233.034668,583.329285 233.668625,602.494446 
	C234.154709,617.189148 235.521179,631.927307 237.640503,646.479553 
	C241.507492,673.031860 247.401535,699.180664 256.515533,724.494385 
	C267.920044,756.169800 283.015198,785.841736 304.499420,812.000488 
	C319.503723,830.269348 336.867035,845.783325 357.490143,857.517334 
	C360.496918,859.228149 363.679718,860.791626 365.500000,864.000000 
"/>
<path fill="none" opacity="1.000000" stroke="#000000" stroke-linecap="round" stroke-linejoin="round" stroke-width="8.000000"
	d="
M458.000000,301.500000 
	C449.706879,311.859711 444.911865,324.078735 439.444855,335.974640 
	C432.792633,350.449493 427.239105,365.328918 422.554749,380.516876 
	C416.116211,401.392731 410.634674,422.500916 406.302246,443.960083 
	C403.011749,460.258240 400.336609,476.641846 397.613251,493.018829 
	C395.995087,502.749390 395.576721,512.675232 394.481934,522.497986 
	C392.870239,536.958801 392.260956,551.481262 391.297455,565.986572 
	C389.768280,589.008667 390.632080,612.006470 390.731018,634.999023 
	C390.774597,645.122437 391.388275,655.392273 392.630768,665.483887 
	C394.191498,678.159912 395.399475,690.877319 397.355896,703.522278 
	C399.775085,719.158081 402.674225,734.657715 406.490845,750.002258 
	C411.845551,771.531006 418.892914,792.427124 429.505676,811.996887 
	C437.511169,826.758850 446.944427,840.370850 461.534363,849.444763 
	C467.317047,853.041138 473.323975,856.344177 480.496307,856.602478 
	C481.934753,856.654236 483.616638,856.800781 485.075378,857.899963 
	C486.005981,858.601074 487.856293,858.838867 488.970367,858.421021 
	C499.092072,854.624329 510.611725,855.013733 519.552490,847.562988 
	C529.051941,839.646790 536.586853,830.153564 542.411316,819.451721 
	C555.207703,795.939819 562.724365,770.436279 568.307434,744.458618 
	C571.523865,729.492615 573.975403,714.310425 575.614380,699.012268 
	C577.308594,683.197510 578.870056,667.417053 579.699768,651.510437 
	C580.665222,633.001465 581.270081,614.505493 580.865601,596.002930 
	C580.668762,587.000916 581.310974,577.933350 580.350403,569.016113 
	C579.040833,556.859558 579.404846,544.618591 577.621399,532.482178 
	C576.041992,521.734009 575.987000,510.760742 574.385071,500.017120 
	C572.018127,484.141907 569.795227,468.246643 566.671570,452.466034 
	C563.117920,434.513031 559.455078,416.616791 554.490723,399.002625 
	C546.759644,371.571777 538.167053,344.466278 524.022461,319.487305 
	C523.512756,318.587158 523.333313,317.500000 523.000000,316.500000 
"/>
<path fill="none" opacity="1.000000" stroke="#000000" stroke-linecap="round" stroke-linejoin="round" stroke-width="7.000000"
	d="
M528.000000,112.000000 
	C525.818726,114.091240 524.351990,116.592102 523.489075,119.496765 
	C519.847717,131.754120 511.835052,141.433990 504.483093,151.487640 
	C500.410706,157.056564 496.033813,162.405228 492.028168,168.020096 
	C484.125793,179.097107 481.126526,192.052246 477.903992,204.976059 
	C476.094635,212.232483 475.921265,220.262497 469.981079,225.980347 
	C467.942993,227.942184 466.630646,230.978912 466.775299,232.980103 
	C467.189209,238.706711 464.080444,242.853638 461.976990,247.489548 
	C461.116425,249.386154 460.327606,251.475754 458.941589,252.944885 
	C453.749481,258.448242 451.376251,265.549255 448.141663,272.070251 
	C443.136902,282.159882 445.363068,289.156372 452.513702,295.985657 
	C460.219299,303.344910 470.155579,306.184326 480.014526,308.948181 
	C492.543152,312.460449 505.258575,312.650269 517.997742,309.989075 
	C521.269348,309.305603 524.248962,307.740967 526.960327,305.940247 
	C534.158325,301.159821 536.350891,293.195679 534.624817,284.475281 
	C532.371948,273.094299 527.254089,262.681885 524.449646,251.512650 
	C522.995789,245.722137 519.188232,240.429031 521.000000,234.000000 
	C516.460266,228.154343 518.917053,221.362030 518.567566,214.996292 
	C517.720520,199.566895 525.249207,188.052170 536.518250,178.521576 
	C540.900940,174.815033 545.438660,171.301788 550.485718,168.474457 
	C556.311401,165.210922 559.552917,159.674957 562.461426,153.980301 
	C563.978088,151.010742 563.100647,147.801331 561.932495,145.028427 
	C555.946045,130.817642 548.046143,117.733093 537.970337,106.025513 
	C536.200928,103.969566 534.209595,100.991379 531.073853,102.640404 
	C528.501953,103.992859 528.259033,107.139359 528.494263,110.000473 
	C528.535095,110.497116 528.500000,111.000000 528.500000,111.500000 
"/>
<path fill="none" opacity="1.000000" stroke="#000000" stroke-linecap="round" stroke-linejoin="round" stroke-width="7.000000"
	d="
M365.000000,154.000000 
	C373.106659,161.772675 381.230408,169.511230 391.494965,174.510315 
	C399.735260,178.523499 408.771667,179.704422 417.486542,182.050034 
	C423.131226,183.569305 428.881195,184.985779 433.525055,188.970795 
	C434.982849,190.221786 436.113556,191.473938 436.000000,193.500000 
"/>
<path fill="none" opacity="1.000000" stroke="#000000" stroke-linecap="round" stroke-linejoin="round" stroke-width="7.000000"
	d="
M821.500000,701.500000 
	C812.695374,717.612915 802.862549,733.065125 791.411560,747.429504 
	C790.034912,749.156433 790.079895,750.707275 790.000000,752.500000 
"/>
<path fill="none" opacity="1.000000" stroke="#000000" stroke-linecap="round" stroke-linejoin="round" stroke-width="7.000000"
	d="
M392.500000,431.500000 
	C391.773956,438.340820 389.403778,444.813080 388.018158,451.503754 
	C385.867889,461.886536 384.653168,472.371735 385.000000,483.000000 
"/>
<path fill="none" opacity="1.000000" stroke="#000000" stroke-linecap="round" stroke-linejoin="round" stroke-width="7.000000"
	d="
M274.000000,693.000000 
	C278.534546,706.251221 283.182190,719.460388 289.517853,731.990967 
	C291.233368,735.383850 293.166687,738.666687 295.000000,742.000000 
"/>
<path fill="none" opacity="1.000000" stroke="#000000" stroke-linecap="round" stroke-linejoin="round" stroke-width="7.000000"
	d="
M724.000000,655.500000 
	C720.508545,672.931030 717.154907,690.398193 710.500000,707.000000 
"/>
<path fill="none" opacity="1.000000" stroke="#000000" stroke-linecap="round" stroke-linejoin="round" stroke-width="7.000000"
	d="
M526.500000,372.500000 
	C531.788147,388.128418 534.204468,404.414948 537.500000,420.500000 
"/>
<path fill="none" opacity="1.000000" stroke="#000000" stroke-linecap="round" stroke-linejoin="round" stroke-width="7.000000"
	d="
M560.000000,157.000000 
	C551.515381,150.914154 544.956665,143.206268 539.933838,134.036240 
	C537.264404,129.162781 535.005859,124.147552 533.027771,118.989357 
	C532.089294,116.542236 531.280518,114.083801 529.000000,112.500000 
"/>
<path fill="none" opacity="1.000000" stroke="#000000" stroke-linecap="round" stroke-linejoin="round" stroke-width="7.000000"
	d="
M423.500000,711.500000 
	C424.101410,723.958923 427.499908,735.790771 431.467712,747.510925 
	C432.515228,750.605103 433.166687,753.833313 434.000031,757.000000 
"/>
<path fill="none" opacity="1.000000" stroke="#000000" stroke-linecap="round" stroke-linejoin="round" stroke-width="7.000000"
	d="
M541.000000,162.250000 
	C537.154236,165.297913 533.990540,169.057846 530.067444,172.087372 
	C520.028503,179.839691 513.854370,190.498077 509.000000,202.000000 
"/>
<path fill="none" opacity="1.000000" stroke="#000000" stroke-linecap="round" stroke-linejoin="round" stroke-width="7.000000"
	d="
M697.000000,324.000000 
	C691.100342,316.280457 685.546509,308.312439 678.562988,301.436066 
	C673.612549,296.561584 668.267151,292.299438 662.500000,288.500000 
"/>
<path fill="none" opacity="1.000000" stroke="#000000" stroke-linecap="round" stroke-linejoin="round" stroke-width="7.000000"
	d="
M155.500000,694.500000 
	C159.936218,707.907410 166.397018,720.355774 173.500000,732.500000 
"/>
<path fill="none" opacity="1.000000" stroke="#000000" stroke-linecap="round" stroke-linejoin="round" stroke-width="8.000000"
	d="
M441.500000,198.000000 
	C440.544769,202.114899 438.528900,205.092545 434.012573,206.058807 
	C430.640930,206.780136 428.093567,205.354752 426.650909,202.910919 
	C425.495697,200.954071 427.483368,199.039185 428.992340,197.492538 
	C431.077972,195.354843 433.988892,194.812500 436.707794,193.391541 
	C441.731445,198.424286 449.651825,198.464111 454.689423,204.337524 
	C459.011078,209.376221 462.943787,214.483856 465.347473,220.560333 
	C466.168304,222.635452 467.450745,224.193527 468.500000,226.000000 
"/>
<path fill="none" opacity="1.000000" stroke="#000000" stroke-linecap="round" stroke-linejoin="round" stroke-width="7.000000"
	d="
M478.500000,237.500000 
	C478.030334,241.714294 475.124786,244.640686 473.033783,248.020905 
	C470.719177,251.762711 468.863068,255.800705 466.390076,259.424988 
	C465.559204,260.642700 465.042542,263.112274 462.500000,262.500000 
"/>
<path fill="none" opacity="1.000000" stroke="#000000" stroke-linecap="round" stroke-linejoin="round" stroke-width="8.000000"
	d="
M201.999985,309.000000 
	C196.166656,314.666656 190.336945,320.337067 184.495346,325.995209 
	C183.773315,326.694580 183.379272,327.485046 183.500000,328.500000 
"/>
<path fill="none" opacity="1.000000" stroke="#000000" stroke-linecap="round" stroke-linejoin="round" stroke-width="8.000000"
	d="
M540.500000,432.500000 
	C541.000000,438.000000 541.500000,443.500000 542.000000,449.000000 
"/>
<path fill="none" opacity="1.000000" stroke="#000000" stroke-linecap="round" stroke-linejoin="round" stroke-width="7.000000"
	d="
M705.000000,717.500000 
	C705.365051,720.546021 702.751587,722.376038 701.866516,724.954163 
	C701.120422,727.127563 699.418762,728.981567 699.500000,731.500000 
"/>
<path fill="none" opacity="1.000000" stroke="#000000" stroke-linecap="round" stroke-linejoin="round" stroke-width="7.000000"
	d="
M780.000000,764.500000 
	C775.932800,767.638184 772.212708,771.258362 767.500000,773.500000 
"/>
</svg>