<?xml version="1.0" encoding="UTF-8" standalone="yes"?>
<svg version="1.1" id="Layer_1" xmlns="http://www.w3.org/2000/svg" xmlns:xlink="http://www.w3.org/1999/xlink" x="0px" y="0px" width="100%" viewBox="0 0 336 432" enable-background="new 0 0 336 432" xml:space="preserve">
  <path d="M1.000000,377.428467 &#xA;&#x9;C21.482294,373.688751 41.614292,369.366882 58.738441,356.584961 &#xA;&#x9;C61.938107,354.196625 64.980423,351.598236 68.112419,349.118347 &#xA;&#x9;C78.184799,341.142975 80.337593,329.725067 81.480331,317.964050 &#xA;&#x9;C82.734604,305.055023 83.720192,292.119965 84.842278,279.197937 &#xA;&#x9;C85.077538,276.488647 84.663986,273.931183 83.644829,271.392212 &#xA;&#x9;C71.147835,240.258682 64.826759,207.641342 60.944275,174.514969 &#xA;&#x9;C57.652390,146.427765 57.719296,118.362869 64.744987,90.732460 &#xA;&#x9;C72.531822,60.108669 88.110924,34.967838 116.616455,19.370871 &#xA;&#x9;C139.935303,6.611825 164.902649,3.959265 190.733292,8.270498 &#xA;&#x9;C232.438583,15.231276 256.899414,41.266247 269.225250,80.321793 &#xA;&#x9;C278.644257,110.166641 279.799133,140.795776 277.470245,171.705444 &#xA;&#x9;C274.556976,210.371017 264.885040,247.407196 250.285721,283.231110 &#xA;&#x9;C249.580276,284.962097 249.224899,286.715240 249.204605,288.571503 &#xA;&#x9;C249.175461,291.236420 249.316483,293.928558 248.993073,296.560944 &#xA;&#x9;C245.256882,326.971527 261.440582,347.058319 284.003052,363.613678 &#xA;&#x9;C299.455261,374.951874 317.317169,379.937469 336.577881,381.937866 &#xA;&#x9;C337.000000,383.714355 337.000000,385.428711 336.599365,387.558594 &#xA;&#x9;C327.403839,386.276611 318.412720,385.580292 309.846863,382.708588 &#xA;&#x9;C305.965149,381.407227 305.046326,384.249695 303.943604,387.000336 &#xA;&#x9;C302.686157,390.136871 304.437317,391.224762 306.940857,392.011871 &#xA;&#x9;C308.840363,392.609009 310.701721,393.331604 312.610931,393.893341 &#xA;&#x9;C320.734344,396.283539 328.869293,398.634613 337.000000,401.000000 &#xA;&#x9;C337.000000,402.388885 337.000000,403.777802 336.671906,405.708710 &#xA;&#x9;C329.826202,408.938354 325.498474,414.115051 321.311615,419.458252 &#xA;&#x9;C316.228912,425.944611 316.233551,425.924561 323.044312,430.889832 &#xA;&#x9;C323.804810,431.444275 324.353210,432.289581 325.000000,433.000000 &#xA;&#x9;C323.933319,433.000000 322.866669,433.000000 321.170776,432.757599 &#xA;&#x9;C309.694000,424.140930 295.116547,424.339783 285.000000,433.000000 &#xA;&#x9;C283.933319,433.000000 282.866669,433.000000 281.552429,432.695251 &#xA;&#x9;C288.361786,425.935638 297.069244,423.867126 307.047150,423.414001 &#xA;&#x9;C301.129700,419.047943 295.628082,415.552032 290.817505,411.278229 &#xA;&#x9;C286.167542,407.147125 281.009857,406.629944 275.487976,407.573425 &#xA;&#x9;C267.816437,408.884277 261.071686,412.458405 254.757431,416.928711 &#xA;&#x9;C252.033813,418.856964 251.974976,420.635925 254.333679,422.947815 &#xA;&#x9;C257.652069,426.200317 260.786743,429.640228 264.000000,433.000000 &#xA;&#x9;C262.933319,433.000000 261.866669,433.000000 260.220306,432.719666 &#xA;&#x9;C257.152649,429.779572 254.425934,427.301544 252.231705,424.418274 &#xA;&#x9;C248.793076,419.899811 244.311646,418.426117 238.846481,418.209808 &#xA;&#x9;C225.300522,417.673737 213.160858,422.290527 201.215149,427.833252 &#xA;&#x9;C198.906570,428.904388 197.917786,430.496979 199.000000,433.000000 &#xA;&#x9;C198.250000,433.000000 197.500000,433.000000 196.240631,432.676208 &#xA;&#x9;C194.999664,430.312622 193.089935,429.981140 191.383102,429.502869 &#xA;&#x9;C179.015869,426.037415 166.555054,427.409637 154.097610,428.876099 &#xA;&#x9;C151.641754,429.165222 150.211182,430.478058 150.000000,433.000000 &#xA;&#x9;C149.250000,433.000000 148.500000,433.000000 147.471588,432.668732 &#xA;&#x9;C148.522934,429.025024 146.555054,427.895233 143.845245,427.085449 &#xA;&#x9;C135.045380,424.455658 126.037849,423.412415 116.886162,423.379303 &#xA;&#x9;C108.063828,423.347382 107.384903,423.946320 106.000000,433.000000 &#xA;&#x9;C104.933327,433.000000 103.866661,433.000000 102.574539,432.695679 &#xA;&#x9;C102.979362,431.036560 103.681213,429.709930 104.227585,428.322144 &#xA;&#x9;C106.646072,422.179199 106.584839,421.706085 100.436226,418.917114 &#xA;&#x9;C91.258667,414.754181 81.511978,412.809906 71.479996,412.227661 &#xA;&#x9;C70.146210,412.150238 68.617287,411.990662 67.734901,413.131775 &#xA;&#x9;C62.690910,419.654846 56.713554,425.491302 53.000000,433.000000 &#xA;&#x9;C51.933331,433.000000 50.866661,433.000000 49.524567,432.687042 &#xA;&#x9;C53.946365,426.353912 58.602959,420.301422 63.359688,414.328644 &#xA;&#x9;C65.429298,411.729950 65.666000,409.505157 63.195873,406.916565 &#xA;&#x9;C56.037334,399.414825 46.559460,396.985779 37.052555,394.471771 &#xA;&#x9;C30.940859,392.855591 26.589966,396.591125 21.833183,399.131653 &#xA;&#x9;C17.585825,401.400055 13.378456,403.745209 9.191310,406.123199 &#xA;&#x9;C8.130783,406.725494 6.629754,406.998627 6.533708,408.966309 &#xA;&#x9;C14.624948,412.627594 22.868195,416.173096 30.422876,420.984161 &#xA;&#x9;C35.958172,424.509277 42.015266,427.435120 46.000000,433.000000 &#xA;&#x9;C44.933331,433.000000 43.866661,433.000000 42.234795,432.709290 &#xA;&#x9;C40.324699,430.446411 38.342770,429.199127 36.435925,427.883881 &#xA;&#x9;C25.443584,420.302002 13.517734,414.562988 1.000000,410.000000 &#xA;&#x9;C1.000000,409.250000 1.000000,408.500000 1.346811,407.267029 &#xA;&#x9;C10.012429,402.372833 18.334965,397.968628 26.646261,393.543335 &#xA;&#x9;C27.993980,392.825775 28.360149,391.812775 27.869865,390.238556 &#xA;&#x9;C25.726223,383.355713 18.727869,379.176575 11.585211,380.602203 &#xA;&#x9;C8.035369,381.310760 4.697713,382.950623 1.000000,383.000000 &#xA;&#x9;C1.000000,381.285645 1.000000,379.571289 1.000000,377.428467 &#xA;" fill="#FFFFFF" stroke="#000000"/>
  <path d="M228.612152,173.092285 &#xA;&#x9;C219.727844,182.649536 210.189636,191.416428 198.761871,197.920410 &#xA;&#x9;C193.589706,200.864075 193.387802,202.391724 198.048859,206.083145 &#xA;&#x9;C206.681900,212.920242 214.570740,220.583176 222.697800,227.980453 &#xA;&#x9;C227.478699,232.332047 228.039871,232.548767 232.248413,227.765793 &#xA;&#x9;C253.622330,203.474457 260.863770,174.604950 259.196167,143.000122 &#xA;&#x9;C258.980011,138.903534 259.343323,134.550034 257.200317,129.684906 &#xA;&#x9;C249.234085,145.692291 240.288452,159.883392 228.612152,173.092285 &#xA;" fill="#FFFFFF" stroke="#000000"/>
  <path d="M90.247284,146.189240 &#xA;&#x9;C87.171173,140.571075 84.095055,134.952896 80.944435,129.198654 &#xA;&#x9;C79.403038,130.621002 79.398926,131.975906 79.236290,133.281830 &#xA;&#x9;C77.141525,150.101807 77.809334,166.775803 82.061287,183.225418 &#xA;&#x9;C86.290894,199.588562 93.614601,214.358154 105.116516,226.883682 &#xA;&#x9;C106.672089,228.577713 108.197151,231.691269 111.128235,229.193390 &#xA;&#x9;C121.123764,220.675201 131.001923,212.017471 140.829453,203.305359 &#xA;&#x9;C142.938339,201.435822 143.114136,199.515030 140.156998,197.811447 &#xA;&#x9;C118.819832,185.519348 103.378975,167.466599 90.247284,146.189240 &#xA;" fill="#FFFFFF" stroke="#000000"/>
  <path d="M198.583862,46.359310 &#xA;&#x9;C198.371338,44.564953 199.867203,42.883930 198.625778,40.281742 &#xA;&#x9;C178.883575,43.286800 158.836105,44.631596 138.389114,39.529621 &#xA;&#x9;C140.540344,52.468365 142.514954,64.227760 144.435608,75.995949 &#xA;&#x9;C144.819641,78.348953 146.659912,78.743195 148.424042,79.132118 &#xA;&#x9;C161.446960,82.003204 174.414078,82.182831 187.287064,78.217392 &#xA;&#x9;C190.451065,77.242744 192.121140,75.367012 192.797882,71.941216 &#xA;&#x9;C194.439407,63.631512 196.534515,55.411407 198.583862,46.359310 &#xA;" fill="#FFFFFF" stroke="#000000"/>
  <path d="M190.389938,82.632256 &#xA;&#x9;C190.190063,79.141075 187.949875,80.761002 186.441620,81.187798 &#xA;&#x9;C176.523514,83.994423 166.483353,84.624519 156.264847,83.356216 &#xA;&#x9;C153.071396,82.959839 149.952682,81.462242 146.247223,82.230888 &#xA;&#x9;C146.398514,84.310661 146.359833,86.138466 146.686798,87.898323 &#xA;&#x9;C149.200684,101.428978 151.882690,114.929344 154.269440,128.481918 &#xA;&#x9;C154.769119,131.319214 156.262070,132.563858 158.677765,133.144669 &#xA;&#x9;C164.218948,134.476974 169.759644,135.230331 175.461731,133.773148 &#xA;&#x9;C178.539032,132.986725 180.206604,131.668198 180.869095,128.275650 &#xA;&#x9;C183.800903,113.262146 187.063202,98.313187 190.389938,82.632256 &#xA;" fill="#FFFFFF" stroke="#000000"/>
  <path d="M187.617218,38.964024 &#xA;&#x9;C200.172668,37.802719 200.173111,37.802826 203.129700,25.666956 &#xA;&#x9;C203.444580,24.374508 203.593826,23.016104 204.090118,21.798424 &#xA;&#x9;C205.405090,18.572062 203.819977,17.221331 200.978394,16.377420 &#xA;&#x9;C193.758194,14.233127 186.338898,13.205206 178.875259,12.647014 &#xA;&#x9;C163.996429,11.534250 149.329636,12.430099 135.099869,17.979420 &#xA;&#x9;C135.278641,23.047279 136.464157,27.716776 137.065018,32.460068 &#xA;&#x9;C137.509964,35.972694 139.271454,37.179970 142.453827,37.808334 &#xA;&#x9;C157.151535,40.710400 171.912231,40.562786 187.617218,38.964024 &#xA;" fill="#FFFFFF" stroke="#000000"/>
  <path d="M141.054428,81.600342 &#xA;&#x9;C142.079224,79.994781 142.410538,78.358414 142.019806,76.393341 &#xA;&#x9;C140.855499,70.537811 140.002396,64.620346 138.834610,58.765587 &#xA;&#x9;C137.795166,53.554256 137.612122,48.131130 135.603424,42.510193 &#xA;&#x9;C134.434814,43.580372 133.748108,44.039970 133.279663,44.663548 &#xA;&#x9;C125.923233,54.456406 117.433678,63.072853 107.037003,69.645653 &#xA;&#x9;C104.689072,71.130020 104.697830,72.933052 105.236732,75.206772 &#xA;&#x9;C107.423409,84.432724 110.170319,93.492020 113.087151,102.508858 &#xA;&#x9;C114.198517,105.944427 115.867485,105.916626 118.646980,104.260780 &#xA;&#x9;C127.876602,98.762360 134.855499,91.083000 141.054428,81.600342 &#xA;" fill="#FFFFFF" stroke="#000000"/>
  <path d="M183.636795,127.779022 &#xA;&#x9;C183.615234,130.139435 181.581635,132.445297 183.737839,134.877274 &#xA;&#x9;C187.461243,139.076859 191.689560,142.353165 197.227509,143.884186 &#xA;&#x9;C200.004913,144.652039 201.527771,143.947388 202.789154,141.382492 &#xA;&#x9;C206.389084,134.062424 210.268631,126.880051 213.882416,119.566544 &#xA;&#x9;C216.420715,114.429565 218.704041,109.166588 221.259354,103.616386 &#xA;&#x9;C209.092834,99.817467 200.149445,92.736992 193.264313,81.132568 &#xA;&#x9;C189.918793,97.416214 186.880920,112.202423 183.636795,127.779022 &#xA;" fill="#FFFFFF" stroke="#000000"/>
  <path d="M215.444321,58.064423 &#xA;&#x9;C210.721558,53.499874 206.936981,48.109703 202.241776,41.687481 &#xA;&#x9;C199.428299,54.130547 196.922867,65.069740 194.537964,76.035149 &#xA;&#x9;C194.353058,76.885315 194.879532,77.984589 195.302460,78.858116 &#xA;&#x9;C200.167984,88.907303 207.952393,95.720688 218.327087,99.751160 &#xA;&#x9;C221.226395,100.877518 222.989334,100.424088 224.142166,97.378540 &#xA;&#x9;C227.255997,89.152466 230.481812,80.968330 233.719772,72.789963 &#xA;&#x9;C234.670227,70.389297 234.632355,68.876663 231.608673,68.001427 &#xA;&#x9;C225.602600,66.262932 220.517197,62.805573 215.444321,58.064423 &#xA;" fill="#FFFFFF" stroke="#000000"/>
  <path d="M143.274918,85.394951 &#xA;&#x9;C140.853867,85.148605 140.464249,87.428535 139.497650,88.713715 &#xA;&#x9;C133.921143,96.128113 127.439522,102.553139 119.211555,106.896698 &#xA;&#x9;C115.896248,108.646866 115.605270,110.597717 116.874146,113.676018 &#xA;&#x9;C119.726898,120.596802 122.354080,127.610603 125.208900,134.530502 &#xA;&#x9;C129.477097,144.876358 132.735977,145.914062 142.813995,140.451752 &#xA;&#x9;C145.340759,139.082230 147.433533,137.216599 149.481888,135.252640 &#xA;&#x9;C151.446747,133.368729 152.197327,131.170746 151.681137,128.475723 &#xA;&#x9;C148.964478,114.292343 146.278534,100.103073 143.274918,85.394951 &#xA;" fill="#FFFFFF" stroke="#000000"/>
  <path d="M195.268295,310.169952 &#xA;&#x9;C194.459396,308.346008 193.402252,306.588654 192.891312,304.684753 &#xA;&#x9;C191.689301,300.205566 188.674622,298.402222 184.323685,297.644135 &#xA;&#x9;C173.105209,295.689453 162.161636,296.868286 151.310989,299.888885 &#xA;&#x9;C149.266251,300.458130 147.746964,301.486816 147.081802,303.665192 &#xA;&#x9;C145.053406,310.308044 142.941330,316.925354 140.616791,324.333435 &#xA;&#x9;C151.133759,321.038177 161.412445,321.428680 171.660477,321.712616 &#xA;&#x9;C181.892593,321.996002 191.777573,324.978271 202.666779,326.512421 &#xA;&#x9;C200.062805,320.785583 197.808868,315.828583 195.268295,310.169952 &#xA;" fill="#FFFFFF" stroke="#000000"/>
  <path d="M171.213531,324.347778 &#xA;&#x9;C166.056519,324.350311 160.896698,324.247711 155.743332,324.385925 &#xA;&#x9;C150.901810,324.515747 146.217560,325.604553 141.564392,326.976074 &#xA;&#x9;C138.077499,328.003845 137.973526,331.096802 137.051773,333.605835 &#xA;&#x9;C136.205338,335.909851 138.450638,336.718384 139.906677,337.680511 &#xA;&#x9;C158.313339,349.843658 184.514633,349.867188 202.744949,337.701874 &#xA;&#x9;C204.302780,336.662262 206.709854,335.959076 206.312607,333.414917 &#xA;&#x9;C205.917465,330.884216 203.682022,330.176392 201.568115,329.571014 &#xA;&#x9;C191.944016,326.814941 182.077789,325.415283 171.213531,324.347778 &#xA;" fill="#FFFFFF" stroke="#000000"/>
  <path d="M238.426895,38.133297 &#xA;&#x9;C230.739380,30.599894 222.017426,24.584034 212.105621,20.359413 &#xA;&#x9;C209.953674,19.442207 207.645737,18.451561 206.548706,21.943924 &#xA;&#x9;C203.565201,31.441853 201.791885,40.677662 210.484802,48.480442 &#xA;&#x9;C212.197479,50.017761 213.385559,52.123493 214.954758,53.839828 &#xA;&#x9;C219.163269,58.442955 224.141693,62.034149 229.853500,64.532143 &#xA;&#x9;C234.850204,66.717392 235.932968,66.261330 237.343155,61.179836 &#xA;&#x9;C238.719208,56.221355 239.658661,51.139427 241.099152,46.201950 &#xA;&#x9;C242.016541,43.057541 241.354416,40.674522 238.426895,38.133297 &#xA;" fill="#FFFFFF" stroke="#000000"/>
  <path d="M216.835022,161.653778 &#xA;&#x9;C220.876709,165.256592 223.993454,164.336456 226.914444,160.004608 &#xA;&#x9;C230.530243,154.642410 234.404419,149.445602 238.348969,144.317322 &#xA;&#x9;C240.653061,141.321793 240.606400,138.996368 237.951004,136.111252 &#xA;&#x9;C232.602386,130.299896 229.104828,123.307274 226.352417,115.943581 &#xA;&#x9;C225.290009,113.101234 224.262558,110.245796 223.081421,107.020088 &#xA;&#x9;C218.238281,116.819557 213.754227,126.069389 209.112793,135.239563 &#xA;&#x9;C203.136292,147.047501 203.278442,148.369064 212.590668,157.883774 &#xA;&#x9;C213.748749,159.067047 215.043884,160.116165 216.835022,161.653778 &#xA;" fill="#FFFFFF" stroke="#000000"/>
  <path d="M86.737244,101.144638 &#xA;&#x9;C89.101715,96.943680 91.721962,92.863052 93.768623,88.512581 &#xA;&#x9;C96.593071,82.508820 101.036606,76.464973 100.885986,70.071770 &#xA;&#x9;C100.683609,61.482185 97.785851,52.956112 95.991714,44.140320 &#xA;&#x9;C93.102570,45.729019 91.545456,47.945206 89.987709,50.025822 &#xA;&#x9;C81.415771,61.475014 75.535057,74.247131 71.579048,87.961662 &#xA;&#x9;C68.943779,97.097511 68.868553,97.075813 77.262772,101.686592 &#xA;&#x9;C78.567566,101.447823 78.249290,98.992348 80.078697,99.550201 &#xA;&#x9;C81.925125,100.965256 80.783714,104.010689 83.506516,105.055779 &#xA;&#x9;C84.442696,103.970352 85.404953,102.854683 86.737244,101.144638 &#xA;" fill="#FFFFFF" stroke="#000000"/>
  <path d="M134.406708,31.964127 &#xA;&#x9;C133.870193,29.025494 133.182999,26.104546 132.835480,23.143726 &#xA;&#x9;C132.405594,19.481243 130.560181,19.209122 127.670502,20.514519 &#xA;&#x9;C117.890495,24.932581 108.928146,30.596447 101.012054,37.868893 &#xA;&#x9;C99.787148,38.994202 98.219711,40.171261 98.549782,41.985249 &#xA;&#x9;C100.113197,50.577385 101.145294,59.289490 103.718765,68.036507 &#xA;&#x9;C104.840004,67.510712 105.604004,67.241676 106.275696,66.824142 &#xA;&#x9;C117.359802,59.933983 125.741310,50.300716 133.475113,40.006897 &#xA;&#x9;C135.148346,37.779774 134.752731,35.288822 134.406708,31.964127 &#xA;" fill="#FFFFFF" stroke="#000000"/>
  <path d="M198.041504,399.490692 &#xA;&#x9;C196.200302,401.029724 192.727890,401.626312 193.057816,404.515533 &#xA;&#x9;C193.891464,411.815826 195.050064,419.118378 197.787689,426.513123 &#xA;&#x9;C212.251175,419.370331 226.671005,414.328217 243.812622,415.820557 &#xA;&#x9;C237.463791,408.643463 231.861847,402.770111 226.828033,396.444672 &#xA;&#x9;C223.896210,392.760559 220.478027,391.940857 216.295151,392.551697 &#xA;&#x9;C209.954681,393.477631 204.105835,395.763580 198.041504,399.490692 &#xA;" fill="#FFFFFF" stroke="#000000"/>
  <path d="M229.762192,395.833496 &#xA;&#x9;C235.515244,402.296570 241.320236,408.714600 246.989120,415.250671 &#xA;&#x9;C248.647598,417.162781 250.044327,417.384399 252.032410,415.809845 &#xA;&#x9;C260.122894,409.402283 269.273438,405.402130 279.811646,404.279694 &#xA;&#x9;C279.427124,403.526001 279.318970,402.996796 278.994873,402.725189 &#xA;&#x9;C270.962250,395.993927 262.900238,389.297668 254.860977,382.574249 &#xA;&#x9;C253.292694,381.262665 251.480026,381.238281 249.654114,381.531891 &#xA;&#x9;C242.465240,382.687714 235.983704,385.530731 229.992691,389.661072 &#xA;&#x9;C227.412445,391.439972 227.312775,393.148010 229.762192,395.833496 &#xA;" fill="#FFFFFF" stroke="#000000"/>
  <path d="M238.305649,79.247734 &#xA;&#x9;C237.611160,77.775688 237.923294,75.915962 236.208313,74.317627 &#xA;&#x9;C233.730103,80.669037 232.042648,87.222435 228.767426,92.852104 &#xA;&#x9;C224.152084,100.785278 225.587692,107.973785 228.971100,115.545364 &#xA;&#x9;C232.345184,123.096062 235.752533,130.585571 242.333328,136.924469 &#xA;&#x9;C248.362976,127.741211 252.330353,118.203629 255.285690,108.199455 &#xA;&#x9;C255.794968,106.475487 254.500763,105.420326 253.443985,104.382584 &#xA;&#x9;C246.422180,97.487106 241.667740,89.216896 238.305649,79.247734 &#xA;" fill="#FFFFFF" stroke="#000000"/>
  <path d="M210.770859,313.371979 &#xA;&#x9;C216.700943,304.405670 224.152390,296.921295 232.902084,290.712738 &#xA;&#x9;C234.288254,289.729156 235.983597,288.849243 234.667511,286.819427 &#xA;&#x9;C232.322266,283.202332 229.856567,279.661682 227.378830,276.132874 &#xA;&#x9;C226.200363,274.454468 224.529434,274.688049 222.885941,275.307678 &#xA;&#x9;C214.282913,278.551147 206.065292,282.457947 199.601471,289.259308 &#xA;&#x9;C194.964203,294.138733 192.346191,299.124451 196.220184,306.100555 &#xA;&#x9;C199.292755,311.633514 201.250702,317.789307 204.986435,323.851013 &#xA;&#x9;C207.102325,320.027649 208.765244,317.022827 210.770859,313.371979 &#xA;" fill="#FFFFFF" stroke="#000000"/>
  <path d="M92.776031,96.205048 &#xA;&#x9;C90.841095,100.103447 88.440140,103.705719 85.672783,107.049973 &#xA;&#x9;C84.572609,108.379509 83.570396,109.543495 84.224319,111.476265 &#xA;&#x9;C87.264984,120.463539 91.069420,129.080338 95.819016,136.969589 &#xA;&#x9;C97.982391,137.283768 99.307686,136.408463 100.339951,135.401657 &#xA;&#x9;C108.012764,127.918007 112.727448,118.408638 111.423843,108.092438 &#xA;&#x9;C110.076736,97.432068 105.709930,87.153297 102.391586,75.772964 &#xA;&#x9;C99.278122,83.074127 96.600693,89.511909 92.776031,96.205048 &#xA;" fill="#FFFFFF" stroke="#000000"/>
  <path d="M170.385971,263.356171 &#xA;&#x9;C168.722626,263.412842 167.038742,263.322418 165.399384,263.550995 &#xA;&#x9;C157.179092,264.697418 157.033493,264.886871 155.050888,272.975616 &#xA;&#x9;C153.348969,279.919220 151.600449,286.851471 149.856369,293.784637 &#xA;&#x9;C149.575851,294.899841 149.012009,296.011871 150.460800,297.263123 &#xA;&#x9;C162.826706,293.922302 175.577530,292.488831 189.042679,295.996826 &#xA;&#x9;C186.171616,287.031250 183.248199,279.063873 181.131653,270.887634 &#xA;&#x9;C179.702499,265.366760 176.713791,263.032379 170.385971,263.356171 &#xA;" fill="#FFFFFF" stroke="#000000"/>
  <path d="M71.090378,408.778992 &#xA;&#x9;C75.268501,410.466064 79.778923,410.381134 84.124092,411.164673 &#xA;&#x9;C92.294731,412.638031 99.955635,415.584991 107.709961,419.378235 &#xA;&#x9;C110.064987,412.756378 112.128372,406.642883 114.422585,400.617310 &#xA;&#x9;C115.862976,396.834290 114.705559,394.292755 111.465935,392.189636 &#xA;&#x9;C105.187912,388.114044 98.165680,386.337402 90.932411,384.971283 &#xA;&#x9;C88.354279,384.484375 86.965485,385.270050 85.588158,387.323242 &#xA;&#x9;C80.867172,394.360840 75.988281,401.292542 71.090378,408.778992 &#xA;" fill="#FFFFFF" stroke="#000000"/>
  <path d="M154.094223,410.346436 &#xA;&#x9;C153.295837,415.523346 151.800827,420.611115 151.765472,426.450806 &#xA;&#x9;C166.110977,424.519928 180.116013,423.503815 194.580612,427.389465 &#xA;&#x9;C193.182358,420.176453 191.748718,413.879944 190.811920,407.510406 &#xA;&#x9;C190.300690,404.034485 188.542923,402.815857 185.351105,402.193634 &#xA;&#x9;C176.829453,400.532227 168.466415,401.759888 160.024414,402.819977 &#xA;&#x9;C155.724030,403.360016 153.653549,405.087952 154.094223,410.346436 &#xA;" fill="#FFFFFF" stroke="#000000"/>
  <path d="M244.701736,87.792030 &#xA;&#x9;C247.774368,93.288651 250.994797,98.672203 256.200348,103.277000 &#xA;&#x9;C257.526276,98.529297 259.415436,101.578613 260.875092,102.666405 &#xA;&#x9;C264.194519,99.039169 268.414185,96.614563 266.578278,90.690102 &#xA;&#x9;C262.871948,78.729668 258.736389,66.984573 252.334244,56.172234 &#xA;&#x9;C250.176208,52.527626 248.127487,48.722496 244.595215,45.828846 &#xA;&#x9;C239.214569,59.806293 236.191711,73.444786 244.701736,87.792030 &#xA;" fill="#FFFFFF" stroke="#000000"/>
  <path d="M219.924820,273.533783 &#xA;&#x9;C221.116302,272.772614 222.934204,272.842804 223.471008,270.341888 &#xA;&#x9;C220.106445,265.564484 216.499802,260.420105 212.865051,255.295639 &#xA;&#x9;C211.682327,253.628189 209.931030,253.235031 208.012482,253.341660 &#xA;&#x9;C197.769257,253.911026 190.429810,259.585510 184.134506,267.024597 &#xA;&#x9;C183.663651,267.581024 183.354568,268.636383 183.526550,269.319824 &#xA;&#x9;C185.692123,277.926086 188.270493,286.394714 192.240433,295.167725 &#xA;&#x9;C198.568924,283.764832 208.481323,278.222748 219.924820,273.533783 &#xA;" fill="#FFFFFF" stroke="#000000"/>
  <path d="M112.253876,414.581635 &#xA;&#x9;C111.876419,416.451233 110.250626,418.086975 111.340919,420.746338 &#xA;&#x9;C123.640053,420.432709 135.940796,421.683197 148.137390,425.667267 &#xA;&#x9;C150.571152,420.089020 150.403534,414.347687 151.642914,408.926605 &#xA;&#x9;C152.702835,404.290588 150.461655,401.820648 146.351227,400.253235 &#xA;&#x9;C138.232681,397.157349 129.795090,396.961487 121.289757,397.157288 &#xA;&#x9;C118.940422,397.211395 117.780396,398.507080 117.079613,400.666290 &#xA;&#x9;C115.643478,405.091248 114.019363,409.455170 112.253876,414.581635 &#xA;" fill="#FFFFFF" stroke="#000000"/>
  <path d="M179.275681,398.727448 &#xA;&#x9;C182.479065,398.276978 185.643158,400.740906 189.173782,398.951141 &#xA;&#x9;C188.798035,392.226410 188.400269,385.608948 188.072113,378.988098 &#xA;&#x9;C187.939911,376.320709 186.865509,374.721741 184.056625,374.184662 &#xA;&#x9;C175.579666,372.563721 167.223206,372.975555 158.916061,375.208038 &#xA;&#x9;C157.028259,375.715393 156.136368,376.903839 156.134354,378.804596 &#xA;&#x9;C156.126892,385.888489 156.131363,392.972412 156.131363,400.552643 &#xA;&#x9;C163.598709,400.124542 170.896957,398.235840 179.275681,398.727448 &#xA;" fill="#FFFFFF" stroke="#000000"/>
  <path d="M141.885437,396.282379 &#xA;&#x9;C145.497574,396.486206 148.404251,399.354309 152.260315,399.291779 &#xA;&#x9;C154.558563,392.051147 152.664322,384.834503 153.419067,377.769928 &#xA;&#x9;C153.638458,375.716339 152.230789,374.081940 150.329376,372.988373 &#xA;&#x9;C143.850662,369.262238 137.014893,367.069305 129.424973,367.311249 &#xA;&#x9;C125.818336,367.426208 124.305275,368.960327 124.342979,372.494507 &#xA;&#x9;C124.385918,376.519043 123.147575,380.360626 122.414833,384.277191 &#xA;&#x9;C121.792900,387.601440 119.686417,390.612579 120.010910,394.541107 &#xA;&#x9;C127.276772,394.457520 134.251572,394.437653 141.885437,396.282379 &#xA;" fill="#FFFFFF" stroke="#000000"/>
  <path d="M131.864563,282.570068 &#xA;&#x9;C136.782639,286.432739 141.315918,290.729614 146.065720,296.023773 &#xA;&#x9;C149.632675,285.966919 151.513184,276.422607 153.544617,266.930573 &#xA;&#x9;C153.753601,265.954071 153.107132,264.666321 152.570480,263.679108 &#xA;&#x9;C148.996399,257.104156 133.572586,254.359421 128.585892,259.896332 &#xA;&#x9;C124.769775,264.133484 122.084030,269.386871 119.623146,274.782471 &#xA;&#x9;C123.755035,277.384766 127.523926,279.758423 131.864563,282.570068 &#xA;" fill="#FFFFFF" stroke="#000000"/>
  <path d="M317.668732,398.021881 &#xA;&#x9;C312.771820,396.442902 307.840118,394.961487 302.996429,393.233337 &#xA;&#x9;C301.236938,392.605591 299.770996,392.765228 298.250763,393.597778 &#xA;&#x9;C293.995117,395.928436 291.366028,399.760681 288.919525,403.755371 &#xA;&#x9;C287.905670,405.410828 288.659485,406.603302 290.005524,407.574768 &#xA;&#x9;C297.146790,412.728668 304.284424,417.887939 311.459747,422.994110 &#xA;&#x9;C312.690247,423.869781 314.262024,424.736206 315.418213,423.039154 &#xA;&#x9;C320.559326,415.493195 326.700378,408.904266 334.711243,403.357666 &#xA;&#x9;C329.104370,400.459229 323.608032,399.865112 317.668732,398.021881 &#xA;" fill="#FFFFFF" stroke="#000000"/>
  <path d="M76.083031,396.624359 &#xA;&#x9;C77.693642,394.301361 79.285484,391.965088 80.918427,389.657867 &#xA;&#x9;C85.694641,382.909332 85.301529,381.412689 77.745743,378.110901 &#xA;&#x9;C76.226540,377.447021 74.652779,376.888672 73.068474,376.396606 &#xA;&#x9;C68.027557,374.830963 63.489662,374.828705 59.322060,379.066132 &#xA;&#x9;C56.563194,381.871307 52.771160,383.534729 49.183479,385.336517 &#xA;&#x9;C45.310001,387.281891 41.006035,388.494965 36.993942,391.738464 &#xA;&#x9;C48.928349,394.777832 60.014256,398.094086 67.849327,407.994629 &#xA;&#x9;C70.811333,403.920959 73.247887,400.569946 76.083031,396.624359 &#xA;" fill="#FFFFFF" stroke="#000000"/>
  <path d="M99.191994,384.084229 &#xA;&#x9;C105.318649,385.699463 111.040710,388.197235 116.153328,392.360352 &#xA;&#x9;C118.493362,389.336823 119.292625,386.120392 120.009987,382.939972 &#xA;&#x9;C123.621857,366.926605 123.877960,363.418488 104.968681,356.863770 &#xA;&#x9;C101.312973,355.596588 98.654579,355.902405 97.899590,360.747681 &#xA;&#x9;C97.133110,365.666748 95.028931,370.254547 92.935707,374.800140 &#xA;&#x9;C91.939690,376.963043 90.058540,378.846161 90.148003,381.879211 &#xA;&#x9;C92.989662,382.559479 95.708290,383.210266 99.191994,384.084229 &#xA;" fill="#FFFFFF" stroke="#000000"/>
  <path d="M190.796631,227.692490 &#xA;&#x9;C189.082352,226.037674 187.897049,223.500946 184.634369,225.074768 &#xA;&#x9;C178.388672,228.087509 174.790329,234.978577 176.325424,241.840088 &#xA;&#x9;C177.665771,247.830978 179.143127,253.793854 180.712128,259.728882 &#xA;&#x9;C181.055359,261.027252 181.006821,262.845978 183.437119,263.330811 &#xA;&#x9;C190.198502,256.758484 197.819641,251.038879 208.663788,250.215637 &#xA;&#x9;C203.046585,242.067108 197.119644,235.172882 190.796631,227.692490 &#xA;" fill="#FFFFFF" stroke="#000000"/>
  <path d="M206.184464,392.460266 &#xA;&#x9;C210.887238,390.307953 216.086411,390.179443 221.197174,389.095459 &#xA;&#x9;C219.641113,382.534912 218.105957,376.281830 216.692978,370.001221 &#xA;&#x9;C216.098129,367.357208 214.233002,367.160278 212.130463,367.299316 &#xA;&#x9;C205.160721,367.760101 198.955551,370.475311 193.011322,373.905640 &#xA;&#x9;C191.966675,374.508514 191.137817,375.500519 191.175781,376.723541 &#xA;&#x9;C191.404434,384.090424 190.531006,391.555420 192.610718,399.247101 &#xA;&#x9;C197.234879,396.906982 201.345718,394.826630 206.184464,392.460266 &#xA;" fill="#FFFFFF" stroke="#000000"/>
  <path d="M141.872543,311.447021 &#xA;&#x9;C142.558289,309.219177 143.097702,306.932648 143.962311,304.776520 &#xA;&#x9;C145.452148,301.061157 144.629364,298.199188 141.786835,295.352753 &#xA;&#x9;C137.184845,290.744415 132.612625,286.144775 127.143135,282.553864 &#xA;&#x9;C118.159210,276.655518 117.893478,276.832611 112.723419,286.062622 &#xA;&#x9;C110.935928,289.253815 111.440742,291.156342 114.368164,293.080109 &#xA;&#x9;C120.573235,297.157898 125.562698,302.549561 129.852600,308.538025 &#xA;&#x9;C132.718689,312.538940 135.188370,316.823792 138.313095,321.731842 &#xA;&#x9;C139.609238,318.052704 140.638443,315.131287 141.872543,311.447021 &#xA;" fill="#FFFFFF" stroke="#000000"/>
  <path d="M221.167801,378.445465 &#xA;&#x9;C222.138885,382.091675 222.708405,385.898071 225.569077,389.535278 &#xA;&#x9;C232.968048,384.023041 241.202805,380.457672 250.729279,378.137299 &#xA;&#x9;C245.104309,372.021698 242.039383,365.569763 240.207153,358.600037 &#xA;&#x9;C239.089386,354.347992 236.950241,353.586182 233.323456,355.465302 &#xA;&#x9;C232.141678,356.077545 230.924667,356.631470 229.785675,357.315186 &#xA;&#x9;C218.583130,364.040039 218.252136,364.818207 221.167801,378.445465 &#xA;" fill="#FFFFFF" stroke="#000000"/>
  <path d="M112.206200,160.244659 &#xA;&#x9;C113.386719,160.918228 114.492729,160.657471 115.432899,159.826935 &#xA;&#x9;C119.992287,155.799301 123.436646,150.928894 126.016205,145.449402 &#xA;&#x9;C126.334206,144.773895 126.448059,143.715729 126.145134,143.077667 &#xA;&#x9;C121.910110,134.157135 118.302452,124.963776 114.535667,115.068016 &#xA;&#x9;C113.869568,116.676140 113.526451,117.422142 113.247231,118.191330 &#xA;&#x9;C110.391891,126.057175 107.516907,133.898117 100.085136,138.861450 &#xA;&#x9;C97.867554,140.342484 99.040741,142.109787 99.968353,143.653046 &#xA;&#x9;C103.405556,149.371384 107.335655,154.743286 112.206200,160.244659 &#xA;" fill="#FFFFFF" stroke="#000000"/>
  <path d="M92.053467,370.512787 &#xA;&#x9;C93.052368,367.527527 94.173561,364.576691 95.025986,361.550171 &#xA;&#x9;C97.120850,354.112427 93.664452,345.491638 87.205826,341.255768 &#xA;&#x9;C84.041710,339.180573 81.787445,339.606110 80.937271,343.358704 &#xA;&#x9;C78.571960,353.798981 74.561539,363.460541 66.993721,372.384125 &#xA;&#x9;C74.543373,373.924561 81.076523,375.650543 86.230705,380.579315 &#xA;&#x9;C89.175392,377.657166 90.147545,374.247864 92.053467,370.512787 &#xA;" fill="#FFFFFF" stroke="#000000"/>
  <path d="M257.049438,380.816925 &#xA;&#x9;C265.795288,389.180206 275.272217,396.613953 285.536469,403.968170 &#xA;&#x9;C288.737946,398.624634 292.336304,394.375610 297.514526,390.818237 &#xA;&#x9;C287.380066,385.399139 279.211884,378.685547 271.905426,370.896851 &#xA;&#x9;C270.650787,369.559418 269.156555,369.000732 267.411621,369.846313 &#xA;&#x9;C262.715363,372.122101 258.326447,374.732086 257.049438,380.816925 &#xA;" fill="#FFFFFF" stroke="#000000"/>
  <path d="M193.907776,185.487900 &#xA;&#x9;C195.814301,187.857788 197.777191,187.526062 199.866898,185.696121 &#xA;&#x9;C204.992706,181.207550 210.228638,176.840988 215.254318,172.243958 &#xA;&#x9;C216.867111,170.768723 219.262817,169.685135 219.347839,166.761612 &#xA;&#x9;C216.295258,164.282990 212.817581,162.240799 210.259552,159.142609 &#xA;&#x9;C207.651794,155.984192 205.070984,152.803528 202.009720,149.059402 &#xA;&#x9;C197.896225,156.028854 194.112701,162.582611 190.187592,169.050446 &#xA;&#x9;C186.018265,175.920685 185.982498,176.387817 191.027267,182.457489 &#xA;&#x9;C191.769470,183.350464 192.618973,184.154251 193.907776,185.487900 &#xA;" fill="#FFFFFF" stroke="#000000"/>
  <path d="M140.624481,144.369217 &#xA;&#x9;C137.858704,145.754578 134.446014,145.279083 131.605850,147.352692 &#xA;&#x9;C135.372849,156.061203 140.524902,163.775940 145.377228,171.667389 &#xA;&#x9;C146.899704,174.143433 148.779831,175.503647 151.496384,174.269089 &#xA;&#x9;C154.867813,172.736908 159.882645,171.530167 159.255676,167.034531 &#xA;&#x9;C157.851242,156.963776 155.334366,147.048172 153.157486,136.523026 &#xA;&#x9;C148.875305,139.492752 145.636383,142.657150 140.624481,144.369217 &#xA;" fill="#FFFFFF" stroke="#000000"/>
  <path d="M156.102158,361.515411 &#xA;&#x9;C156.087799,363.509735 156.153381,365.508545 156.042450,367.497498 &#xA;&#x9;C155.812012,371.629181 156.994659,373.160645 161.577438,371.924927 &#xA;&#x9;C168.687317,370.007751 176.037109,370.167358 183.330765,371.256989 &#xA;&#x9;C185.108154,371.522522 187.445114,372.310516 187.561325,369.516876 &#xA;&#x9;C187.805878,363.638428 187.635651,357.742737 187.635651,351.466431 &#xA;&#x9;C179.416367,352.544952 172.251816,353.497223 164.914078,352.442017 &#xA;&#x9;C156.123642,351.177917 156.081024,351.474243 156.102158,361.515411 &#xA;" fill="#FFFFFF" stroke="#000000"/>
  <path d="M153.652283,354.102600 &#xA;&#x9;C153.851349,351.812469 152.785461,350.338715 150.745377,349.398224 &#xA;&#x9;C144.062973,346.317444 137.152664,344.075134 129.750153,343.661316 &#xA;&#x9;C127.120430,343.514343 125.117607,344.211884 125.176025,347.441254 &#xA;&#x9;C125.257179,351.928070 125.289314,356.416107 125.299980,360.903748 &#xA;&#x9;C125.304985,363.009521 125.982155,364.614532 128.350739,364.563934 &#xA;&#x9;C137.154831,364.375793 145.308319,366.687866 153.657791,371.874268 &#xA;&#x9;C153.657791,365.511841 153.657791,360.248718 153.652283,354.102600 &#xA;" fill="#FFFFFF" stroke="#000000"/>
  <path d="M81.486618,247.783524 &#xA;&#x9;C82.290916,249.136108 82.026520,251.152130 83.918892,251.833328 &#xA;&#x9;C93.362305,245.301025 95.996605,233.210648 90.252602,223.450851 &#xA;&#x9;C87.637039,219.006683 85.220024,214.445587 82.718277,209.934570 &#xA;&#x9;C81.403351,207.563538 80.895332,204.548569 76.648537,206.088272 &#xA;&#x9;C72.529480,207.581680 71.945763,209.868881 72.776512,213.740662 &#xA;&#x9;C75.184822,224.964767 77.803482,236.124176 81.486618,247.783524 &#xA;" fill="#FFFFFF" stroke="#000000"/>
  <path d="M156.358856,138.006516 &#xA;&#x9;C158.037354,146.780930 159.738586,155.551102 161.381775,164.332123 &#xA;&#x9;C161.942734,167.329865 162.881973,169.849594 166.607483,169.730362 &#xA;&#x9;C170.272217,169.613083 172.994217,168.407761 173.702896,164.286987 &#xA;&#x9;C174.572922,159.227936 175.854050,154.235428 176.612228,149.162567 &#xA;&#x9;C177.247437,144.912430 179.318359,140.758194 178.149658,135.783646 &#xA;&#x9;C171.710617,137.834763 165.642914,137.403137 159.576340,136.122269 &#xA;&#x9;C158.318039,135.856598 156.871002,135.303024 156.358856,138.006516 &#xA;" fill="#FFFFFF" stroke="#000000"/>
  <path d="M117.706818,359.631714 &#xA;&#x9;C119.088478,360.414215 120.012749,362.093201 121.933617,361.850281 &#xA;&#x9;C125.676109,345.008789 115.923164,327.692108 101.540215,326.433441 &#xA;&#x9;C101.412804,333.882874 101.294228,341.332855 100.262421,348.700317 &#xA;&#x9;C99.808670,351.940216 100.747757,353.603088 104.206810,354.161224 &#xA;&#x9;C108.819580,354.905518 113.224777,356.486664 117.706818,359.631714 &#xA;" fill="#FFFFFF" stroke="#000000"/>
  <path d="M236.663666,340.516083 &#xA;&#x9;C236.332932,336.705750 235.798737,332.899139 235.728851,329.084045 &#xA;&#x9;C235.659378,325.291138 234.113281,324.922516 230.999359,326.195435 &#xA;&#x9;C217.651108,331.651886 211.847015,348.624298 219.113434,361.866241 &#xA;&#x9;C224.744080,357.156219 230.599869,352.848969 237.710800,351.153046 &#xA;&#x9;C238.210068,347.546936 236.882401,344.535187 236.663666,340.516083 &#xA;" fill="#FFFFFF" stroke="#000000"/>
  <path d="M124.741745,260.138641 &#xA;&#x9;C125.481682,258.984924 125.995811,257.720917 125.615623,256.368988 &#xA;&#x9;C123.826736,250.007797 120.432579,244.579437 115.831551,239.878448 &#xA;&#x9;C114.116096,238.125702 112.803162,239.726486 111.459763,240.488937 &#xA;&#x9;C109.727554,241.472107 108.214325,242.586639 105.964447,241.522415 &#xA;&#x9;C99.979851,238.691620 99.780113,238.824875 95.741478,245.149368 &#xA;&#x9;C103.964203,252.838715 110.028572,262.463043 116.595375,271.959717 &#xA;&#x9;C120.767601,268.593994 121.933769,264.251343 124.741745,260.138641 &#xA;" fill="#FFFFFF" stroke="#000000"/>
  <path d="M214.366714,364.184174 &#xA;&#x9;C214.683685,363.810730 215.304031,363.409332 215.272552,363.068054 &#xA;&#x9;C214.723892,357.119537 214.145737,351.172607 213.458160,345.238708 &#xA;&#x9;C213.199417,343.005737 211.621292,342.884155 209.728195,343.180481 &#xA;&#x9;C203.356567,344.177979 197.866837,347.476990 192.019226,349.836670 &#xA;&#x9;C191.051651,350.227112 190.372559,351.053894 190.367554,352.152618 &#xA;&#x9;C190.339157,358.382751 190.353821,364.613068 190.353821,371.679260 &#xA;&#x9;C198.662125,368.290741 205.642548,364.590729 214.366714,364.184174 &#xA;" fill="#FFFFFF" stroke="#000000"/>
  <path d="M249.566360,222.146286 &#xA;&#x9;C248.123383,227.997910 248.059692,233.920792 248.203140,239.922455 &#xA;&#x9;C248.330872,245.266830 251.589142,247.705460 256.021576,250.335938 &#xA;&#x9;C260.480408,236.670273 263.703217,223.186249 266.476196,209.586151 &#xA;&#x9;C267.104645,206.503876 264.531769,206.104233 262.528137,205.518021 &#xA;&#x9;C260.645660,204.967255 258.239807,202.998886 256.962677,206.083527 &#xA;&#x9;C254.805450,211.293839 251.294418,215.858841 249.566360,222.146286 &#xA;" fill="#FFFFFF" stroke="#000000"/>
  <path d="M122.201164,171.305603 &#xA;&#x9;C127.529518,176.232788 132.677216,181.381088 138.726044,185.307861 &#xA;&#x9;C143.538376,181.305023 145.652512,177.534409 143.955688,174.756775 &#xA;&#x9;C138.621872,166.025558 133.360687,157.254837 128.323380,147.413940 &#xA;&#x9;C124.544472,153.981628 120.224586,159.102478 115.112091,163.902740 &#xA;&#x9;C117.602295,166.520920 119.645210,168.668839 122.201164,171.305603 &#xA;" fill="#FFFFFF" stroke="#000000"/>
  <path d="M152.556244,229.416000 &#xA;&#x9;C150.832336,229.388077 149.012039,229.689636 147.955933,230.974838 &#xA;&#x9;C141.894775,238.350876 136.839630,246.412231 131.296677,255.080063 &#xA;&#x9;C140.093048,254.213928 147.930634,253.748520 153.869873,260.154510 &#xA;&#x9;C156.002884,258.644684 156.064117,256.686127 156.452133,254.986649 &#xA;&#x9;C157.633453,249.812500 158.591400,244.587845 159.715866,239.400085 &#xA;&#x9;C161.199783,232.554077 160.321121,231.140991 152.556244,229.416000 &#xA;" fill="#FFFFFF" stroke="#000000"/>
  <path d="M131.186646,315.297668 &#xA;&#x9;C126.390556,307.835480 120.714371,301.190887 113.662201,295.716522 &#xA;&#x9;C110.293373,293.101410 108.259102,293.542664 106.467720,297.445221 &#xA;&#x9;C105.291916,300.006775 105.303802,302.070740 106.909660,304.386353 &#xA;&#x9;C111.553513,311.082733 116.264618,317.721100 122.086517,323.467102 &#xA;&#x9;C125.592361,326.927277 128.860657,330.704315 133.360458,332.994843 &#xA;&#x9;C137.379639,327.030609 137.390274,327.025177 134.407043,321.181824 &#xA;&#x9;C133.500854,319.406830 132.518173,317.670868 131.186646,315.297668 &#xA;" fill="#FFFFFF" stroke="#000000"/>
  <path d="M258.710571,352.695801 &#xA;&#x9;C257.171509,349.937469 255.621338,347.185211 254.098404,344.417999 &#xA;&#x9;C253.410797,343.168610 252.646088,342.228119 250.968765,342.672516 &#xA;&#x9;C248.512177,343.323334 241.176590,350.890289 241.623871,353.197144 &#xA;&#x9;C243.403366,362.374664 246.554367,370.950500 254.404831,377.715973 &#xA;&#x9;C257.793518,372.403137 262.268036,369.060791 267.775024,366.664948 &#xA;&#x9;C264.666687,361.890076 261.877869,357.606049 258.710571,352.695801 &#xA;" fill="#FFFFFF" stroke="#000000"/>
  <path d="M130.711365,250.990112 &#xA;&#x9;C134.794022,244.950943 138.773575,238.838226 143.005478,232.905502 &#xA;&#x9;C144.945709,230.185486 145.058960,227.741547 143.033264,225.228500 &#xA;&#x9;C141.290771,223.066757 139.961487,220.492310 136.833420,218.791977 &#xA;&#x9;C130.763123,224.166565 124.595322,229.640610 118.409424,235.094131 &#xA;&#x9;C117.060555,236.283310 117.466438,237.409027 118.426765,238.534927 &#xA;&#x9;C122.389153,243.180603 125.457039,248.413483 128.278915,254.324509 &#xA;&#x9;C129.211365,253.097717 129.796829,252.327438 130.711365,250.990112 &#xA;" fill="#FFFFFF" stroke="#000000"/>
  <path d="M113.184181,279.848175 &#xA;&#x9;C114.177101,277.995239 116.010674,276.192230 114.477264,273.938385 &#xA;&#x9;C108.608734,265.312714 103.344719,256.218933 95.577110,249.031921 &#xA;&#x9;C94.208633,247.765747 92.765549,247.053085 91.365410,248.894379 &#xA;&#x9;C89.491531,251.358658 86.859558,253.255707 85.473373,256.470245 &#xA;&#x9;C95.493401,264.812561 101.194656,276.351349 108.392868,286.943115 &#xA;&#x9;C110.600876,284.872894 111.669113,282.626892 113.184181,279.848175 &#xA;" fill="#FFFFFF" stroke="#000000"/>
  <path d="M196.477676,153.006546 &#xA;&#x9;C196.981964,150.975128 200.486450,148.260498 197.512695,147.088364 &#xA;&#x9;C191.795410,144.834839 186.705704,141.827972 181.716492,136.859314 &#xA;&#x9;C179.669785,147.619690 177.874496,157.062881 176.077133,166.505707 &#xA;&#x9;C175.270737,170.742188 178.532944,171.976746 181.343704,173.249664 &#xA;&#x9;C184.392166,174.630219 185.334991,171.975983 186.502762,169.984299 &#xA;&#x9;C189.698746,164.533356 192.903214,159.087372 196.477676,153.006546 &#xA;" fill="#FFFFFF" stroke="#000000"/>
  <path d="M218.823196,258.715698 &#xA;&#x9;C221.189972,262.058807 223.556747,265.401947 226.607040,269.710541 &#xA;&#x9;C228.704117,257.824066 236.213882,251.097366 244.796661,244.836777 &#xA;&#x9;C242.628555,242.871246 240.975128,241.497513 239.470947,239.976212 &#xA;&#x9;C237.683990,238.168945 235.889114,238.193085 234.323395,240.002945 &#xA;&#x9;C230.862701,244.003250 227.157776,244.247421 223.364380,240.857697 &#xA;&#x9;C213.797455,248.679382 213.077850,251.309738 218.823196,258.715698 &#xA;" fill="#FFFFFF" stroke="#000000"/>
  <path d="M55.339588,378.871857 &#xA;&#x9;C56.990337,376.564545 62.526005,376.354553 59.416946,371.480988 &#xA;&#x9;C56.552345,366.990570 54.345791,366.577972 49.006023,369.253235 &#xA;&#x9;C43.345619,372.089111 37.609226,374.743561 31.531939,376.602081 &#xA;&#x9;C28.779366,377.443848 26.073345,378.437836 22.936203,379.501801 &#xA;&#x9;C25.762112,382.895477 28.448757,385.448730 30.107727,388.747833 &#xA;&#x9;C31.154692,390.829834 32.620285,390.500549 34.269409,389.661896 &#xA;&#x9;C41.091999,386.192261 47.919777,382.732849 55.339588,378.871857 &#xA;" fill="#FFFFFF" stroke="#000000"/>
  <path d="M212.730682,315.242310 &#xA;&#x9;C210.813858,318.561188 208.964813,321.905365 207.757965,325.574249 &#xA;&#x9;C206.866379,328.284698 207.504791,330.346466 209.973999,332.145111 &#xA;&#x9;C221.998474,322.292633 229.968628,309.666687 237.324051,296.576019 &#xA;&#x9;C238.083328,295.224731 239.621002,293.574860 237.785294,292.139923 &#xA;&#x9;C236.011841,290.753632 234.722473,292.641785 233.480469,293.543640 &#xA;&#x9;C225.458160,299.368805 218.637115,306.373413 212.730682,315.242310 &#xA;" fill="#FFFFFF" stroke="#000000"/>
  <path d="M242.542068,250.103699 &#xA;&#x9;C238.094498,253.174225 234.370895,256.919830 231.923340,261.789856 &#xA;&#x9;C227.540558,270.510559 229.532242,278.604797 237.371780,284.082245 &#xA;&#x9;C239.823624,273.274750 243.229294,262.908325 251.085464,254.648590 &#xA;&#x9;C252.547791,253.111130 252.537109,251.863327 251.086533,250.394196 &#xA;&#x9;C248.598373,247.874237 246.072235,246.421753 242.542068,250.103699 &#xA;" fill="#FFFFFF" stroke="#000000"/>
  <path d="M192.640182,225.765640 &#xA;&#x9;C198.965591,233.400436 205.291016,241.035233 212.005859,249.140091 &#xA;&#x9;C215.125916,245.407730 217.830811,242.171997 220.791946,238.629730 &#xA;&#x9;C213.566132,232.096497 206.719177,225.818024 199.750916,219.677200 &#xA;&#x9;C198.301605,218.399994 196.918625,215.515869 194.451553,217.516937 &#xA;&#x9;C192.170059,219.367462 189.942245,221.773346 192.640182,225.765640 &#xA;" fill="#FFFFFF" stroke="#000000"/>
  <path d="M192.654144,188.344772 &#xA;&#x9;C190.068161,185.222046 187.482193,182.099319 184.643478,178.671402 &#xA;&#x9;C180.057388,185.914825 175.806412,192.647797 171.531296,199.365417 &#xA;&#x9;C170.671997,200.715637 170.025665,202.056610 171.436127,203.390137 &#xA;&#x9;C177.199051,208.838638 182.986954,214.260712 188.752914,219.680542 &#xA;&#x9;C193.793289,214.388428 193.834457,214.344452 188.326309,209.189041 &#xA;&#x9;C185.254913,206.314316 182.357117,203.328140 181.120148,199.202133 &#xA;&#x9;C180.152924,195.975830 178.526031,192.648315 181.133194,189.350494 &#xA;&#x9;C188.888535,194.274597 190.184036,194.211502 192.654144,188.344772 &#xA;" fill="#FFFFFF" stroke="#000000"/>
  <path d="M158.366302,262.072876 &#xA;&#x9;C164.667572,260.924042 170.990280,260.012390 177.950043,260.864929 &#xA;&#x9;C176.102722,252.857819 174.353134,245.459518 172.705338,238.038620 &#xA;&#x9;C172.068985,235.172745 170.010925,235.078613 167.743942,235.107559 &#xA;&#x9;C165.175018,235.140350 163.093552,235.924820 162.521088,238.709290 &#xA;&#x9;C160.952988,246.336288 159.462189,253.979156 158.366302,262.072876 &#xA;" fill="#FFFFFF" stroke="#000000"/>
  <path d="M65.311066,124.725670 &#xA;&#x9;C65.207138,129.555603 65.024582,134.385468 65.020691,139.215469 &#xA;&#x9;C65.016533,144.378357 65.167473,149.541656 65.280563,154.704132 &#xA;&#x9;C65.311371,156.110580 65.588852,157.515610 67.401123,157.469711 &#xA;&#x9;C69.097099,157.426758 69.551857,156.137589 69.613411,154.687881 &#xA;&#x9;C69.669937,153.356842 69.693695,152.023285 69.689705,150.690979 &#xA;&#x9;C69.649582,137.292343 71.762665,124.192558 75.190094,111.280937 &#xA;&#x9;C76.864571,104.972908 75.832390,103.126076 68.891098,100.726913 &#xA;&#x9;C66.506157,108.243454 66.235306,116.064507 65.311066,124.725670 &#xA;" fill="#FFFFFF" stroke="#000000"/>
  <path d="M268.886566,102.945404 &#xA;&#x9;C268.591431,102.041550 268.944885,100.893211 267.497925,100.036446 &#xA;&#x9;C264.622314,102.845673 260.382629,104.705170 262.006317,110.286743 &#xA;&#x9;C265.886322,123.624626 267.305756,137.342331 268.010223,151.159821 &#xA;&#x9;C268.097992,152.881485 267.611267,155.307281 270.272949,155.398666 &#xA;&#x9;C272.975769,155.491455 272.658997,153.125687 272.693268,151.350250 &#xA;&#x9;C273.002289,135.340744 272.236603,119.410660 268.886566,102.945404 &#xA;" fill="#FFFFFF" stroke="#000000"/>
  <path d="M84.825272,334.412384 &#xA;&#x9;C84.683914,335.255981 84.564384,336.285706 85.365021,336.695221 &#xA;&#x9;C90.558380,339.351471 93.988182,343.754700 97.109772,349.043793 &#xA;&#x9;C101.136475,323.148590 98.148117,317.201447 88.167427,311.380554 &#xA;&#x9;C87.087616,318.904175 86.028107,326.286377 84.825272,334.412384 &#xA;" fill="#FFFFFF" stroke="#000000"/>
  <path d="M140.195755,217.110016 &#xA;&#x9;C142.456451,220.094101 144.717163,223.078201 147.264236,226.440292 &#xA;&#x9;C153.226639,218.827469 158.832962,211.675934 164.429886,204.517044 &#xA;&#x9;C165.436615,203.229355 165.900742,201.904602 164.529053,200.537827 &#xA;&#x9;C162.350296,198.366852 160.179169,196.188202 157.507172,193.514938 &#xA;&#x9;C155.955032,201.125320 151.379715,205.830582 146.373779,210.318985 &#xA;&#x9;C144.195129,212.272400 141.282349,213.545609 140.195755,217.110016 &#xA;" fill="#FFFFFF" stroke="#000000"/>
  <path d="M267.268707,165.454269 &#xA;&#x9;C265.888336,176.362137 264.095795,187.200806 260.122650,197.503448 &#xA;&#x9;C258.679718,201.245132 260.600739,202.061081 263.410248,203.120010 &#xA;&#x9;C266.956268,204.456543 267.943237,202.491364 268.425354,199.733826 &#xA;&#x9;C269.141083,195.640106 269.868317,191.538727 270.322876,187.411102 &#xA;&#x9;C271.196472,179.477982 271.977722,171.531342 272.575684,163.573669 &#xA;&#x9;C272.716858,161.694901 273.753662,158.676132 270.356354,158.483536 &#xA;&#x9;C266.677979,158.274979 267.616577,161.430771 267.329437,163.576340 &#xA;&#x9;C267.285522,163.904755 267.305725,164.241730 267.268707,165.454269 &#xA;" fill="#FFFFFF" stroke="#000000"/>
  <path d="M73.452293,204.531281 &#xA;&#x9;C75.898857,203.570236 79.817490,203.666077 78.206085,199.328491 &#xA;&#x9;C74.015015,188.046783 71.492767,176.421143 70.221397,164.477081 &#xA;&#x9;C70.054985,162.913757 70.345108,160.202606 67.487160,160.725555 &#xA;&#x9;C65.339729,161.118500 65.756363,163.193512 65.872696,164.853882 &#xA;&#x9;C66.638687,175.786926 68.024010,186.643631 70.027832,197.415298 &#xA;&#x9;C70.489975,199.899521 69.819748,202.904999 73.452293,204.531281 &#xA;" fill="#FFFFFF" stroke="#000000"/>
  <path d="M276.259857,365.596619 &#xA;&#x9;C272.670563,365.842590 272.785492,367.742798 274.653229,369.822815 &#xA;&#x9;C277.095154,372.542267 279.683075,375.180511 282.494904,377.507233 &#xA;&#x9;C287.831390,381.922943 293.381195,386.076630 300.197571,388.914825 &#xA;&#x9;C301.459320,386.029083 302.499664,383.649689 303.706818,380.888763 &#xA;&#x9;C293.991058,376.700287 285.175446,371.732971 276.259857,365.596619 &#xA;" fill="#FFFFFF" stroke="#000000"/>
  <path d="M243.795639,320.493530 &#xA;&#x9;C241.361069,319.501801 238.727997,320.607147 238.515518,323.385590 &#xA;&#x9;C237.888519,331.584564 238.385788,339.737183 240.762970,348.224854 &#xA;&#x9;C243.488968,345.428864 245.226700,342.619080 248.115677,341.215973 &#xA;&#x9;C251.683044,339.483490 251.235519,337.226135 249.651306,334.356842 &#xA;&#x9;C247.324448,330.142548 245.028687,325.887085 243.795639,320.493530 &#xA;" fill="#FFFFFF" stroke="#000000"/>
  <path d="M89.677696,270.892761 &#xA;&#x9;C93.526512,279.907959 97.224861,289.003601 103.367134,297.686523 &#xA;&#x9;C104.960197,294.278900 107.791786,292.093689 105.938858,288.811035 &#xA;&#x9;C100.588661,279.332642 94.986412,270.008850 86.919746,261.582306 &#xA;&#x9;C87.041992,265.176453 88.516678,267.596985 89.677696,270.892761 &#xA;" fill="#FFFFFF" stroke="#000000"/>
  <path d="M103.826698,323.540375 &#xA;&#x9;C110.781509,325.218964 115.426430,330.461639 120.685150,335.407379 &#xA;&#x9;C121.187035,332.175232 105.928192,311.409821 101.340218,307.848755 &#xA;&#x9;C101.340218,310.723785 101.235031,313.862549 101.376183,316.990173 &#xA;&#x9;C101.474762,319.174591 100.459099,321.749939 103.826698,323.540375 &#xA;" fill="#FFFFFF" stroke="#000000"/>
  <path d="M174.964417,210.620438 &#xA;&#x9;C173.601791,209.549072 172.806992,207.673386 170.331055,207.478867 &#xA;&#x9;C170.764740,215.445358 172.424759,222.981888 174.285446,231.457687 &#xA;&#x9;C177.453796,226.939575 180.989105,224.284286 184.567535,221.516220 &#xA;&#x9;C181.926834,217.230988 178.450012,214.373459 174.964417,210.620438 &#xA;" fill="#FFFFFF" stroke="#000000"/>
  <path d="M159.029022,190.464096 &#xA;&#x9;C160.975021,192.585007 162.513428,195.130829 165.822983,197.279770 &#xA;&#x9;C163.775040,188.555664 162.690887,180.590225 159.871857,172.100189 &#xA;&#x9;C157.053894,175.452393 153.099640,175.759277 150.433853,178.397690 &#xA;&#x9;C152.458389,182.925262 155.729034,186.274521 159.029022,190.464096 &#xA;" fill="#FFFFFF" stroke="#000000"/>
  <path d="M89.901962,291.120056 &#xA;&#x9;C89.446854,295.729309 88.985336,300.337952 88.541435,304.948273 &#xA;&#x9;C88.438873,306.013458 88.816109,306.978546 89.653046,307.590118 &#xA;&#x9;C92.822205,309.906067 95.117516,313.132172 98.040421,316.196381 &#xA;&#x9;C99.458138,306.019653 96.136078,294.592957 90.368301,289.007965 &#xA;&#x9;C90.263916,289.511475 90.163437,289.996155 89.901962,291.120056 &#xA;" fill="#FFFFFF" stroke="#000000"/>
  <path d="M67.717094,367.181396 &#xA;&#x9;C71.247314,362.438019 74.481735,357.559357 75.421738,350.767090 &#xA;&#x9;C69.046310,355.862274 63.286060,360.465820 57.327457,365.227875 &#xA;&#x9;C59.470261,367.564758 61.242035,369.497040 62.973961,371.385834 &#xA;&#x9;C65.262077,370.802673 66.133789,369.095428 67.717094,367.181396 &#xA;" fill="#FFFFFF" stroke="#000000"/>
  <path d="M154.364288,221.755325 &#xA;&#x9;C153.621506,223.157959 151.999466,224.100739 152.112381,226.542862 &#xA;&#x9;C155.395706,226.267822 158.039551,228.566849 161.472473,229.005112 &#xA;&#x9;C163.389679,222.148758 164.499649,215.430237 165.562958,207.305466 &#xA;&#x9;C161.421448,212.640610 158.102600,216.916000 154.364288,221.755325 &#xA;" fill="#FFFFFF" stroke="#000000"/>
  <path d="M241.397125,278.857025 &#xA;&#x9;C240.559082,282.128387 239.346283,285.359314 240.016647,289.133209 &#xA;&#x9;C243.958710,285.160706 252.636169,263.309448 252.803375,257.394012 &#xA;&#x9;C248.218857,261.378876 244.821747,267.666840 241.397125,278.857025 &#xA;" fill="#FFFFFF" stroke="#000000"/>
  <path d="M171.793320,174.315765 &#xA;&#x9;C172.775620,169.692719 169.443588,172.541977 168.197845,172.446487 &#xA;&#x9;C166.160629,172.290314 163.323532,172.065598 163.938263,175.534714 &#xA;&#x9;C164.995987,181.503723 166.323074,187.425003 167.537094,193.366333 &#xA;&#x9;C167.839630,193.364532 168.142181,193.362747 168.444717,193.360962 &#xA;&#x9;C169.523743,187.248383 170.602783,181.135818 171.793320,174.315765 &#xA;" fill="#FFFFFF" stroke="#000000"/>
  <path d="M178.974503,182.568283 &#xA;&#x9;C182.247604,176.586639 182.247604,176.586639 174.497925,173.262985 &#xA;&#x9;C174.008041,179.371582 171.611359,185.134064 172.548813,192.598480 &#xA;&#x9;C175.051819,188.714615 176.833786,185.949570 178.974503,182.568283 &#xA;" fill="#FFFFFF" stroke="#000000"/>
  <path d="M148.207520,180.813660 &#xA;&#x9;C147.361130,179.770950 146.603973,179.873001 145.922760,180.989578 &#xA;&#x9;C144.577179,183.195145 143.230286,185.399902 141.699203,187.907593 &#xA;&#x9;C143.893646,189.359177 145.811768,190.601761 147.701935,191.885498 &#xA;&#x9;C149.705429,193.246185 151.058884,192.153580 152.416336,190.763092 &#xA;&#x9;C153.841904,189.302856 153.759293,187.943161 152.495010,186.411148 &#xA;&#x9;C151.131195,184.758530 149.902649,182.994278 148.207520,180.813660 &#xA;" fill="#FFFFFF" stroke="#000000"/>
  <path d="M168.748596,216.433640 &#xA;&#x9;C168.626663,215.852661 168.504730,215.271683 168.382797,214.690689 &#xA;&#x9;C166.341736,220.274094 164.722717,225.815140 164.395401,231.689880 &#xA;&#x9;C166.848709,232.188293 168.741577,232.099670 170.788055,231.261780 &#xA;&#x9;C170.953308,226.405228 169.634949,221.788284 168.748596,216.433640 &#xA;" fill="#FFFFFF" stroke="#000000"/>
  <path d="M242.929611,312.522064 &#xA;&#x9;C242.929611,308.384125 242.929611,304.246216 242.929611,299.482361 &#xA;&#x9;C237.868515,305.339233 237.486938,311.298126 238.620789,317.855621 &#xA;&#x9;C241.328766,317.145477 243.414673,316.396240 242.929611,312.522064 &#xA;" fill="#FFFFFF" stroke="#000000"/>
  <path d="M227.466309,322.488525 &#xA;&#x9;C227.171906,323.342926 225.998627,323.866882 226.486008,325.034393 &#xA;&#x9;C236.797073,321.445435 236.797073,321.445435 234.923050,312.445801 &#xA;&#x9;C232.521851,315.699127 230.195587,318.850922 227.466309,322.488525 &#xA;" fill="#FFFFFF" stroke="#000000"/>
  <path d="M245.636627,233.367813 &#xA;&#x9;C245.636627,231.450378 245.636627,229.532944 245.636627,227.140396 &#xA;&#x9;C237.765717,235.723938 237.674789,237.516235 244.622345,239.250717 &#xA;&#x9;C246.055908,237.744644 245.354523,235.808212 245.636627,233.367813 &#xA;" fill="#FFFFFF" stroke="#000000"/>
  <path d="M264.919403,357.683136 &#xA;&#x9;C269.124512,364.077057 269.124512,364.077057 272.870300,363.499084 &#xA;&#x9;C270.017151,358.756409 265.006165,356.521576 261.690155,352.641357 &#xA;&#x9;C262.635010,354.131195 263.579865,355.621063 264.919403,357.683136 &#xA;" fill="#FFFFFF" stroke="#000000"/>
  <path d="M124.885284,340.030518 &#xA;&#x9;C127.103638,341.389771 129.306793,341.491608 132.085266,340.079254 &#xA;&#x9;C129.771744,338.240753 128.048965,336.537292 125.751091,335.819031 &#xA;&#x9;C124.105133,336.763062 124.382683,338.104675 124.885284,340.030518 &#xA;" fill="#FFFFFF" stroke="#000000"/>
  <path d="M96.485695,232.494431 &#xA;&#x9;C94.799973,234.795486 95.223045,237.155304 95.907890,239.899597 &#xA;&#x9;C99.139481,237.529160 99.777649,235.333084 96.485695,232.494431 &#xA;z" fill="#FFFFFF" stroke="#000000"/>
</svg>